<?xml version="1.0" encoding="UTF-8"?>
<svg xmlns="http://www.w3.org/2000/svg" width="940" height="420" viewBox="0 0 940 420">
<rect width="940" height="420" fill="#111"/>
<line x1="50" y1="340" x2="900" y2="340" stroke="#555" stroke-width="1"/>
<rect x="70.00" y="244.73" width="36.48" height="95.27" fill="#7aa7ff"/>
<text x="70.00" y="365" fill="#bbb" font-size="10" transform="rotate(45 70.00 365)">512 1/8</text>
<rect x="120.67" y="159.70" width="36.48" height="180.30" fill="#7aa7ff"/>
<text x="120.67" y="365" fill="#bbb" font-size="10" transform="rotate(45 120.67 365)">512 1/16</text>
<rect x="171.33" y="60.00" width="36.48" height="280.00" fill="#7aa7ff"/>
<text x="171.33" y="365" fill="#bbb" font-size="10" transform="rotate(45 171.33 365)">512 1/32</text>
<rect x="222.00" y="263.77" width="36.48" height="76.23" fill="#7aa7ff"/>
<text x="222.00" y="365" fill="#bbb" font-size="10" transform="rotate(45 222.00 365)">768 1/8</text>
<rect x="272.67" y="231.37" width="36.48" height="108.63" fill="#7aa7ff"/>
<text x="272.67" y="365" fill="#bbb" font-size="10" transform="rotate(45 272.67 365)">768 1/16</text>
<rect x="323.33" y="138.65" width="36.48" height="201.35" fill="#7aa7ff"/>
<text x="323.33" y="365" fill="#bbb" font-size="10" transform="rotate(45 323.33 365)">768 1/32</text>
<rect x="374.00" y="259.49" width="36.48" height="80.51" fill="#7aa7ff"/>
<text x="374.00" y="365" fill="#bbb" font-size="10" transform="rotate(45 374.00 365)">1024 1/8</text>
<rect x="424.67" y="249.08" width="36.48" height="90.92" fill="#7aa7ff"/>
<text x="424.67" y="365" fill="#bbb" font-size="10" transform="rotate(45 424.67 365)">1024 1/16</text>
<rect x="475.33" y="142.51" width="36.48" height="197.49" fill="#7aa7ff"/>
<text x="475.33" y="365" fill="#bbb" font-size="10" transform="rotate(45 475.33 365)">1024 1/32</text>
<rect x="526.00" y="286.11" width="36.48" height="53.89" fill="#7aa7ff"/>
<text x="526.00" y="365" fill="#bbb" font-size="10" transform="rotate(45 526.00 365)">1536 1/8</text>
<rect x="576.67" y="221.90" width="36.48" height="118.10" fill="#7aa7ff"/>
<text x="576.67" y="365" fill="#bbb" font-size="10" transform="rotate(45 576.67 365)">1536 1/16</text>
<rect x="627.33" y="182.16" width="36.48" height="157.84" fill="#7aa7ff"/>
<text x="627.33" y="365" fill="#bbb" font-size="10" transform="rotate(45 627.33 365)">1536 1/32</text>
<rect x="678.00" y="285.63" width="36.48" height="54.37" fill="#7aa7ff"/>
<text x="678.00" y="365" fill="#bbb" font-size="10" transform="rotate(45 678.00 365)">2048 1/8</text>
<rect x="728.67" y="246.22" width="36.48" height="93.78" fill="#7aa7ff"/>
<text x="728.67" y="365" fill="#bbb" font-size="10" transform="rotate(45 728.67 365)">2048 1/16</text>
<rect x="779.33" y="228.91" width="36.48" height="111.09" fill="#7aa7ff"/>
<text x="779.33" y="365" fill="#bbb" font-size="10" transform="rotate(45 779.33 365)">2048 1/32</text>
</svg>
