<?xml version="1.0" encoding="UTF-8"?>
<svg xmlns="http://www.w3.org/2000/svg" width="1000" height="420" viewBox="0 0 1000 420">
<rect width="1000" height="420" fill="#111"/>
<line x1="50" y1="340" x2="950" y2="340" stroke="#555" stroke-width="1"/>
<line x1="50.00" y1="340" x2="50.00" y2="246.14" stroke="#7aa7ff" stroke-width="1"/>
<line x1="51.71" y1="340" x2="51.71" y2="216.70" stroke="#7aa7ff" stroke-width="1"/>
<line x1="53.42" y1="340" x2="53.42" y2="208.30" stroke="#7aa7ff" stroke-width="1"/>
<line x1="55.12" y1="340" x2="55.12" y2="208.43" stroke="#7aa7ff" stroke-width="1"/>
<line x1="56.83" y1="340" x2="56.83" y2="215.10" stroke="#7aa7ff" stroke-width="1"/>
<line x1="58.54" y1="340" x2="58.54" y2="233.15" stroke="#7aa7ff" stroke-width="1"/>
<line x1="60.25" y1="340" x2="60.25" y2="242.33" stroke="#7aa7ff" stroke-width="1"/>
<line x1="61.95" y1="340" x2="61.95" y2="245.40" stroke="#7aa7ff" stroke-width="1"/>
<line x1="63.66" y1="340" x2="63.66" y2="219.01" stroke="#7aa7ff" stroke-width="1"/>
<line x1="65.37" y1="340" x2="65.37" y2="207.23" stroke="#7aa7ff" stroke-width="1"/>
<line x1="67.08" y1="340" x2="67.08" y2="214.13" stroke="#7aa7ff" stroke-width="1"/>
<line x1="68.79" y1="340" x2="68.79" y2="231.68" stroke="#7aa7ff" stroke-width="1"/>
<line x1="70.49" y1="340" x2="70.49" y2="244.18" stroke="#7aa7ff" stroke-width="1"/>
<line x1="72.20" y1="340" x2="72.20" y2="246.44" stroke="#7aa7ff" stroke-width="1"/>
<line x1="73.91" y1="340" x2="73.91" y2="236.40" stroke="#7aa7ff" stroke-width="1"/>
<line x1="75.62" y1="340" x2="75.62" y2="228.13" stroke="#7aa7ff" stroke-width="1"/>
<line x1="77.32" y1="340" x2="77.32" y2="220.53" stroke="#7aa7ff" stroke-width="1"/>
<line x1="79.03" y1="340" x2="79.03" y2="225.61" stroke="#7aa7ff" stroke-width="1"/>
<line x1="80.74" y1="340" x2="80.74" y2="229.59" stroke="#7aa7ff" stroke-width="1"/>
<line x1="82.45" y1="340" x2="82.45" y2="240.46" stroke="#7aa7ff" stroke-width="1"/>
<line x1="84.16" y1="340" x2="84.16" y2="259.78" stroke="#7aa7ff" stroke-width="1"/>
<line x1="85.86" y1="340" x2="85.86" y2="262.94" stroke="#7aa7ff" stroke-width="1"/>
<line x1="87.57" y1="340" x2="87.57" y2="240.80" stroke="#7aa7ff" stroke-width="1"/>
<line x1="89.28" y1="340" x2="89.28" y2="193.02" stroke="#7aa7ff" stroke-width="1"/>
<line x1="90.99" y1="340" x2="90.99" y2="175.36" stroke="#7aa7ff" stroke-width="1"/>
<line x1="92.69" y1="340" x2="92.69" y2="188.64" stroke="#7aa7ff" stroke-width="1"/>
<line x1="94.40" y1="340" x2="94.40" y2="213.48" stroke="#7aa7ff" stroke-width="1"/>
<line x1="96.11" y1="340" x2="96.11" y2="246.23" stroke="#7aa7ff" stroke-width="1"/>
<line x1="97.82" y1="340" x2="97.82" y2="267.16" stroke="#7aa7ff" stroke-width="1"/>
<line x1="99.53" y1="340" x2="99.53" y2="269.02" stroke="#7aa7ff" stroke-width="1"/>
<line x1="101.23" y1="340" x2="101.23" y2="265.67" stroke="#7aa7ff" stroke-width="1"/>
<line x1="102.94" y1="340" x2="102.94" y2="278.64" stroke="#7aa7ff" stroke-width="1"/>
<line x1="104.65" y1="340" x2="104.65" y2="301.84" stroke="#7aa7ff" stroke-width="1"/>
<line x1="106.36" y1="340" x2="106.36" y2="304.51" stroke="#7aa7ff" stroke-width="1"/>
<line x1="108.06" y1="340" x2="108.06" y2="305.10" stroke="#7aa7ff" stroke-width="1"/>
<line x1="109.77" y1="340" x2="109.77" y2="304.33" stroke="#7aa7ff" stroke-width="1"/>
<line x1="111.48" y1="340" x2="111.48" y2="305.52" stroke="#7aa7ff" stroke-width="1"/>
<line x1="113.19" y1="340" x2="113.19" y2="300.73" stroke="#7aa7ff" stroke-width="1"/>
<line x1="114.90" y1="340" x2="114.90" y2="301.20" stroke="#7aa7ff" stroke-width="1"/>
<line x1="116.60" y1="340" x2="116.60" y2="322.32" stroke="#7aa7ff" stroke-width="1"/>
<line x1="118.31" y1="340" x2="118.31" y2="310.46" stroke="#7aa7ff" stroke-width="1"/>
<line x1="120.02" y1="340" x2="120.02" y2="295.87" stroke="#7aa7ff" stroke-width="1"/>
<line x1="121.73" y1="340" x2="121.73" y2="311.26" stroke="#7aa7ff" stroke-width="1"/>
<line x1="123.43" y1="340" x2="123.43" y2="314.19" stroke="#7aa7ff" stroke-width="1"/>
<line x1="125.14" y1="340" x2="125.14" y2="300.89" stroke="#7aa7ff" stroke-width="1"/>
<line x1="126.85" y1="340" x2="126.85" y2="286.36" stroke="#7aa7ff" stroke-width="1"/>
<line x1="128.56" y1="340" x2="128.56" y2="279.47" stroke="#7aa7ff" stroke-width="1"/>
<line x1="130.27" y1="340" x2="130.27" y2="286.76" stroke="#7aa7ff" stroke-width="1"/>
<line x1="131.97" y1="340" x2="131.97" y2="313.46" stroke="#7aa7ff" stroke-width="1"/>
<line x1="133.68" y1="340" x2="133.68" y2="314.48" stroke="#7aa7ff" stroke-width="1"/>
<line x1="135.39" y1="340" x2="135.39" y2="284.65" stroke="#7aa7ff" stroke-width="1"/>
<line x1="137.10" y1="340" x2="137.10" y2="268.37" stroke="#7aa7ff" stroke-width="1"/>
<line x1="138.80" y1="340" x2="138.80" y2="261.73" stroke="#7aa7ff" stroke-width="1"/>
<line x1="140.51" y1="340" x2="140.51" y2="255.04" stroke="#7aa7ff" stroke-width="1"/>
<line x1="142.22" y1="340" x2="142.22" y2="256.35" stroke="#7aa7ff" stroke-width="1"/>
<line x1="143.93" y1="340" x2="143.93" y2="269.15" stroke="#7aa7ff" stroke-width="1"/>
<line x1="145.64" y1="340" x2="145.64" y2="273.50" stroke="#7aa7ff" stroke-width="1"/>
<line x1="147.34" y1="340" x2="147.34" y2="264.42" stroke="#7aa7ff" stroke-width="1"/>
<line x1="149.05" y1="340" x2="149.05" y2="244.10" stroke="#7aa7ff" stroke-width="1"/>
<line x1="150.76" y1="340" x2="150.76" y2="229.99" stroke="#7aa7ff" stroke-width="1"/>
<line x1="152.47" y1="340" x2="152.47" y2="216.69" stroke="#7aa7ff" stroke-width="1"/>
<line x1="154.17" y1="340" x2="154.17" y2="206.87" stroke="#7aa7ff" stroke-width="1"/>
<line x1="155.88" y1="340" x2="155.88" y2="208.53" stroke="#7aa7ff" stroke-width="1"/>
<line x1="157.59" y1="340" x2="157.59" y2="221.31" stroke="#7aa7ff" stroke-width="1"/>
<line x1="159.30" y1="340" x2="159.30" y2="233.35" stroke="#7aa7ff" stroke-width="1"/>
<line x1="161.01" y1="340" x2="161.01" y2="236.38" stroke="#7aa7ff" stroke-width="1"/>
<line x1="162.71" y1="340" x2="162.71" y2="240.53" stroke="#7aa7ff" stroke-width="1"/>
<line x1="164.42" y1="340" x2="164.42" y2="234.23" stroke="#7aa7ff" stroke-width="1"/>
<line x1="166.13" y1="340" x2="166.13" y2="228.38" stroke="#7aa7ff" stroke-width="1"/>
<line x1="167.84" y1="340" x2="167.84" y2="226.50" stroke="#7aa7ff" stroke-width="1"/>
<line x1="169.54" y1="340" x2="169.54" y2="243.68" stroke="#7aa7ff" stroke-width="1"/>
<line x1="171.25" y1="340" x2="171.25" y2="262.79" stroke="#7aa7ff" stroke-width="1"/>
<line x1="172.96" y1="340" x2="172.96" y2="258.40" stroke="#7aa7ff" stroke-width="1"/>
<line x1="174.67" y1="340" x2="174.67" y2="229.37" stroke="#7aa7ff" stroke-width="1"/>
<line x1="176.38" y1="340" x2="176.38" y2="204.72" stroke="#7aa7ff" stroke-width="1"/>
<line x1="178.08" y1="340" x2="178.08" y2="198.46" stroke="#7aa7ff" stroke-width="1"/>
<line x1="179.79" y1="340" x2="179.79" y2="203.66" stroke="#7aa7ff" stroke-width="1"/>
<line x1="181.50" y1="340" x2="181.50" y2="185.22" stroke="#7aa7ff" stroke-width="1"/>
<line x1="183.21" y1="340" x2="183.21" y2="180.49" stroke="#7aa7ff" stroke-width="1"/>
<line x1="184.91" y1="340" x2="184.91" y2="185.61" stroke="#7aa7ff" stroke-width="1"/>
<line x1="186.62" y1="340" x2="186.62" y2="186.36" stroke="#7aa7ff" stroke-width="1"/>
<line x1="188.33" y1="340" x2="188.33" y2="172.26" stroke="#7aa7ff" stroke-width="1"/>
<line x1="190.04" y1="340" x2="190.04" y2="172.17" stroke="#7aa7ff" stroke-width="1"/>
<line x1="191.75" y1="340" x2="191.75" y2="174.04" stroke="#7aa7ff" stroke-width="1"/>
<line x1="193.45" y1="340" x2="193.45" y2="182.01" stroke="#7aa7ff" stroke-width="1"/>
<line x1="195.16" y1="340" x2="195.16" y2="192.60" stroke="#7aa7ff" stroke-width="1"/>
<line x1="196.87" y1="340" x2="196.87" y2="188.99" stroke="#7aa7ff" stroke-width="1"/>
<line x1="198.58" y1="340" x2="198.58" y2="180.64" stroke="#7aa7ff" stroke-width="1"/>
<line x1="200.28" y1="340" x2="200.28" y2="176.49" stroke="#7aa7ff" stroke-width="1"/>
<line x1="201.99" y1="340" x2="201.99" y2="174.39" stroke="#7aa7ff" stroke-width="1"/>
<line x1="203.70" y1="340" x2="203.70" y2="171.32" stroke="#7aa7ff" stroke-width="1"/>
<line x1="205.41" y1="340" x2="205.41" y2="172.84" stroke="#7aa7ff" stroke-width="1"/>
<line x1="207.12" y1="340" x2="207.12" y2="161.91" stroke="#7aa7ff" stroke-width="1"/>
<line x1="208.82" y1="340" x2="208.82" y2="161.71" stroke="#7aa7ff" stroke-width="1"/>
<line x1="210.53" y1="340" x2="210.53" y2="152.46" stroke="#7aa7ff" stroke-width="1"/>
<line x1="212.24" y1="340" x2="212.24" y2="141.03" stroke="#7aa7ff" stroke-width="1"/>
<line x1="213.95" y1="340" x2="213.95" y2="142.58" stroke="#7aa7ff" stroke-width="1"/>
<line x1="215.65" y1="340" x2="215.65" y2="145.68" stroke="#7aa7ff" stroke-width="1"/>
<line x1="217.36" y1="340" x2="217.36" y2="144.63" stroke="#7aa7ff" stroke-width="1"/>
<line x1="219.07" y1="340" x2="219.07" y2="149.56" stroke="#7aa7ff" stroke-width="1"/>
<line x1="220.78" y1="340" x2="220.78" y2="177.90" stroke="#7aa7ff" stroke-width="1"/>
<line x1="222.49" y1="340" x2="222.49" y2="200.35" stroke="#7aa7ff" stroke-width="1"/>
<line x1="224.19" y1="340" x2="224.19" y2="201.73" stroke="#7aa7ff" stroke-width="1"/>
<line x1="225.90" y1="340" x2="225.90" y2="199.81" stroke="#7aa7ff" stroke-width="1"/>
<line x1="227.61" y1="340" x2="227.61" y2="224.97" stroke="#7aa7ff" stroke-width="1"/>
<line x1="229.32" y1="340" x2="229.32" y2="282.72" stroke="#7aa7ff" stroke-width="1"/>
<line x1="231.02" y1="340" x2="231.02" y2="321.89" stroke="#7aa7ff" stroke-width="1"/>
<line x1="232.73" y1="340" x2="232.73" y2="314.17" stroke="#7aa7ff" stroke-width="1"/>
<line x1="234.44" y1="340" x2="234.44" y2="294.79" stroke="#7aa7ff" stroke-width="1"/>
<line x1="236.15" y1="340" x2="236.15" y2="282.16" stroke="#7aa7ff" stroke-width="1"/>
<line x1="237.86" y1="340" x2="237.86" y2="243.83" stroke="#7aa7ff" stroke-width="1"/>
<line x1="239.56" y1="340" x2="239.56" y2="228.31" stroke="#7aa7ff" stroke-width="1"/>
<line x1="241.27" y1="340" x2="241.27" y2="247.83" stroke="#7aa7ff" stroke-width="1"/>
<line x1="242.98" y1="340" x2="242.98" y2="257.96" stroke="#7aa7ff" stroke-width="1"/>
<line x1="244.69" y1="340" x2="244.69" y2="251.88" stroke="#7aa7ff" stroke-width="1"/>
<line x1="246.39" y1="340" x2="246.39" y2="242.95" stroke="#7aa7ff" stroke-width="1"/>
<line x1="248.10" y1="340" x2="248.10" y2="257.21" stroke="#7aa7ff" stroke-width="1"/>
<line x1="249.81" y1="340" x2="249.81" y2="274.48" stroke="#7aa7ff" stroke-width="1"/>
<line x1="251.52" y1="340" x2="251.52" y2="276.64" stroke="#7aa7ff" stroke-width="1"/>
<line x1="253.23" y1="340" x2="253.23" y2="266.50" stroke="#7aa7ff" stroke-width="1"/>
<line x1="254.93" y1="340" x2="254.93" y2="254.28" stroke="#7aa7ff" stroke-width="1"/>
<line x1="256.64" y1="340" x2="256.64" y2="259.51" stroke="#7aa7ff" stroke-width="1"/>
<line x1="258.35" y1="340" x2="258.35" y2="265.63" stroke="#7aa7ff" stroke-width="1"/>
<line x1="260.06" y1="340" x2="260.06" y2="252.58" stroke="#7aa7ff" stroke-width="1"/>
<line x1="261.76" y1="340" x2="261.76" y2="225.78" stroke="#7aa7ff" stroke-width="1"/>
<line x1="263.47" y1="340" x2="263.47" y2="227.00" stroke="#7aa7ff" stroke-width="1"/>
<line x1="265.18" y1="340" x2="265.18" y2="261.65" stroke="#7aa7ff" stroke-width="1"/>
<line x1="266.89" y1="340" x2="266.89" y2="297.69" stroke="#7aa7ff" stroke-width="1"/>
<line x1="268.60" y1="340" x2="268.60" y2="294.90" stroke="#7aa7ff" stroke-width="1"/>
<line x1="270.30" y1="340" x2="270.30" y2="291.30" stroke="#7aa7ff" stroke-width="1"/>
<line x1="272.01" y1="340" x2="272.01" y2="301.94" stroke="#7aa7ff" stroke-width="1"/>
<line x1="273.72" y1="340" x2="273.72" y2="299.36" stroke="#7aa7ff" stroke-width="1"/>
<line x1="275.43" y1="340" x2="275.43" y2="283.40" stroke="#7aa7ff" stroke-width="1"/>
<line x1="277.13" y1="340" x2="277.13" y2="275.56" stroke="#7aa7ff" stroke-width="1"/>
<line x1="278.84" y1="340" x2="278.84" y2="269.80" stroke="#7aa7ff" stroke-width="1"/>
<line x1="280.55" y1="340" x2="280.55" y2="269.16" stroke="#7aa7ff" stroke-width="1"/>
<line x1="282.26" y1="340" x2="282.26" y2="267.42" stroke="#7aa7ff" stroke-width="1"/>
<line x1="283.97" y1="340" x2="283.97" y2="265.34" stroke="#7aa7ff" stroke-width="1"/>
<line x1="285.67" y1="340" x2="285.67" y2="267.20" stroke="#7aa7ff" stroke-width="1"/>
<line x1="287.38" y1="340" x2="287.38" y2="267.72" stroke="#7aa7ff" stroke-width="1"/>
<line x1="289.09" y1="340" x2="289.09" y2="271.48" stroke="#7aa7ff" stroke-width="1"/>
<line x1="290.80" y1="340" x2="290.80" y2="268.92" stroke="#7aa7ff" stroke-width="1"/>
<line x1="292.50" y1="340" x2="292.50" y2="284.69" stroke="#7aa7ff" stroke-width="1"/>
<line x1="294.21" y1="340" x2="294.21" y2="306.06" stroke="#7aa7ff" stroke-width="1"/>
<line x1="295.92" y1="340" x2="295.92" y2="330.08" stroke="#7aa7ff" stroke-width="1"/>
<line x1="297.63" y1="340" x2="297.63" y2="312.56" stroke="#7aa7ff" stroke-width="1"/>
<line x1="299.34" y1="340" x2="299.34" y2="270.57" stroke="#7aa7ff" stroke-width="1"/>
<line x1="301.04" y1="340" x2="301.04" y2="243.55" stroke="#7aa7ff" stroke-width="1"/>
<line x1="302.75" y1="340" x2="302.75" y2="240.00" stroke="#7aa7ff" stroke-width="1"/>
<line x1="304.46" y1="340" x2="304.46" y2="233.70" stroke="#7aa7ff" stroke-width="1"/>
<line x1="306.17" y1="340" x2="306.17" y2="229.99" stroke="#7aa7ff" stroke-width="1"/>
<line x1="307.87" y1="340" x2="307.87" y2="205.75" stroke="#7aa7ff" stroke-width="1"/>
<line x1="309.58" y1="340" x2="309.58" y2="188.19" stroke="#7aa7ff" stroke-width="1"/>
<line x1="311.29" y1="340" x2="311.29" y2="183.29" stroke="#7aa7ff" stroke-width="1"/>
<line x1="313.00" y1="340" x2="313.00" y2="205.24" stroke="#7aa7ff" stroke-width="1"/>
<line x1="314.71" y1="340" x2="314.71" y2="213.16" stroke="#7aa7ff" stroke-width="1"/>
<line x1="316.41" y1="340" x2="316.41" y2="198.98" stroke="#7aa7ff" stroke-width="1"/>
<line x1="318.12" y1="340" x2="318.12" y2="191.72" stroke="#7aa7ff" stroke-width="1"/>
<line x1="319.83" y1="340" x2="319.83" y2="198.96" stroke="#7aa7ff" stroke-width="1"/>
<line x1="321.54" y1="340" x2="321.54" y2="218.71" stroke="#7aa7ff" stroke-width="1"/>
<line x1="323.24" y1="340" x2="323.24" y2="255.08" stroke="#7aa7ff" stroke-width="1"/>
<line x1="324.95" y1="340" x2="324.95" y2="285.67" stroke="#7aa7ff" stroke-width="1"/>
<line x1="326.66" y1="340" x2="326.66" y2="310.54" stroke="#7aa7ff" stroke-width="1"/>
<line x1="328.37" y1="340" x2="328.37" y2="301.91" stroke="#7aa7ff" stroke-width="1"/>
<line x1="330.08" y1="340" x2="330.08" y2="288.25" stroke="#7aa7ff" stroke-width="1"/>
<line x1="331.78" y1="340" x2="331.78" y2="290.20" stroke="#7aa7ff" stroke-width="1"/>
<line x1="333.49" y1="340" x2="333.49" y2="305.46" stroke="#7aa7ff" stroke-width="1"/>
<line x1="335.20" y1="340" x2="335.20" y2="301.06" stroke="#7aa7ff" stroke-width="1"/>
<line x1="336.91" y1="340" x2="336.91" y2="290.47" stroke="#7aa7ff" stroke-width="1"/>
<line x1="338.61" y1="340" x2="338.61" y2="288.40" stroke="#7aa7ff" stroke-width="1"/>
<line x1="340.32" y1="340" x2="340.32" y2="304.61" stroke="#7aa7ff" stroke-width="1"/>
<line x1="342.03" y1="340" x2="342.03" y2="296.40" stroke="#7aa7ff" stroke-width="1"/>
<line x1="343.74" y1="340" x2="343.74" y2="273.98" stroke="#7aa7ff" stroke-width="1"/>
<line x1="345.45" y1="340" x2="345.45" y2="263.50" stroke="#7aa7ff" stroke-width="1"/>
<line x1="347.15" y1="340" x2="347.15" y2="282.99" stroke="#7aa7ff" stroke-width="1"/>
<line x1="348.86" y1="340" x2="348.86" y2="319.27" stroke="#7aa7ff" stroke-width="1"/>
<line x1="350.57" y1="340" x2="350.57" y2="309.87" stroke="#7aa7ff" stroke-width="1"/>
<line x1="352.28" y1="340" x2="352.28" y2="316.77" stroke="#7aa7ff" stroke-width="1"/>
<line x1="353.98" y1="340" x2="353.98" y2="316.17" stroke="#7aa7ff" stroke-width="1"/>
<line x1="355.69" y1="340" x2="355.69" y2="280.30" stroke="#7aa7ff" stroke-width="1"/>
<line x1="357.40" y1="340" x2="357.40" y2="255.81" stroke="#7aa7ff" stroke-width="1"/>
<line x1="359.11" y1="340" x2="359.11" y2="234.68" stroke="#7aa7ff" stroke-width="1"/>
<line x1="360.82" y1="340" x2="360.82" y2="225.86" stroke="#7aa7ff" stroke-width="1"/>
<line x1="362.52" y1="340" x2="362.52" y2="248.18" stroke="#7aa7ff" stroke-width="1"/>
<line x1="364.23" y1="340" x2="364.23" y2="263.78" stroke="#7aa7ff" stroke-width="1"/>
<line x1="365.94" y1="340" x2="365.94" y2="269.57" stroke="#7aa7ff" stroke-width="1"/>
<line x1="367.65" y1="340" x2="367.65" y2="271.68" stroke="#7aa7ff" stroke-width="1"/>
<line x1="369.35" y1="340" x2="369.35" y2="277.11" stroke="#7aa7ff" stroke-width="1"/>
<line x1="371.06" y1="340" x2="371.06" y2="261.53" stroke="#7aa7ff" stroke-width="1"/>
<line x1="372.77" y1="340" x2="372.77" y2="232.30" stroke="#7aa7ff" stroke-width="1"/>
<line x1="374.48" y1="340" x2="374.48" y2="215.57" stroke="#7aa7ff" stroke-width="1"/>
<line x1="376.19" y1="340" x2="376.19" y2="215.08" stroke="#7aa7ff" stroke-width="1"/>
<line x1="377.89" y1="340" x2="377.89" y2="206.97" stroke="#7aa7ff" stroke-width="1"/>
<line x1="379.60" y1="340" x2="379.60" y2="189.71" stroke="#7aa7ff" stroke-width="1"/>
<line x1="381.31" y1="340" x2="381.31" y2="198.43" stroke="#7aa7ff" stroke-width="1"/>
<line x1="383.02" y1="340" x2="383.02" y2="233.59" stroke="#7aa7ff" stroke-width="1"/>
<line x1="384.72" y1="340" x2="384.72" y2="267.21" stroke="#7aa7ff" stroke-width="1"/>
<line x1="386.43" y1="340" x2="386.43" y2="264.48" stroke="#7aa7ff" stroke-width="1"/>
<line x1="388.14" y1="340" x2="388.14" y2="252.43" stroke="#7aa7ff" stroke-width="1"/>
<line x1="389.85" y1="340" x2="389.85" y2="266.02" stroke="#7aa7ff" stroke-width="1"/>
<line x1="391.56" y1="340" x2="391.56" y2="292.68" stroke="#7aa7ff" stroke-width="1"/>
<line x1="393.26" y1="340" x2="393.26" y2="308.13" stroke="#7aa7ff" stroke-width="1"/>
<line x1="394.97" y1="340" x2="394.97" y2="321.51" stroke="#7aa7ff" stroke-width="1"/>
<line x1="396.68" y1="340" x2="396.68" y2="301.22" stroke="#7aa7ff" stroke-width="1"/>
<line x1="398.39" y1="340" x2="398.39" y2="277.64" stroke="#7aa7ff" stroke-width="1"/>
<line x1="400.09" y1="340" x2="400.09" y2="298.15" stroke="#7aa7ff" stroke-width="1"/>
<line x1="401.80" y1="340" x2="401.80" y2="317.46" stroke="#7aa7ff" stroke-width="1"/>
<line x1="403.51" y1="340" x2="403.51" y2="338.45" stroke="#7aa7ff" stroke-width="1"/>
<line x1="405.22" y1="340" x2="405.22" y2="321.56" stroke="#7aa7ff" stroke-width="1"/>
<line x1="406.93" y1="340" x2="406.93" y2="293.75" stroke="#7aa7ff" stroke-width="1"/>
<line x1="408.63" y1="340" x2="408.63" y2="256.76" stroke="#7aa7ff" stroke-width="1"/>
<line x1="410.34" y1="340" x2="410.34" y2="226.69" stroke="#7aa7ff" stroke-width="1"/>
<line x1="412.05" y1="340" x2="412.05" y2="219.79" stroke="#7aa7ff" stroke-width="1"/>
<line x1="413.76" y1="340" x2="413.76" y2="224.08" stroke="#7aa7ff" stroke-width="1"/>
<line x1="415.46" y1="340" x2="415.46" y2="228.47" stroke="#7aa7ff" stroke-width="1"/>
<line x1="417.17" y1="340" x2="417.17" y2="229.89" stroke="#7aa7ff" stroke-width="1"/>
<line x1="418.88" y1="340" x2="418.88" y2="226.76" stroke="#7aa7ff" stroke-width="1"/>
<line x1="420.59" y1="340" x2="420.59" y2="207.35" stroke="#7aa7ff" stroke-width="1"/>
<line x1="422.30" y1="340" x2="422.30" y2="218.02" stroke="#7aa7ff" stroke-width="1"/>
<line x1="424.00" y1="340" x2="424.00" y2="235.68" stroke="#7aa7ff" stroke-width="1"/>
<line x1="425.71" y1="340" x2="425.71" y2="249.75" stroke="#7aa7ff" stroke-width="1"/>
<line x1="427.42" y1="340" x2="427.42" y2="221.21" stroke="#7aa7ff" stroke-width="1"/>
<line x1="429.13" y1="340" x2="429.13" y2="202.46" stroke="#7aa7ff" stroke-width="1"/>
<line x1="430.83" y1="340" x2="430.83" y2="209.70" stroke="#7aa7ff" stroke-width="1"/>
<line x1="432.54" y1="340" x2="432.54" y2="244.64" stroke="#7aa7ff" stroke-width="1"/>
<line x1="434.25" y1="340" x2="434.25" y2="284.90" stroke="#7aa7ff" stroke-width="1"/>
<line x1="435.96" y1="340" x2="435.96" y2="297.20" stroke="#7aa7ff" stroke-width="1"/>
<line x1="437.67" y1="340" x2="437.67" y2="297.31" stroke="#7aa7ff" stroke-width="1"/>
<line x1="439.37" y1="340" x2="439.37" y2="279.90" stroke="#7aa7ff" stroke-width="1"/>
<line x1="441.08" y1="340" x2="441.08" y2="257.92" stroke="#7aa7ff" stroke-width="1"/>
<line x1="442.79" y1="340" x2="442.79" y2="245.77" stroke="#7aa7ff" stroke-width="1"/>
<line x1="444.50" y1="340" x2="444.50" y2="250.75" stroke="#7aa7ff" stroke-width="1"/>
<line x1="446.20" y1="340" x2="446.20" y2="252.17" stroke="#7aa7ff" stroke-width="1"/>
<line x1="447.91" y1="340" x2="447.91" y2="258.98" stroke="#7aa7ff" stroke-width="1"/>
<line x1="449.62" y1="340" x2="449.62" y2="269.79" stroke="#7aa7ff" stroke-width="1"/>
<line x1="451.33" y1="340" x2="451.33" y2="266.44" stroke="#7aa7ff" stroke-width="1"/>
<line x1="453.04" y1="340" x2="453.04" y2="269.51" stroke="#7aa7ff" stroke-width="1"/>
<line x1="454.74" y1="340" x2="454.74" y2="264.41" stroke="#7aa7ff" stroke-width="1"/>
<line x1="456.45" y1="340" x2="456.45" y2="256.15" stroke="#7aa7ff" stroke-width="1"/>
<line x1="458.16" y1="340" x2="458.16" y2="266.08" stroke="#7aa7ff" stroke-width="1"/>
<line x1="459.87" y1="340" x2="459.87" y2="292.93" stroke="#7aa7ff" stroke-width="1"/>
<line x1="461.57" y1="340" x2="461.57" y2="308.95" stroke="#7aa7ff" stroke-width="1"/>
<line x1="463.28" y1="340" x2="463.28" y2="309.30" stroke="#7aa7ff" stroke-width="1"/>
<line x1="464.99" y1="340" x2="464.99" y2="312.63" stroke="#7aa7ff" stroke-width="1"/>
<line x1="466.70" y1="340" x2="466.70" y2="300.49" stroke="#7aa7ff" stroke-width="1"/>
<line x1="468.41" y1="340" x2="468.41" y2="275.38" stroke="#7aa7ff" stroke-width="1"/>
<line x1="470.11" y1="340" x2="470.11" y2="261.09" stroke="#7aa7ff" stroke-width="1"/>
<line x1="471.82" y1="340" x2="471.82" y2="245.92" stroke="#7aa7ff" stroke-width="1"/>
<line x1="473.53" y1="340" x2="473.53" y2="230.96" stroke="#7aa7ff" stroke-width="1"/>
<line x1="475.24" y1="340" x2="475.24" y2="224.68" stroke="#7aa7ff" stroke-width="1"/>
<line x1="476.94" y1="340" x2="476.94" y2="219.50" stroke="#7aa7ff" stroke-width="1"/>
<line x1="478.65" y1="340" x2="478.65" y2="196.45" stroke="#7aa7ff" stroke-width="1"/>
<line x1="480.36" y1="340" x2="480.36" y2="165.49" stroke="#7aa7ff" stroke-width="1"/>
<line x1="482.07" y1="340" x2="482.07" y2="147.85" stroke="#7aa7ff" stroke-width="1"/>
<line x1="483.78" y1="340" x2="483.78" y2="151.09" stroke="#7aa7ff" stroke-width="1"/>
<line x1="485.48" y1="340" x2="485.48" y2="167.43" stroke="#7aa7ff" stroke-width="1"/>
<line x1="487.19" y1="340" x2="487.19" y2="170.05" stroke="#7aa7ff" stroke-width="1"/>
<line x1="488.90" y1="340" x2="488.90" y2="150.46" stroke="#7aa7ff" stroke-width="1"/>
<line x1="490.61" y1="340" x2="490.61" y2="153.31" stroke="#7aa7ff" stroke-width="1"/>
<line x1="492.31" y1="340" x2="492.31" y2="151.99" stroke="#7aa7ff" stroke-width="1"/>
<line x1="494.02" y1="340" x2="494.02" y2="131.44" stroke="#7aa7ff" stroke-width="1"/>
<line x1="495.73" y1="340" x2="495.73" y2="107.54" stroke="#7aa7ff" stroke-width="1"/>
<line x1="497.44" y1="340" x2="497.44" y2="86.74" stroke="#7aa7ff" stroke-width="1"/>
<line x1="499.15" y1="340" x2="499.15" y2="85.91" stroke="#7aa7ff" stroke-width="1"/>
<line x1="500.85" y1="340" x2="500.85" y2="88.07" stroke="#7aa7ff" stroke-width="1"/>
<line x1="502.56" y1="340" x2="502.56" y2="95.32" stroke="#7aa7ff" stroke-width="1"/>
<line x1="504.27" y1="340" x2="504.27" y2="108.47" stroke="#7aa7ff" stroke-width="1"/>
<line x1="505.98" y1="340" x2="505.98" y2="141.74" stroke="#7aa7ff" stroke-width="1"/>
<line x1="507.69" y1="340" x2="507.69" y2="167.06" stroke="#7aa7ff" stroke-width="1"/>
<line x1="509.39" y1="340" x2="509.39" y2="167.11" stroke="#7aa7ff" stroke-width="1"/>
<line x1="511.10" y1="340" x2="511.10" y2="146.04" stroke="#7aa7ff" stroke-width="1"/>
<line x1="512.81" y1="340" x2="512.81" y2="136.91" stroke="#7aa7ff" stroke-width="1"/>
<line x1="514.52" y1="340" x2="514.52" y2="168.25" stroke="#7aa7ff" stroke-width="1"/>
<line x1="516.22" y1="340" x2="516.22" y2="226.79" stroke="#7aa7ff" stroke-width="1"/>
<line x1="517.93" y1="340" x2="517.93" y2="252.49" stroke="#7aa7ff" stroke-width="1"/>
<line x1="519.64" y1="340" x2="519.64" y2="234.47" stroke="#7aa7ff" stroke-width="1"/>
<line x1="521.35" y1="340" x2="521.35" y2="207.11" stroke="#7aa7ff" stroke-width="1"/>
<line x1="523.06" y1="340" x2="523.06" y2="170.22" stroke="#7aa7ff" stroke-width="1"/>
<line x1="524.76" y1="340" x2="524.76" y2="143.59" stroke="#7aa7ff" stroke-width="1"/>
<line x1="526.47" y1="340" x2="526.47" y2="118.94" stroke="#7aa7ff" stroke-width="1"/>
<line x1="528.18" y1="340" x2="528.18" y2="87.44" stroke="#7aa7ff" stroke-width="1"/>
<line x1="529.89" y1="340" x2="529.89" y2="78.92" stroke="#7aa7ff" stroke-width="1"/>
<line x1="531.59" y1="340" x2="531.59" y2="103.59" stroke="#7aa7ff" stroke-width="1"/>
<line x1="533.30" y1="340" x2="533.30" y2="131.26" stroke="#7aa7ff" stroke-width="1"/>
<line x1="535.01" y1="340" x2="535.01" y2="133.07" stroke="#7aa7ff" stroke-width="1"/>
<line x1="536.72" y1="340" x2="536.72" y2="123.79" stroke="#7aa7ff" stroke-width="1"/>
<line x1="538.43" y1="340" x2="538.43" y2="110.53" stroke="#7aa7ff" stroke-width="1"/>
<line x1="540.13" y1="340" x2="540.13" y2="111.60" stroke="#7aa7ff" stroke-width="1"/>
<line x1="541.84" y1="340" x2="541.84" y2="126.97" stroke="#7aa7ff" stroke-width="1"/>
<line x1="543.55" y1="340" x2="543.55" y2="161.40" stroke="#7aa7ff" stroke-width="1"/>
<line x1="545.26" y1="340" x2="545.26" y2="214.89" stroke="#7aa7ff" stroke-width="1"/>
<line x1="546.96" y1="340" x2="546.96" y2="287.55" stroke="#7aa7ff" stroke-width="1"/>
<line x1="548.67" y1="340" x2="548.67" y2="316.91" stroke="#7aa7ff" stroke-width="1"/>
<line x1="550.38" y1="340" x2="550.38" y2="311.35" stroke="#7aa7ff" stroke-width="1"/>
<line x1="552.09" y1="340" x2="552.09" y2="327.37" stroke="#7aa7ff" stroke-width="1"/>
<line x1="553.80" y1="340" x2="553.80" y2="325.11" stroke="#7aa7ff" stroke-width="1"/>
<line x1="555.50" y1="340" x2="555.50" y2="287.42" stroke="#7aa7ff" stroke-width="1"/>
<line x1="557.21" y1="340" x2="557.21" y2="259.83" stroke="#7aa7ff" stroke-width="1"/>
<line x1="558.92" y1="340" x2="558.92" y2="244.41" stroke="#7aa7ff" stroke-width="1"/>
<line x1="560.63" y1="340" x2="560.63" y2="242.88" stroke="#7aa7ff" stroke-width="1"/>
<line x1="562.33" y1="340" x2="562.33" y2="256.24" stroke="#7aa7ff" stroke-width="1"/>
<line x1="564.04" y1="340" x2="564.04" y2="278.34" stroke="#7aa7ff" stroke-width="1"/>
<line x1="565.75" y1="340" x2="565.75" y2="270.84" stroke="#7aa7ff" stroke-width="1"/>
<line x1="567.46" y1="340" x2="567.46" y2="267.51" stroke="#7aa7ff" stroke-width="1"/>
<line x1="569.17" y1="340" x2="569.17" y2="286.17" stroke="#7aa7ff" stroke-width="1"/>
<line x1="570.87" y1="340" x2="570.87" y2="282.40" stroke="#7aa7ff" stroke-width="1"/>
<line x1="572.58" y1="340" x2="572.58" y2="252.36" stroke="#7aa7ff" stroke-width="1"/>
<line x1="574.29" y1="340" x2="574.29" y2="228.36" stroke="#7aa7ff" stroke-width="1"/>
<line x1="576.00" y1="340" x2="576.00" y2="248.68" stroke="#7aa7ff" stroke-width="1"/>
<line x1="577.70" y1="340" x2="577.70" y2="292.51" stroke="#7aa7ff" stroke-width="1"/>
<line x1="579.41" y1="340" x2="579.41" y2="305.22" stroke="#7aa7ff" stroke-width="1"/>
<line x1="581.12" y1="340" x2="581.12" y2="291.81" stroke="#7aa7ff" stroke-width="1"/>
<line x1="582.83" y1="340" x2="582.83" y2="251.73" stroke="#7aa7ff" stroke-width="1"/>
<line x1="584.54" y1="340" x2="584.54" y2="205.58" stroke="#7aa7ff" stroke-width="1"/>
<line x1="586.24" y1="340" x2="586.24" y2="178.86" stroke="#7aa7ff" stroke-width="1"/>
<line x1="587.95" y1="340" x2="587.95" y2="171.10" stroke="#7aa7ff" stroke-width="1"/>
<line x1="589.66" y1="340" x2="589.66" y2="174.85" stroke="#7aa7ff" stroke-width="1"/>
<line x1="591.37" y1="340" x2="591.37" y2="177.25" stroke="#7aa7ff" stroke-width="1"/>
<line x1="593.07" y1="340" x2="593.07" y2="155.13" stroke="#7aa7ff" stroke-width="1"/>
<line x1="594.78" y1="340" x2="594.78" y2="141.04" stroke="#7aa7ff" stroke-width="1"/>
<line x1="596.49" y1="340" x2="596.49" y2="150.20" stroke="#7aa7ff" stroke-width="1"/>
<line x1="598.20" y1="340" x2="598.20" y2="165.80" stroke="#7aa7ff" stroke-width="1"/>
<line x1="599.91" y1="340" x2="599.91" y2="185.38" stroke="#7aa7ff" stroke-width="1"/>
<line x1="601.61" y1="340" x2="601.61" y2="198.55" stroke="#7aa7ff" stroke-width="1"/>
<line x1="603.32" y1="340" x2="603.32" y2="217.27" stroke="#7aa7ff" stroke-width="1"/>
<line x1="605.03" y1="340" x2="605.03" y2="228.34" stroke="#7aa7ff" stroke-width="1"/>
<line x1="606.74" y1="340" x2="606.74" y2="240.73" stroke="#7aa7ff" stroke-width="1"/>
<line x1="608.44" y1="340" x2="608.44" y2="276.64" stroke="#7aa7ff" stroke-width="1"/>
<line x1="610.15" y1="340" x2="610.15" y2="298.67" stroke="#7aa7ff" stroke-width="1"/>
<line x1="611.86" y1="340" x2="611.86" y2="297.93" stroke="#7aa7ff" stroke-width="1"/>
<line x1="613.57" y1="340" x2="613.57" y2="307.32" stroke="#7aa7ff" stroke-width="1"/>
<line x1="615.28" y1="340" x2="615.28" y2="305.17" stroke="#7aa7ff" stroke-width="1"/>
<line x1="616.98" y1="340" x2="616.98" y2="296.40" stroke="#7aa7ff" stroke-width="1"/>
<line x1="618.69" y1="340" x2="618.69" y2="292.30" stroke="#7aa7ff" stroke-width="1"/>
<line x1="620.40" y1="340" x2="620.40" y2="293.17" stroke="#7aa7ff" stroke-width="1"/>
<line x1="622.11" y1="340" x2="622.11" y2="288.26" stroke="#7aa7ff" stroke-width="1"/>
<line x1="623.81" y1="340" x2="623.81" y2="295.29" stroke="#7aa7ff" stroke-width="1"/>
<line x1="625.52" y1="340" x2="625.52" y2="302.25" stroke="#7aa7ff" stroke-width="1"/>
<line x1="627.23" y1="340" x2="627.23" y2="301.72" stroke="#7aa7ff" stroke-width="1"/>
<line x1="628.94" y1="340" x2="628.94" y2="301.25" stroke="#7aa7ff" stroke-width="1"/>
<line x1="630.65" y1="340" x2="630.65" y2="332.46" stroke="#7aa7ff" stroke-width="1"/>
<line x1="632.35" y1="340" x2="632.35" y2="316.15" stroke="#7aa7ff" stroke-width="1"/>
<line x1="634.06" y1="340" x2="634.06" y2="303.40" stroke="#7aa7ff" stroke-width="1"/>
<line x1="635.77" y1="340" x2="635.77" y2="289.29" stroke="#7aa7ff" stroke-width="1"/>
<line x1="637.48" y1="340" x2="637.48" y2="275.58" stroke="#7aa7ff" stroke-width="1"/>
<line x1="639.18" y1="340" x2="639.18" y2="240.97" stroke="#7aa7ff" stroke-width="1"/>
<line x1="640.89" y1="340" x2="640.89" y2="207.09" stroke="#7aa7ff" stroke-width="1"/>
<line x1="642.60" y1="340" x2="642.60" y2="181.55" stroke="#7aa7ff" stroke-width="1"/>
<line x1="644.31" y1="340" x2="644.31" y2="170.34" stroke="#7aa7ff" stroke-width="1"/>
<line x1="646.02" y1="340" x2="646.02" y2="185.45" stroke="#7aa7ff" stroke-width="1"/>
<line x1="647.72" y1="340" x2="647.72" y2="220.17" stroke="#7aa7ff" stroke-width="1"/>
<line x1="649.43" y1="340" x2="649.43" y2="242.34" stroke="#7aa7ff" stroke-width="1"/>
<line x1="651.14" y1="340" x2="651.14" y2="254.49" stroke="#7aa7ff" stroke-width="1"/>
<line x1="652.85" y1="340" x2="652.85" y2="251.98" stroke="#7aa7ff" stroke-width="1"/>
<line x1="654.55" y1="340" x2="654.55" y2="233.43" stroke="#7aa7ff" stroke-width="1"/>
<line x1="656.26" y1="340" x2="656.26" y2="225.67" stroke="#7aa7ff" stroke-width="1"/>
<line x1="657.97" y1="340" x2="657.97" y2="247.20" stroke="#7aa7ff" stroke-width="1"/>
<line x1="659.68" y1="340" x2="659.68" y2="273.98" stroke="#7aa7ff" stroke-width="1"/>
<line x1="661.39" y1="340" x2="661.39" y2="280.21" stroke="#7aa7ff" stroke-width="1"/>
<line x1="663.09" y1="340" x2="663.09" y2="258.73" stroke="#7aa7ff" stroke-width="1"/>
<line x1="664.80" y1="340" x2="664.80" y2="228.65" stroke="#7aa7ff" stroke-width="1"/>
<line x1="666.51" y1="340" x2="666.51" y2="227.63" stroke="#7aa7ff" stroke-width="1"/>
<line x1="668.22" y1="340" x2="668.22" y2="249.40" stroke="#7aa7ff" stroke-width="1"/>
<line x1="669.92" y1="340" x2="669.92" y2="251.32" stroke="#7aa7ff" stroke-width="1"/>
<line x1="671.63" y1="340" x2="671.63" y2="231.21" stroke="#7aa7ff" stroke-width="1"/>
<line x1="673.34" y1="340" x2="673.34" y2="195.61" stroke="#7aa7ff" stroke-width="1"/>
<line x1="675.05" y1="340" x2="675.05" y2="168.74" stroke="#7aa7ff" stroke-width="1"/>
<line x1="676.76" y1="340" x2="676.76" y2="162.92" stroke="#7aa7ff" stroke-width="1"/>
<line x1="678.46" y1="340" x2="678.46" y2="179.98" stroke="#7aa7ff" stroke-width="1"/>
<line x1="680.17" y1="340" x2="680.17" y2="204.66" stroke="#7aa7ff" stroke-width="1"/>
<line x1="681.88" y1="340" x2="681.88" y2="225.53" stroke="#7aa7ff" stroke-width="1"/>
<line x1="683.59" y1="340" x2="683.59" y2="231.00" stroke="#7aa7ff" stroke-width="1"/>
<line x1="685.29" y1="340" x2="685.29" y2="231.05" stroke="#7aa7ff" stroke-width="1"/>
<line x1="687.00" y1="340" x2="687.00" y2="226.04" stroke="#7aa7ff" stroke-width="1"/>
<line x1="688.71" y1="340" x2="688.71" y2="216.59" stroke="#7aa7ff" stroke-width="1"/>
<line x1="690.42" y1="340" x2="690.42" y2="222.81" stroke="#7aa7ff" stroke-width="1"/>
<line x1="692.13" y1="340" x2="692.13" y2="248.02" stroke="#7aa7ff" stroke-width="1"/>
<line x1="693.83" y1="340" x2="693.83" y2="269.15" stroke="#7aa7ff" stroke-width="1"/>
<line x1="695.54" y1="340" x2="695.54" y2="280.69" stroke="#7aa7ff" stroke-width="1"/>
<line x1="697.25" y1="340" x2="697.25" y2="302.12" stroke="#7aa7ff" stroke-width="1"/>
<line x1="698.96" y1="340" x2="698.96" y2="320.03" stroke="#7aa7ff" stroke-width="1"/>
<line x1="700.66" y1="340" x2="700.66" y2="326.63" stroke="#7aa7ff" stroke-width="1"/>
<line x1="702.37" y1="340" x2="702.37" y2="288.10" stroke="#7aa7ff" stroke-width="1"/>
<line x1="704.08" y1="340" x2="704.08" y2="252.14" stroke="#7aa7ff" stroke-width="1"/>
<line x1="705.79" y1="340" x2="705.79" y2="227.80" stroke="#7aa7ff" stroke-width="1"/>
<line x1="707.50" y1="340" x2="707.50" y2="195.36" stroke="#7aa7ff" stroke-width="1"/>
<line x1="709.20" y1="340" x2="709.20" y2="169.79" stroke="#7aa7ff" stroke-width="1"/>
<line x1="710.91" y1="340" x2="710.91" y2="161.98" stroke="#7aa7ff" stroke-width="1"/>
<line x1="712.62" y1="340" x2="712.62" y2="157.54" stroke="#7aa7ff" stroke-width="1"/>
<line x1="714.33" y1="340" x2="714.33" y2="154.61" stroke="#7aa7ff" stroke-width="1"/>
<line x1="716.03" y1="340" x2="716.03" y2="152.52" stroke="#7aa7ff" stroke-width="1"/>
<line x1="717.74" y1="340" x2="717.74" y2="164.49" stroke="#7aa7ff" stroke-width="1"/>
<line x1="719.45" y1="340" x2="719.45" y2="168.82" stroke="#7aa7ff" stroke-width="1"/>
<line x1="721.16" y1="340" x2="721.16" y2="164.47" stroke="#7aa7ff" stroke-width="1"/>
<line x1="722.87" y1="340" x2="722.87" y2="151.22" stroke="#7aa7ff" stroke-width="1"/>
<line x1="724.57" y1="340" x2="724.57" y2="150.93" stroke="#7aa7ff" stroke-width="1"/>
<line x1="726.28" y1="340" x2="726.28" y2="153.81" stroke="#7aa7ff" stroke-width="1"/>
<line x1="727.99" y1="340" x2="727.99" y2="150.07" stroke="#7aa7ff" stroke-width="1"/>
<line x1="729.70" y1="340" x2="729.70" y2="146.22" stroke="#7aa7ff" stroke-width="1"/>
<line x1="731.40" y1="340" x2="731.40" y2="148.29" stroke="#7aa7ff" stroke-width="1"/>
<line x1="733.11" y1="340" x2="733.11" y2="156.80" stroke="#7aa7ff" stroke-width="1"/>
<line x1="734.82" y1="340" x2="734.82" y2="178.33" stroke="#7aa7ff" stroke-width="1"/>
<line x1="736.53" y1="340" x2="736.53" y2="206.22" stroke="#7aa7ff" stroke-width="1"/>
<line x1="738.24" y1="340" x2="738.24" y2="207.55" stroke="#7aa7ff" stroke-width="1"/>
<line x1="739.94" y1="340" x2="739.94" y2="174.60" stroke="#7aa7ff" stroke-width="1"/>
<line x1="741.65" y1="340" x2="741.65" y2="124.73" stroke="#7aa7ff" stroke-width="1"/>
<line x1="743.36" y1="340" x2="743.36" y2="112.58" stroke="#7aa7ff" stroke-width="1"/>
<line x1="745.07" y1="340" x2="745.07" y2="93.55" stroke="#7aa7ff" stroke-width="1"/>
<line x1="746.77" y1="340" x2="746.77" y2="76.11" stroke="#48d597" stroke-width="1"/>
<line x1="748.48" y1="340" x2="748.48" y2="50.00" stroke="#ff7777" stroke-width="1"/>
<line x1="750.19" y1="340" x2="750.19" y2="53.58" stroke="#48d597" stroke-width="1"/>
<line x1="751.90" y1="340" x2="751.90" y2="62.05" stroke="#48d597" stroke-width="1"/>
<line x1="753.61" y1="340" x2="753.61" y2="60.12" stroke="#48d597" stroke-width="1"/>
<line x1="755.31" y1="340" x2="755.31" y2="56.55" stroke="#48d597" stroke-width="1"/>
<line x1="757.02" y1="340" x2="757.02" y2="66.61" stroke="#48d597" stroke-width="1"/>
<line x1="758.73" y1="340" x2="758.73" y2="78.59" stroke="#ffcc66" stroke-width="1"/>
<line x1="760.44" y1="340" x2="760.44" y2="77.74" stroke="#48d597" stroke-width="1"/>
<line x1="762.14" y1="340" x2="762.14" y2="76.53" stroke="#48d597" stroke-width="1"/>
<line x1="763.85" y1="340" x2="763.85" y2="90.61" stroke="#48d597" stroke-width="1"/>
<line x1="765.56" y1="340" x2="765.56" y2="118.80" stroke="#7aa7ff" stroke-width="1"/>
<line x1="767.27" y1="340" x2="767.27" y2="149.60" stroke="#7aa7ff" stroke-width="1"/>
<line x1="768.98" y1="340" x2="768.98" y2="176.58" stroke="#7aa7ff" stroke-width="1"/>
<line x1="770.68" y1="340" x2="770.68" y2="189.99" stroke="#7aa7ff" stroke-width="1"/>
<line x1="772.39" y1="340" x2="772.39" y2="200.91" stroke="#7aa7ff" stroke-width="1"/>
<line x1="774.10" y1="340" x2="774.10" y2="207.14" stroke="#7aa7ff" stroke-width="1"/>
<line x1="775.81" y1="340" x2="775.81" y2="217.58" stroke="#7aa7ff" stroke-width="1"/>
<line x1="777.51" y1="340" x2="777.51" y2="211.97" stroke="#7aa7ff" stroke-width="1"/>
<line x1="779.22" y1="340" x2="779.22" y2="190.51" stroke="#7aa7ff" stroke-width="1"/>
<line x1="780.93" y1="340" x2="780.93" y2="180.58" stroke="#7aa7ff" stroke-width="1"/>
<line x1="782.64" y1="340" x2="782.64" y2="185.57" stroke="#7aa7ff" stroke-width="1"/>
<line x1="784.35" y1="340" x2="784.35" y2="185.10" stroke="#7aa7ff" stroke-width="1"/>
<line x1="786.05" y1="340" x2="786.05" y2="183.55" stroke="#7aa7ff" stroke-width="1"/>
<line x1="787.76" y1="340" x2="787.76" y2="192.49" stroke="#7aa7ff" stroke-width="1"/>
<line x1="789.47" y1="340" x2="789.47" y2="189.08" stroke="#7aa7ff" stroke-width="1"/>
<line x1="791.18" y1="340" x2="791.18" y2="187.59" stroke="#7aa7ff" stroke-width="1"/>
<line x1="792.88" y1="340" x2="792.88" y2="199.61" stroke="#7aa7ff" stroke-width="1"/>
<line x1="794.59" y1="340" x2="794.59" y2="227.26" stroke="#7aa7ff" stroke-width="1"/>
<line x1="796.30" y1="340" x2="796.30" y2="252.76" stroke="#7aa7ff" stroke-width="1"/>
<line x1="798.01" y1="340" x2="798.01" y2="268.04" stroke="#7aa7ff" stroke-width="1"/>
<line x1="799.72" y1="340" x2="799.72" y2="284.08" stroke="#7aa7ff" stroke-width="1"/>
<line x1="801.42" y1="340" x2="801.42" y2="303.36" stroke="#7aa7ff" stroke-width="1"/>
<line x1="803.13" y1="340" x2="803.13" y2="312.43" stroke="#7aa7ff" stroke-width="1"/>
<line x1="804.84" y1="340" x2="804.84" y2="330.58" stroke="#7aa7ff" stroke-width="1"/>
<line x1="806.55" y1="340" x2="806.55" y2="330.42" stroke="#7aa7ff" stroke-width="1"/>
<line x1="808.25" y1="340" x2="808.25" y2="326.82" stroke="#7aa7ff" stroke-width="1"/>
<line x1="809.96" y1="340" x2="809.96" y2="331.75" stroke="#7aa7ff" stroke-width="1"/>
<line x1="811.67" y1="340" x2="811.67" y2="332.00" stroke="#7aa7ff" stroke-width="1"/>
<line x1="813.38" y1="340" x2="813.38" y2="317.07" stroke="#7aa7ff" stroke-width="1"/>
<line x1="815.09" y1="340" x2="815.09" y2="299.02" stroke="#7aa7ff" stroke-width="1"/>
<line x1="816.79" y1="340" x2="816.79" y2="283.00" stroke="#7aa7ff" stroke-width="1"/>
<line x1="818.50" y1="340" x2="818.50" y2="267.62" stroke="#7aa7ff" stroke-width="1"/>
<line x1="820.21" y1="340" x2="820.21" y2="260.50" stroke="#7aa7ff" stroke-width="1"/>
<line x1="821.92" y1="340" x2="821.92" y2="260.74" stroke="#7aa7ff" stroke-width="1"/>
<line x1="823.62" y1="340" x2="823.62" y2="266.12" stroke="#7aa7ff" stroke-width="1"/>
<line x1="825.33" y1="340" x2="825.33" y2="258.00" stroke="#7aa7ff" stroke-width="1"/>
<line x1="827.04" y1="340" x2="827.04" y2="246.58" stroke="#7aa7ff" stroke-width="1"/>
<line x1="828.75" y1="340" x2="828.75" y2="247.53" stroke="#7aa7ff" stroke-width="1"/>
<line x1="830.46" y1="340" x2="830.46" y2="249.97" stroke="#7aa7ff" stroke-width="1"/>
<line x1="832.16" y1="340" x2="832.16" y2="258.43" stroke="#7aa7ff" stroke-width="1"/>
<line x1="833.87" y1="340" x2="833.87" y2="245.99" stroke="#7aa7ff" stroke-width="1"/>
<line x1="835.58" y1="340" x2="835.58" y2="233.25" stroke="#7aa7ff" stroke-width="1"/>
<line x1="837.29" y1="340" x2="837.29" y2="235.58" stroke="#7aa7ff" stroke-width="1"/>
<line x1="838.99" y1="340" x2="838.99" y2="240.33" stroke="#7aa7ff" stroke-width="1"/>
<line x1="840.70" y1="340" x2="840.70" y2="236.28" stroke="#7aa7ff" stroke-width="1"/>
<line x1="842.41" y1="340" x2="842.41" y2="235.17" stroke="#7aa7ff" stroke-width="1"/>
<line x1="844.12" y1="340" x2="844.12" y2="241.44" stroke="#7aa7ff" stroke-width="1"/>
<line x1="845.83" y1="340" x2="845.83" y2="256.63" stroke="#7aa7ff" stroke-width="1"/>
<line x1="847.53" y1="340" x2="847.53" y2="261.63" stroke="#7aa7ff" stroke-width="1"/>
<line x1="849.24" y1="340" x2="849.24" y2="261.59" stroke="#7aa7ff" stroke-width="1"/>
<line x1="850.95" y1="340" x2="850.95" y2="270.11" stroke="#7aa7ff" stroke-width="1"/>
<line x1="852.66" y1="340" x2="852.66" y2="283.53" stroke="#7aa7ff" stroke-width="1"/>
<line x1="854.36" y1="340" x2="854.36" y2="285.89" stroke="#7aa7ff" stroke-width="1"/>
<line x1="856.07" y1="340" x2="856.07" y2="263.29" stroke="#7aa7ff" stroke-width="1"/>
<line x1="857.78" y1="340" x2="857.78" y2="239.89" stroke="#7aa7ff" stroke-width="1"/>
<line x1="859.49" y1="340" x2="859.49" y2="224.67" stroke="#7aa7ff" stroke-width="1"/>
<line x1="861.20" y1="340" x2="861.20" y2="227.48" stroke="#7aa7ff" stroke-width="1"/>
<line x1="862.90" y1="340" x2="862.90" y2="215.53" stroke="#7aa7ff" stroke-width="1"/>
<line x1="864.61" y1="340" x2="864.61" y2="191.80" stroke="#7aa7ff" stroke-width="1"/>
<line x1="866.32" y1="340" x2="866.32" y2="185.40" stroke="#7aa7ff" stroke-width="1"/>
<line x1="868.03" y1="340" x2="868.03" y2="182.94" stroke="#7aa7ff" stroke-width="1"/>
<line x1="869.73" y1="340" x2="869.73" y2="173.91" stroke="#7aa7ff" stroke-width="1"/>
<line x1="871.44" y1="340" x2="871.44" y2="149.66" stroke="#7aa7ff" stroke-width="1"/>
<line x1="873.15" y1="340" x2="873.15" y2="118.86" stroke="#7aa7ff" stroke-width="1"/>
<line x1="874.86" y1="340" x2="874.86" y2="105.05" stroke="#7aa7ff" stroke-width="1"/>
<line x1="876.57" y1="340" x2="876.57" y2="116.42" stroke="#7aa7ff" stroke-width="1"/>
<line x1="878.27" y1="340" x2="878.27" y2="127.42" stroke="#7aa7ff" stroke-width="1"/>
<line x1="879.98" y1="340" x2="879.98" y2="148.30" stroke="#7aa7ff" stroke-width="1"/>
<line x1="881.69" y1="340" x2="881.69" y2="185.38" stroke="#7aa7ff" stroke-width="1"/>
<line x1="883.40" y1="340" x2="883.40" y2="225.33" stroke="#7aa7ff" stroke-width="1"/>
<line x1="885.10" y1="340" x2="885.10" y2="243.40" stroke="#7aa7ff" stroke-width="1"/>
<line x1="886.81" y1="340" x2="886.81" y2="252.54" stroke="#7aa7ff" stroke-width="1"/>
<line x1="888.52" y1="340" x2="888.52" y2="246.71" stroke="#7aa7ff" stroke-width="1"/>
<line x1="890.23" y1="340" x2="890.23" y2="235.46" stroke="#7aa7ff" stroke-width="1"/>
<line x1="891.94" y1="340" x2="891.94" y2="227.38" stroke="#7aa7ff" stroke-width="1"/>
<line x1="893.64" y1="340" x2="893.64" y2="222.65" stroke="#7aa7ff" stroke-width="1"/>
<line x1="895.35" y1="340" x2="895.35" y2="234.86" stroke="#7aa7ff" stroke-width="1"/>
<line x1="897.06" y1="340" x2="897.06" y2="246.93" stroke="#7aa7ff" stroke-width="1"/>
<line x1="898.77" y1="340" x2="898.77" y2="274.39" stroke="#7aa7ff" stroke-width="1"/>
<line x1="900.47" y1="340" x2="900.47" y2="318.35" stroke="#7aa7ff" stroke-width="1"/>
<line x1="902.18" y1="340" x2="902.18" y2="331.22" stroke="#7aa7ff" stroke-width="1"/>
<line x1="903.89" y1="340" x2="903.89" y2="303.52" stroke="#7aa7ff" stroke-width="1"/>
<line x1="905.60" y1="340" x2="905.60" y2="272.95" stroke="#7aa7ff" stroke-width="1"/>
<line x1="907.31" y1="340" x2="907.31" y2="274.92" stroke="#7aa7ff" stroke-width="1"/>
<line x1="909.01" y1="340" x2="909.01" y2="310.13" stroke="#7aa7ff" stroke-width="1"/>
<line x1="910.72" y1="340" x2="910.72" y2="328.13" stroke="#7aa7ff" stroke-width="1"/>
<line x1="912.43" y1="340" x2="912.43" y2="318.28" stroke="#7aa7ff" stroke-width="1"/>
<line x1="914.14" y1="340" x2="914.14" y2="324.35" stroke="#7aa7ff" stroke-width="1"/>
<line x1="915.84" y1="340" x2="915.84" y2="329.42" stroke="#7aa7ff" stroke-width="1"/>
<line x1="917.55" y1="340" x2="917.55" y2="322.75" stroke="#7aa7ff" stroke-width="1"/>
<line x1="919.26" y1="340" x2="919.26" y2="306.61" stroke="#7aa7ff" stroke-width="1"/>
<line x1="920.97" y1="340" x2="920.97" y2="278.82" stroke="#7aa7ff" stroke-width="1"/>
<line x1="922.68" y1="340" x2="922.68" y2="266.19" stroke="#7aa7ff" stroke-width="1"/>
<line x1="924.38" y1="340" x2="924.38" y2="273.50" stroke="#7aa7ff" stroke-width="1"/>
<line x1="926.09" y1="340" x2="926.09" y2="282.36" stroke="#7aa7ff" stroke-width="1"/>
<line x1="927.80" y1="340" x2="927.80" y2="280.90" stroke="#7aa7ff" stroke-width="1"/>
<line x1="929.51" y1="340" x2="929.51" y2="276.74" stroke="#7aa7ff" stroke-width="1"/>
<line x1="931.21" y1="340" x2="931.21" y2="268.17" stroke="#7aa7ff" stroke-width="1"/>
<line x1="932.92" y1="340" x2="932.92" y2="255.65" stroke="#7aa7ff" stroke-width="1"/>
<line x1="934.63" y1="340" x2="934.63" y2="237.81" stroke="#7aa7ff" stroke-width="1"/>
<line x1="936.34" y1="340" x2="936.34" y2="218.04" stroke="#7aa7ff" stroke-width="1"/>
<line x1="938.05" y1="340" x2="938.05" y2="198.05" stroke="#7aa7ff" stroke-width="1"/>
<line x1="939.75" y1="340" x2="939.75" y2="191.42" stroke="#7aa7ff" stroke-width="1"/>
<line x1="941.46" y1="340" x2="941.46" y2="198.01" stroke="#7aa7ff" stroke-width="1"/>
<line x1="943.17" y1="340" x2="943.17" y2="217.04" stroke="#7aa7ff" stroke-width="1"/>
<line x1="944.88" y1="340" x2="944.88" y2="213.70" stroke="#7aa7ff" stroke-width="1"/>
<line x1="946.58" y1="340" x2="946.58" y2="223.96" stroke="#7aa7ff" stroke-width="1"/>
<line x1="948.29" y1="340" x2="948.29" y2="253.04" stroke="#7aa7ff" stroke-width="1"/>
<line x1="950.00" y1="340" x2="950.00" y2="261.10" stroke="#7aa7ff" stroke-width="1"/>
</svg>
