<?xml version="1.0" encoding="UTF-8"?>
<svg xmlns="http://www.w3.org/2000/svg" width="980" height="620" viewBox="0 0 980 620">
<rect width="100%" height="100%" fill="#ffffff"/>
<text x="490" y="25" text-anchor="middle" font-family="sans-serif" font-size="18" font-weight="700">DVB-T QPSK packet error vs fixed-bandwidth C/N, GI 1/32</text>
<rect x="82" y="50" width="864" height="492" fill="#fbfbfb" stroke="#222" stroke-width="1"/>
<line x1="82.00" y1="542.00" x2="946.00" y2="542.00" stroke="#e1e1e1" stroke-width="1"/>
<text x="72.00" y="546.00" text-anchor="end" font-family="sans-serif" font-size="12">0%</text>
<line x1="82.00" y1="492.80" x2="946.00" y2="492.80" stroke="#e1e1e1" stroke-width="1"/>
<text x="72.00" y="496.80" text-anchor="end" font-family="sans-serif" font-size="12">10%</text>
<line x1="82.00" y1="443.60" x2="946.00" y2="443.60" stroke="#e1e1e1" stroke-width="1"/>
<text x="72.00" y="447.60" text-anchor="end" font-family="sans-serif" font-size="12">20%</text>
<line x1="82.00" y1="394.40" x2="946.00" y2="394.40" stroke="#e1e1e1" stroke-width="1"/>
<text x="72.00" y="398.40" text-anchor="end" font-family="sans-serif" font-size="12">30%</text>
<line x1="82.00" y1="345.20" x2="946.00" y2="345.20" stroke="#e1e1e1" stroke-width="1"/>
<text x="72.00" y="349.20" text-anchor="end" font-family="sans-serif" font-size="12">40%</text>
<line x1="82.00" y1="296.00" x2="946.00" y2="296.00" stroke="#e1e1e1" stroke-width="1"/>
<text x="72.00" y="300.00" text-anchor="end" font-family="sans-serif" font-size="12">50%</text>
<line x1="82.00" y1="246.80" x2="946.00" y2="246.80" stroke="#e1e1e1" stroke-width="1"/>
<text x="72.00" y="250.80" text-anchor="end" font-family="sans-serif" font-size="12">60%</text>
<line x1="82.00" y1="197.60" x2="946.00" y2="197.60" stroke="#e1e1e1" stroke-width="1"/>
<text x="72.00" y="201.60" text-anchor="end" font-family="sans-serif" font-size="12">70%</text>
<line x1="82.00" y1="148.40" x2="946.00" y2="148.40" stroke="#e1e1e1" stroke-width="1"/>
<text x="72.00" y="152.40" text-anchor="end" font-family="sans-serif" font-size="12">80%</text>
<line x1="82.00" y1="99.20" x2="946.00" y2="99.20" stroke="#e1e1e1" stroke-width="1"/>
<text x="72.00" y="103.20" text-anchor="end" font-family="sans-serif" font-size="12">90%</text>
<line x1="82.00" y1="50.00" x2="946.00" y2="50.00" stroke="#e1e1e1" stroke-width="1"/>
<text x="72.00" y="54.00" text-anchor="end" font-family="sans-serif" font-size="12">100%</text>
<line x1="82.00" y1="50.00" x2="82.00" y2="542.00" stroke="#ececec" stroke-width="1"/>
<text x="82.00" y="566.00" text-anchor="middle" font-family="sans-serif" font-size="12">0</text>
<line x1="298.00" y1="50.00" x2="298.00" y2="542.00" stroke="#ececec" stroke-width="1"/>
<text x="298.00" y="566.00" text-anchor="middle" font-family="sans-serif" font-size="12">2</text>
<line x1="514.00" y1="50.00" x2="514.00" y2="542.00" stroke="#ececec" stroke-width="1"/>
<text x="514.00" y="566.00" text-anchor="middle" font-family="sans-serif" font-size="12">4</text>
<line x1="730.00" y1="50.00" x2="730.00" y2="542.00" stroke="#ececec" stroke-width="1"/>
<text x="730.00" y="566.00" text-anchor="middle" font-family="sans-serif" font-size="12">6</text>
<line x1="946.00" y1="50.00" x2="946.00" y2="542.00" stroke="#ececec" stroke-width="1"/>
<text x="946.00" y="566.00" text-anchor="middle" font-family="sans-serif" font-size="12">8</text>
<text x="514" y="596" text-anchor="middle" font-family="sans-serif" font-size="14">channel C/N in fixed noise bandwidth (dB)</text>
<text x="23" y="296" text-anchor="middle" font-family="sans-serif" font-size="14" transform="rotate(-90 23 296)">packet error percentage</text>
<polyline points="82.00,50.00 103.60,50.00 125.20,50.00 146.80,50.00 168.40,50.00 190.00,52.05 211.60,58.20 233.20,82.80 254.80,113.55 276.40,134.05 298.00,240.65 319.60,259.10 341.20,367.75 362.80,419.00 384.40,478.45 406.00,488.70 427.60,507.15 449.20,521.50 470.80,527.65 492.40,533.80 514.00,542.00 535.60,537.90 557.20,542.00 578.80,542.00 600.40,542.00 622.00,542.00 643.60,542.00 665.20,542.00 686.80,542.00 708.40,542.00 730.00,542.00 751.60,542.00 773.20,542.00 794.80,542.00 816.40,542.00 838.00,542.00 859.60,542.00 881.20,542.00 902.80,542.00 924.40,542.00 946.00,542.00 " fill="none" stroke="#1769aa" stroke-width="3"/>
<circle cx="82.00" cy="50.00" r="3.2" fill="#1769aa" fill-opacity="0.90"/>
<circle cx="103.60" cy="50.00" r="3.2" fill="#1769aa" fill-opacity="0.90"/>
<circle cx="125.20" cy="50.00" r="3.2" fill="#1769aa" fill-opacity="0.90"/>
<circle cx="146.80" cy="50.00" r="3.2" fill="#1769aa" fill-opacity="0.90"/>
<circle cx="168.40" cy="50.00" r="3.2" fill="#1769aa" fill-opacity="0.90"/>
<circle cx="190.00" cy="52.05" r="3.2" fill="#1769aa" fill-opacity="0.90"/>
<circle cx="211.60" cy="58.20" r="3.2" fill="#1769aa" fill-opacity="0.90"/>
<circle cx="233.20" cy="82.80" r="3.2" fill="#1769aa" fill-opacity="0.90"/>
<circle cx="254.80" cy="113.55" r="3.2" fill="#1769aa" fill-opacity="0.90"/>
<circle cx="276.40" cy="134.05" r="3.2" fill="#1769aa" fill-opacity="0.90"/>
<circle cx="298.00" cy="240.65" r="3.2" fill="#1769aa" fill-opacity="0.90"/>
<circle cx="319.60" cy="259.10" r="3.2" fill="#1769aa" fill-opacity="0.90"/>
<circle cx="341.20" cy="367.75" r="3.2" fill="#1769aa" fill-opacity="0.90"/>
<circle cx="362.80" cy="419.00" r="3.2" fill="#1769aa" fill-opacity="0.90"/>
<circle cx="384.40" cy="478.45" r="3.2" fill="#1769aa" fill-opacity="0.90"/>
<circle cx="406.00" cy="488.70" r="3.2" fill="#1769aa" fill-opacity="0.90"/>
<circle cx="427.60" cy="507.15" r="3.2" fill="#1769aa" fill-opacity="0.90"/>
<circle cx="449.20" cy="521.50" r="3.2" fill="#1769aa" fill-opacity="0.90"/>
<circle cx="470.80" cy="527.65" r="3.2" fill="#1769aa" fill-opacity="0.90"/>
<circle cx="492.40" cy="533.80" r="3.2" fill="#1769aa" fill-opacity="0.90"/>
<circle cx="514.00" cy="542.00" r="3.2" fill="#1769aa" fill-opacity="0.90"/>
<circle cx="535.60" cy="537.90" r="3.2" fill="#1769aa" fill-opacity="0.90"/>
<circle cx="557.20" cy="542.00" r="3.2" fill="#1769aa" fill-opacity="0.90"/>
<circle cx="578.80" cy="542.00" r="3.2" fill="#1769aa" fill-opacity="0.90"/>
<circle cx="600.40" cy="542.00" r="3.2" fill="#1769aa" fill-opacity="0.90"/>
<circle cx="622.00" cy="542.00" r="3.2" fill="#1769aa" fill-opacity="0.90"/>
<circle cx="643.60" cy="542.00" r="3.2" fill="#1769aa" fill-opacity="0.90"/>
<circle cx="665.20" cy="542.00" r="3.2" fill="#1769aa" fill-opacity="0.90"/>
<circle cx="686.80" cy="542.00" r="3.2" fill="#1769aa" fill-opacity="0.90"/>
<circle cx="708.40" cy="542.00" r="3.2" fill="#1769aa" fill-opacity="0.90"/>
<circle cx="730.00" cy="542.00" r="3.2" fill="#1769aa" fill-opacity="0.90"/>
<circle cx="751.60" cy="542.00" r="3.2" fill="#1769aa" fill-opacity="0.90"/>
<circle cx="773.20" cy="542.00" r="3.2" fill="#1769aa" fill-opacity="0.90"/>
<circle cx="794.80" cy="542.00" r="3.2" fill="#1769aa" fill-opacity="0.90"/>
<circle cx="816.40" cy="542.00" r="3.2" fill="#1769aa" fill-opacity="0.90"/>
<circle cx="838.00" cy="542.00" r="3.2" fill="#1769aa" fill-opacity="0.90"/>
<circle cx="859.60" cy="542.00" r="3.2" fill="#1769aa" fill-opacity="0.90"/>
<circle cx="881.20" cy="542.00" r="3.2" fill="#1769aa" fill-opacity="0.90"/>
<circle cx="902.80" cy="542.00" r="3.2" fill="#1769aa" fill-opacity="0.90"/>
<circle cx="924.40" cy="542.00" r="3.2" fill="#1769aa" fill-opacity="0.90"/>
<circle cx="946.00" cy="542.00" r="3.2" fill="#1769aa" fill-opacity="0.90"/>
<polyline points="82.00,50.00 103.60,50.00 125.20,50.00 146.80,50.00 168.40,50.00 190.00,50.00 211.60,50.00 233.20,50.00 254.80,50.00 276.40,50.00 298.00,50.00 319.60,50.00 341.20,50.00 362.80,50.00 384.40,54.10 406.00,60.25 427.60,70.50 449.20,105.35 470.80,191.45 492.40,265.25 514.00,355.45 535.60,412.85 557.20,468.20 578.80,486.65 600.40,501.00 622.00,525.60 643.60,527.65 665.20,539.95 686.80,542.00 708.40,539.95 730.00,539.95 751.60,542.00 773.20,542.00 794.80,542.00 816.40,542.00 838.00,542.00 859.60,542.00 881.20,542.00 902.80,542.00 924.40,542.00 946.00,542.00 " fill="none" stroke="#c2410c" stroke-width="3"/>
<circle cx="82.00" cy="50.00" r="3.2" fill="#c2410c" fill-opacity="0.90"/>
<circle cx="103.60" cy="50.00" r="3.2" fill="#c2410c" fill-opacity="0.90"/>
<circle cx="125.20" cy="50.00" r="3.2" fill="#c2410c" fill-opacity="0.90"/>
<circle cx="146.80" cy="50.00" r="3.2" fill="#c2410c" fill-opacity="0.90"/>
<circle cx="168.40" cy="50.00" r="3.2" fill="#c2410c" fill-opacity="0.90"/>
<circle cx="190.00" cy="50.00" r="3.2" fill="#c2410c" fill-opacity="0.90"/>
<circle cx="211.60" cy="50.00" r="3.2" fill="#c2410c" fill-opacity="0.90"/>
<circle cx="233.20" cy="50.00" r="3.2" fill="#c2410c" fill-opacity="0.90"/>
<circle cx="254.80" cy="50.00" r="3.2" fill="#c2410c" fill-opacity="0.90"/>
<circle cx="276.40" cy="50.00" r="3.2" fill="#c2410c" fill-opacity="0.90"/>
<circle cx="298.00" cy="50.00" r="3.2" fill="#c2410c" fill-opacity="0.90"/>
<circle cx="319.60" cy="50.00" r="3.2" fill="#c2410c" fill-opacity="0.90"/>
<circle cx="341.20" cy="50.00" r="3.2" fill="#c2410c" fill-opacity="0.90"/>
<circle cx="362.80" cy="50.00" r="3.2" fill="#c2410c" fill-opacity="0.90"/>
<circle cx="384.40" cy="54.10" r="3.2" fill="#c2410c" fill-opacity="0.90"/>
<circle cx="406.00" cy="60.25" r="3.2" fill="#c2410c" fill-opacity="0.90"/>
<circle cx="427.60" cy="70.50" r="3.2" fill="#c2410c" fill-opacity="0.90"/>
<circle cx="449.20" cy="105.35" r="3.2" fill="#c2410c" fill-opacity="0.90"/>
<circle cx="470.80" cy="191.45" r="3.2" fill="#c2410c" fill-opacity="0.90"/>
<circle cx="492.40" cy="265.25" r="3.2" fill="#c2410c" fill-opacity="0.90"/>
<circle cx="514.00" cy="355.45" r="3.2" fill="#c2410c" fill-opacity="0.90"/>
<circle cx="535.60" cy="412.85" r="3.2" fill="#c2410c" fill-opacity="0.90"/>
<circle cx="557.20" cy="468.20" r="3.2" fill="#c2410c" fill-opacity="0.90"/>
<circle cx="578.80" cy="486.65" r="3.2" fill="#c2410c" fill-opacity="0.90"/>
<circle cx="600.40" cy="501.00" r="3.2" fill="#c2410c" fill-opacity="0.90"/>
<circle cx="622.00" cy="525.60" r="3.2" fill="#c2410c" fill-opacity="0.90"/>
<circle cx="643.60" cy="527.65" r="3.2" fill="#c2410c" fill-opacity="0.90"/>
<circle cx="665.20" cy="539.95" r="3.2" fill="#c2410c" fill-opacity="0.90"/>
<circle cx="686.80" cy="542.00" r="3.2" fill="#c2410c" fill-opacity="0.90"/>
<circle cx="708.40" cy="539.95" r="3.2" fill="#c2410c" fill-opacity="0.90"/>
<circle cx="730.00" cy="539.95" r="3.2" fill="#c2410c" fill-opacity="0.90"/>
<circle cx="751.60" cy="542.00" r="3.2" fill="#c2410c" fill-opacity="0.90"/>
<circle cx="773.20" cy="542.00" r="3.2" fill="#c2410c" fill-opacity="0.90"/>
<circle cx="794.80" cy="542.00" r="3.2" fill="#c2410c" fill-opacity="0.90"/>
<circle cx="816.40" cy="542.00" r="3.2" fill="#c2410c" fill-opacity="0.90"/>
<circle cx="838.00" cy="542.00" r="3.2" fill="#c2410c" fill-opacity="0.90"/>
<circle cx="859.60" cy="542.00" r="3.2" fill="#c2410c" fill-opacity="0.90"/>
<circle cx="881.20" cy="542.00" r="3.2" fill="#c2410c" fill-opacity="0.90"/>
<circle cx="902.80" cy="542.00" r="3.2" fill="#c2410c" fill-opacity="0.90"/>
<circle cx="924.40" cy="542.00" r="3.2" fill="#c2410c" fill-opacity="0.90"/>
<circle cx="946.00" cy="542.00" r="3.2" fill="#c2410c" fill-opacity="0.90"/>
<polyline points="82.00,50.00 103.60,50.00 125.20,50.00 146.80,50.00 168.40,50.00 190.00,50.00 211.60,50.00 233.20,50.00 254.80,50.00 276.40,50.00 298.00,50.00 319.60,50.00 341.20,50.00 362.80,50.00 384.40,50.00 406.00,50.00 427.60,50.00 449.20,50.00 470.80,52.05 492.40,52.05 514.00,64.35 535.60,101.25 557.20,150.45 578.80,203.75 600.40,304.20 622.00,388.25 643.60,406.70 665.20,482.55 686.80,482.55 708.40,509.20 730.00,517.40 751.60,529.70 773.20,529.70 794.80,535.85 816.40,542.00 838.00,542.00 859.60,542.00 881.20,542.00 902.80,542.00 924.40,542.00 946.00,542.00 " fill="none" stroke="#2f855a" stroke-width="3"/>
<circle cx="82.00" cy="50.00" r="3.2" fill="#2f855a" fill-opacity="0.90"/>
<circle cx="103.60" cy="50.00" r="3.2" fill="#2f855a" fill-opacity="0.90"/>
<circle cx="125.20" cy="50.00" r="3.2" fill="#2f855a" fill-opacity="0.90"/>
<circle cx="146.80" cy="50.00" r="3.2" fill="#2f855a" fill-opacity="0.90"/>
<circle cx="168.40" cy="50.00" r="3.2" fill="#2f855a" fill-opacity="0.90"/>
<circle cx="190.00" cy="50.00" r="3.2" fill="#2f855a" fill-opacity="0.90"/>
<circle cx="211.60" cy="50.00" r="3.2" fill="#2f855a" fill-opacity="0.90"/>
<circle cx="233.20" cy="50.00" r="3.2" fill="#2f855a" fill-opacity="0.90"/>
<circle cx="254.80" cy="50.00" r="3.2" fill="#2f855a" fill-opacity="0.90"/>
<circle cx="276.40" cy="50.00" r="3.2" fill="#2f855a" fill-opacity="0.90"/>
<circle cx="298.00" cy="50.00" r="3.2" fill="#2f855a" fill-opacity="0.90"/>
<circle cx="319.60" cy="50.00" r="3.2" fill="#2f855a" fill-opacity="0.90"/>
<circle cx="341.20" cy="50.00" r="3.2" fill="#2f855a" fill-opacity="0.90"/>
<circle cx="362.80" cy="50.00" r="3.2" fill="#2f855a" fill-opacity="0.90"/>
<circle cx="384.40" cy="50.00" r="3.2" fill="#2f855a" fill-opacity="0.90"/>
<circle cx="406.00" cy="50.00" r="3.2" fill="#2f855a" fill-opacity="0.90"/>
<circle cx="427.60" cy="50.00" r="3.2" fill="#2f855a" fill-opacity="0.90"/>
<circle cx="449.20" cy="50.00" r="3.2" fill="#2f855a" fill-opacity="0.90"/>
<circle cx="470.80" cy="52.05" r="3.2" fill="#2f855a" fill-opacity="0.90"/>
<circle cx="492.40" cy="52.05" r="3.2" fill="#2f855a" fill-opacity="0.90"/>
<circle cx="514.00" cy="64.35" r="3.2" fill="#2f855a" fill-opacity="0.90"/>
<circle cx="535.60" cy="101.25" r="3.2" fill="#2f855a" fill-opacity="0.90"/>
<circle cx="557.20" cy="150.45" r="3.2" fill="#2f855a" fill-opacity="0.90"/>
<circle cx="578.80" cy="203.75" r="3.2" fill="#2f855a" fill-opacity="0.90"/>
<circle cx="600.40" cy="304.20" r="3.2" fill="#2f855a" fill-opacity="0.90"/>
<circle cx="622.00" cy="388.25" r="3.2" fill="#2f855a" fill-opacity="0.90"/>
<circle cx="643.60" cy="406.70" r="3.2" fill="#2f855a" fill-opacity="0.90"/>
<circle cx="665.20" cy="482.55" r="3.2" fill="#2f855a" fill-opacity="0.90"/>
<circle cx="686.80" cy="482.55" r="3.2" fill="#2f855a" fill-opacity="0.90"/>
<circle cx="708.40" cy="509.20" r="3.2" fill="#2f855a" fill-opacity="0.90"/>
<circle cx="730.00" cy="517.40" r="3.2" fill="#2f855a" fill-opacity="0.90"/>
<circle cx="751.60" cy="529.70" r="3.2" fill="#2f855a" fill-opacity="0.90"/>
<circle cx="773.20" cy="529.70" r="3.2" fill="#2f855a" fill-opacity="0.90"/>
<circle cx="794.80" cy="535.85" r="3.2" fill="#2f855a" fill-opacity="0.90"/>
<circle cx="816.40" cy="542.00" r="3.2" fill="#2f855a" fill-opacity="0.90"/>
<circle cx="838.00" cy="542.00" r="3.2" fill="#2f855a" fill-opacity="0.90"/>
<circle cx="859.60" cy="542.00" r="3.2" fill="#2f855a" fill-opacity="0.90"/>
<circle cx="881.20" cy="542.00" r="3.2" fill="#2f855a" fill-opacity="0.90"/>
<circle cx="902.80" cy="542.00" r="3.2" fill="#2f855a" fill-opacity="0.90"/>
<circle cx="924.40" cy="542.00" r="3.2" fill="#2f855a" fill-opacity="0.90"/>
<circle cx="946.00" cy="542.00" r="3.2" fill="#2f855a" fill-opacity="0.90"/>
<polyline points="82.00,56.15 103.60,84.85 125.20,111.50 146.80,170.95 168.40,234.50 190.00,322.65 211.60,380.05 233.20,419.00 254.80,488.70 276.40,507.15 298.00,505.10 319.60,525.60 341.20,529.70 362.80,537.90 384.40,537.90 406.00,542.00 427.60,537.90 449.20,537.90 470.80,542.00 492.40,542.00 514.00,542.00 535.60,542.00 557.20,542.00 578.80,542.00 600.40,542.00 622.00,542.00 643.60,542.00 665.20,542.00 686.80,542.00 708.40,542.00 730.00,542.00 751.60,542.00 773.20,542.00 794.80,542.00 816.40,542.00 838.00,542.00 859.60,542.00 881.20,542.00 902.80,542.00 924.40,542.00 946.00,542.00 " fill="none" stroke="#1769aa" stroke-width="3" stroke-dasharray="7 5"/>
<circle cx="82.00" cy="56.15" r="3.2" fill="#1769aa" fill-opacity="0.55"/>
<circle cx="103.60" cy="84.85" r="3.2" fill="#1769aa" fill-opacity="0.55"/>
<circle cx="125.20" cy="111.50" r="3.2" fill="#1769aa" fill-opacity="0.55"/>
<circle cx="146.80" cy="170.95" r="3.2" fill="#1769aa" fill-opacity="0.55"/>
<circle cx="168.40" cy="234.50" r="3.2" fill="#1769aa" fill-opacity="0.55"/>
<circle cx="190.00" cy="322.65" r="3.2" fill="#1769aa" fill-opacity="0.55"/>
<circle cx="211.60" cy="380.05" r="3.2" fill="#1769aa" fill-opacity="0.55"/>
<circle cx="233.20" cy="419.00" r="3.2" fill="#1769aa" fill-opacity="0.55"/>
<circle cx="254.80" cy="488.70" r="3.2" fill="#1769aa" fill-opacity="0.55"/>
<circle cx="276.40" cy="507.15" r="3.2" fill="#1769aa" fill-opacity="0.55"/>
<circle cx="298.00" cy="505.10" r="3.2" fill="#1769aa" fill-opacity="0.55"/>
<circle cx="319.60" cy="525.60" r="3.2" fill="#1769aa" fill-opacity="0.55"/>
<circle cx="341.20" cy="529.70" r="3.2" fill="#1769aa" fill-opacity="0.55"/>
<circle cx="362.80" cy="537.90" r="3.2" fill="#1769aa" fill-opacity="0.55"/>
<circle cx="384.40" cy="537.90" r="3.2" fill="#1769aa" fill-opacity="0.55"/>
<circle cx="406.00" cy="542.00" r="3.2" fill="#1769aa" fill-opacity="0.55"/>
<circle cx="427.60" cy="537.90" r="3.2" fill="#1769aa" fill-opacity="0.55"/>
<circle cx="449.20" cy="537.90" r="3.2" fill="#1769aa" fill-opacity="0.55"/>
<circle cx="470.80" cy="542.00" r="3.2" fill="#1769aa" fill-opacity="0.55"/>
<circle cx="492.40" cy="542.00" r="3.2" fill="#1769aa" fill-opacity="0.55"/>
<circle cx="514.00" cy="542.00" r="3.2" fill="#1769aa" fill-opacity="0.55"/>
<circle cx="535.60" cy="542.00" r="3.2" fill="#1769aa" fill-opacity="0.55"/>
<circle cx="557.20" cy="542.00" r="3.2" fill="#1769aa" fill-opacity="0.55"/>
<circle cx="578.80" cy="542.00" r="3.2" fill="#1769aa" fill-opacity="0.55"/>
<circle cx="600.40" cy="542.00" r="3.2" fill="#1769aa" fill-opacity="0.55"/>
<circle cx="622.00" cy="542.00" r="3.2" fill="#1769aa" fill-opacity="0.55"/>
<circle cx="643.60" cy="542.00" r="3.2" fill="#1769aa" fill-opacity="0.55"/>
<circle cx="665.20" cy="542.00" r="3.2" fill="#1769aa" fill-opacity="0.55"/>
<circle cx="686.80" cy="542.00" r="3.2" fill="#1769aa" fill-opacity="0.55"/>
<circle cx="708.40" cy="542.00" r="3.2" fill="#1769aa" fill-opacity="0.55"/>
<circle cx="730.00" cy="542.00" r="3.2" fill="#1769aa" fill-opacity="0.55"/>
<circle cx="751.60" cy="542.00" r="3.2" fill="#1769aa" fill-opacity="0.55"/>
<circle cx="773.20" cy="542.00" r="3.2" fill="#1769aa" fill-opacity="0.55"/>
<circle cx="794.80" cy="542.00" r="3.2" fill="#1769aa" fill-opacity="0.55"/>
<circle cx="816.40" cy="542.00" r="3.2" fill="#1769aa" fill-opacity="0.55"/>
<circle cx="838.00" cy="542.00" r="3.2" fill="#1769aa" fill-opacity="0.55"/>
<circle cx="859.60" cy="542.00" r="3.2" fill="#1769aa" fill-opacity="0.55"/>
<circle cx="881.20" cy="542.00" r="3.2" fill="#1769aa" fill-opacity="0.55"/>
<circle cx="902.80" cy="542.00" r="3.2" fill="#1769aa" fill-opacity="0.55"/>
<circle cx="924.40" cy="542.00" r="3.2" fill="#1769aa" fill-opacity="0.55"/>
<circle cx="946.00" cy="542.00" r="3.2" fill="#1769aa" fill-opacity="0.55"/>
<polyline points="82.00,50.00 103.60,50.00 125.20,50.00 146.80,50.00 168.40,50.00 190.00,50.00 211.60,50.00 233.20,50.00 254.80,56.15 276.40,64.35 298.00,84.85 319.60,134.05 341.20,224.25 362.80,296.00 384.40,359.55 406.00,425.15 427.60,460.00 449.20,478.45 470.80,519.45 492.40,525.60 514.00,539.95 535.60,535.85 557.20,539.95 578.80,542.00 600.40,539.95 622.00,542.00 643.60,542.00 665.20,542.00 686.80,542.00 708.40,542.00 730.00,542.00 751.60,542.00 773.20,542.00 794.80,542.00 816.40,542.00 838.00,542.00 859.60,542.00 881.20,542.00 902.80,542.00 924.40,542.00 946.00,542.00 " fill="none" stroke="#c2410c" stroke-width="3" stroke-dasharray="7 5"/>
<circle cx="82.00" cy="50.00" r="3.2" fill="#c2410c" fill-opacity="0.55"/>
<circle cx="103.60" cy="50.00" r="3.2" fill="#c2410c" fill-opacity="0.55"/>
<circle cx="125.20" cy="50.00" r="3.2" fill="#c2410c" fill-opacity="0.55"/>
<circle cx="146.80" cy="50.00" r="3.2" fill="#c2410c" fill-opacity="0.55"/>
<circle cx="168.40" cy="50.00" r="3.2" fill="#c2410c" fill-opacity="0.55"/>
<circle cx="190.00" cy="50.00" r="3.2" fill="#c2410c" fill-opacity="0.55"/>
<circle cx="211.60" cy="50.00" r="3.2" fill="#c2410c" fill-opacity="0.55"/>
<circle cx="233.20" cy="50.00" r="3.2" fill="#c2410c" fill-opacity="0.55"/>
<circle cx="254.80" cy="56.15" r="3.2" fill="#c2410c" fill-opacity="0.55"/>
<circle cx="276.40" cy="64.35" r="3.2" fill="#c2410c" fill-opacity="0.55"/>
<circle cx="298.00" cy="84.85" r="3.2" fill="#c2410c" fill-opacity="0.55"/>
<circle cx="319.60" cy="134.05" r="3.2" fill="#c2410c" fill-opacity="0.55"/>
<circle cx="341.20" cy="224.25" r="3.2" fill="#c2410c" fill-opacity="0.55"/>
<circle cx="362.80" cy="296.00" r="3.2" fill="#c2410c" fill-opacity="0.55"/>
<circle cx="384.40" cy="359.55" r="3.2" fill="#c2410c" fill-opacity="0.55"/>
<circle cx="406.00" cy="425.15" r="3.2" fill="#c2410c" fill-opacity="0.55"/>
<circle cx="427.60" cy="460.00" r="3.2" fill="#c2410c" fill-opacity="0.55"/>
<circle cx="449.20" cy="478.45" r="3.2" fill="#c2410c" fill-opacity="0.55"/>
<circle cx="470.80" cy="519.45" r="3.2" fill="#c2410c" fill-opacity="0.55"/>
<circle cx="492.40" cy="525.60" r="3.2" fill="#c2410c" fill-opacity="0.55"/>
<circle cx="514.00" cy="539.95" r="3.2" fill="#c2410c" fill-opacity="0.55"/>
<circle cx="535.60" cy="535.85" r="3.2" fill="#c2410c" fill-opacity="0.55"/>
<circle cx="557.20" cy="539.95" r="3.2" fill="#c2410c" fill-opacity="0.55"/>
<circle cx="578.80" cy="542.00" r="3.2" fill="#c2410c" fill-opacity="0.55"/>
<circle cx="600.40" cy="539.95" r="3.2" fill="#c2410c" fill-opacity="0.55"/>
<circle cx="622.00" cy="542.00" r="3.2" fill="#c2410c" fill-opacity="0.55"/>
<circle cx="643.60" cy="542.00" r="3.2" fill="#c2410c" fill-opacity="0.55"/>
<circle cx="665.20" cy="542.00" r="3.2" fill="#c2410c" fill-opacity="0.55"/>
<circle cx="686.80" cy="542.00" r="3.2" fill="#c2410c" fill-opacity="0.55"/>
<circle cx="708.40" cy="542.00" r="3.2" fill="#c2410c" fill-opacity="0.55"/>
<circle cx="730.00" cy="542.00" r="3.2" fill="#c2410c" fill-opacity="0.55"/>
<circle cx="751.60" cy="542.00" r="3.2" fill="#c2410c" fill-opacity="0.55"/>
<circle cx="773.20" cy="542.00" r="3.2" fill="#c2410c" fill-opacity="0.55"/>
<circle cx="794.80" cy="542.00" r="3.2" fill="#c2410c" fill-opacity="0.55"/>
<circle cx="816.40" cy="542.00" r="3.2" fill="#c2410c" fill-opacity="0.55"/>
<circle cx="838.00" cy="542.00" r="3.2" fill="#c2410c" fill-opacity="0.55"/>
<circle cx="859.60" cy="542.00" r="3.2" fill="#c2410c" fill-opacity="0.55"/>
<circle cx="881.20" cy="542.00" r="3.2" fill="#c2410c" fill-opacity="0.55"/>
<circle cx="902.80" cy="542.00" r="3.2" fill="#c2410c" fill-opacity="0.55"/>
<circle cx="924.40" cy="542.00" r="3.2" fill="#c2410c" fill-opacity="0.55"/>
<circle cx="946.00" cy="542.00" r="3.2" fill="#c2410c" fill-opacity="0.55"/>
<polyline points="82.00,50.00 103.60,50.00 125.20,50.00 146.80,50.00 168.40,50.00 190.00,50.00 211.60,50.00 233.20,50.00 254.80,50.00 276.40,50.00 298.00,50.00 319.60,50.00 341.20,52.05 362.80,58.20 384.40,60.25 406.00,101.25 427.60,189.40 449.20,255.00 470.80,314.45 492.40,402.60 514.00,435.40 535.60,486.65 557.20,501.00 578.80,525.60 600.40,519.45 622.00,533.80 643.60,542.00 665.20,542.00 686.80,537.90 708.40,539.95 730.00,542.00 751.60,542.00 773.20,542.00 794.80,542.00 816.40,542.00 838.00,542.00 859.60,542.00 881.20,542.00 902.80,542.00 924.40,542.00 946.00,542.00 " fill="none" stroke="#2f855a" stroke-width="3" stroke-dasharray="7 5"/>
<circle cx="82.00" cy="50.00" r="3.2" fill="#2f855a" fill-opacity="0.55"/>
<circle cx="103.60" cy="50.00" r="3.2" fill="#2f855a" fill-opacity="0.55"/>
<circle cx="125.20" cy="50.00" r="3.2" fill="#2f855a" fill-opacity="0.55"/>
<circle cx="146.80" cy="50.00" r="3.2" fill="#2f855a" fill-opacity="0.55"/>
<circle cx="168.40" cy="50.00" r="3.2" fill="#2f855a" fill-opacity="0.55"/>
<circle cx="190.00" cy="50.00" r="3.2" fill="#2f855a" fill-opacity="0.55"/>
<circle cx="211.60" cy="50.00" r="3.2" fill="#2f855a" fill-opacity="0.55"/>
<circle cx="233.20" cy="50.00" r="3.2" fill="#2f855a" fill-opacity="0.55"/>
<circle cx="254.80" cy="50.00" r="3.2" fill="#2f855a" fill-opacity="0.55"/>
<circle cx="276.40" cy="50.00" r="3.2" fill="#2f855a" fill-opacity="0.55"/>
<circle cx="298.00" cy="50.00" r="3.2" fill="#2f855a" fill-opacity="0.55"/>
<circle cx="319.60" cy="50.00" r="3.2" fill="#2f855a" fill-opacity="0.55"/>
<circle cx="341.20" cy="52.05" r="3.2" fill="#2f855a" fill-opacity="0.55"/>
<circle cx="362.80" cy="58.20" r="3.2" fill="#2f855a" fill-opacity="0.55"/>
<circle cx="384.40" cy="60.25" r="3.2" fill="#2f855a" fill-opacity="0.55"/>
<circle cx="406.00" cy="101.25" r="3.2" fill="#2f855a" fill-opacity="0.55"/>
<circle cx="427.60" cy="189.40" r="3.2" fill="#2f855a" fill-opacity="0.55"/>
<circle cx="449.20" cy="255.00" r="3.2" fill="#2f855a" fill-opacity="0.55"/>
<circle cx="470.80" cy="314.45" r="3.2" fill="#2f855a" fill-opacity="0.55"/>
<circle cx="492.40" cy="402.60" r="3.2" fill="#2f855a" fill-opacity="0.55"/>
<circle cx="514.00" cy="435.40" r="3.2" fill="#2f855a" fill-opacity="0.55"/>
<circle cx="535.60" cy="486.65" r="3.2" fill="#2f855a" fill-opacity="0.55"/>
<circle cx="557.20" cy="501.00" r="3.2" fill="#2f855a" fill-opacity="0.55"/>
<circle cx="578.80" cy="525.60" r="3.2" fill="#2f855a" fill-opacity="0.55"/>
<circle cx="600.40" cy="519.45" r="3.2" fill="#2f855a" fill-opacity="0.55"/>
<circle cx="622.00" cy="533.80" r="3.2" fill="#2f855a" fill-opacity="0.55"/>
<circle cx="643.60" cy="542.00" r="3.2" fill="#2f855a" fill-opacity="0.55"/>
<circle cx="665.20" cy="542.00" r="3.2" fill="#2f855a" fill-opacity="0.55"/>
<circle cx="686.80" cy="537.90" r="3.2" fill="#2f855a" fill-opacity="0.55"/>
<circle cx="708.40" cy="539.95" r="3.2" fill="#2f855a" fill-opacity="0.55"/>
<circle cx="730.00" cy="542.00" r="3.2" fill="#2f855a" fill-opacity="0.55"/>
<circle cx="751.60" cy="542.00" r="3.2" fill="#2f855a" fill-opacity="0.55"/>
<circle cx="773.20" cy="542.00" r="3.2" fill="#2f855a" fill-opacity="0.55"/>
<circle cx="794.80" cy="542.00" r="3.2" fill="#2f855a" fill-opacity="0.55"/>
<circle cx="816.40" cy="542.00" r="3.2" fill="#2f855a" fill-opacity="0.55"/>
<circle cx="838.00" cy="542.00" r="3.2" fill="#2f855a" fill-opacity="0.55"/>
<circle cx="859.60" cy="542.00" r="3.2" fill="#2f855a" fill-opacity="0.55"/>
<circle cx="881.20" cy="542.00" r="3.2" fill="#2f855a" fill-opacity="0.55"/>
<circle cx="902.80" cy="542.00" r="3.2" fill="#2f855a" fill-opacity="0.55"/>
<circle cx="924.40" cy="542.00" r="3.2" fill="#2f855a" fill-opacity="0.55"/>
<circle cx="946.00" cy="542.00" r="3.2" fill="#2f855a" fill-opacity="0.55"/>
<polyline points="82.00,531.75 103.60,531.75 125.20,537.90 146.80,537.90 168.40,542.00 190.00,542.00 211.60,542.00 233.20,542.00 254.80,542.00 276.40,542.00 298.00,542.00 319.60,542.00 341.20,542.00 362.80,542.00 384.40,542.00 406.00,542.00 427.60,542.00 449.20,542.00 470.80,542.00 492.40,542.00 514.00,542.00 535.60,542.00 557.20,542.00 578.80,542.00 600.40,542.00 622.00,542.00 643.60,542.00 665.20,542.00 686.80,542.00 708.40,542.00 730.00,542.00 751.60,542.00 773.20,542.00 794.80,542.00 816.40,542.00 838.00,542.00 859.60,542.00 881.20,542.00 902.80,542.00 924.40,542.00 946.00,542.00 " fill="none" stroke="#1769aa" stroke-width="3" stroke-dasharray="2 5"/>
<circle cx="82.00" cy="531.75" r="3.2" fill="#1769aa" fill-opacity="0.55"/>
<circle cx="103.60" cy="531.75" r="3.2" fill="#1769aa" fill-opacity="0.55"/>
<circle cx="125.20" cy="537.90" r="3.2" fill="#1769aa" fill-opacity="0.55"/>
<circle cx="146.80" cy="537.90" r="3.2" fill="#1769aa" fill-opacity="0.55"/>
<circle cx="168.40" cy="542.00" r="3.2" fill="#1769aa" fill-opacity="0.55"/>
<circle cx="190.00" cy="542.00" r="3.2" fill="#1769aa" fill-opacity="0.55"/>
<circle cx="211.60" cy="542.00" r="3.2" fill="#1769aa" fill-opacity="0.55"/>
<circle cx="233.20" cy="542.00" r="3.2" fill="#1769aa" fill-opacity="0.55"/>
<circle cx="254.80" cy="542.00" r="3.2" fill="#1769aa" fill-opacity="0.55"/>
<circle cx="276.40" cy="542.00" r="3.2" fill="#1769aa" fill-opacity="0.55"/>
<circle cx="298.00" cy="542.00" r="3.2" fill="#1769aa" fill-opacity="0.55"/>
<circle cx="319.60" cy="542.00" r="3.2" fill="#1769aa" fill-opacity="0.55"/>
<circle cx="341.20" cy="542.00" r="3.2" fill="#1769aa" fill-opacity="0.55"/>
<circle cx="362.80" cy="542.00" r="3.2" fill="#1769aa" fill-opacity="0.55"/>
<circle cx="384.40" cy="542.00" r="3.2" fill="#1769aa" fill-opacity="0.55"/>
<circle cx="406.00" cy="542.00" r="3.2" fill="#1769aa" fill-opacity="0.55"/>
<circle cx="427.60" cy="542.00" r="3.2" fill="#1769aa" fill-opacity="0.55"/>
<circle cx="449.20" cy="542.00" r="3.2" fill="#1769aa" fill-opacity="0.55"/>
<circle cx="470.80" cy="542.00" r="3.2" fill="#1769aa" fill-opacity="0.55"/>
<circle cx="492.40" cy="542.00" r="3.2" fill="#1769aa" fill-opacity="0.55"/>
<circle cx="514.00" cy="542.00" r="3.2" fill="#1769aa" fill-opacity="0.55"/>
<circle cx="535.60" cy="542.00" r="3.2" fill="#1769aa" fill-opacity="0.55"/>
<circle cx="557.20" cy="542.00" r="3.2" fill="#1769aa" fill-opacity="0.55"/>
<circle cx="578.80" cy="542.00" r="3.2" fill="#1769aa" fill-opacity="0.55"/>
<circle cx="600.40" cy="542.00" r="3.2" fill="#1769aa" fill-opacity="0.55"/>
<circle cx="622.00" cy="542.00" r="3.2" fill="#1769aa" fill-opacity="0.55"/>
<circle cx="643.60" cy="542.00" r="3.2" fill="#1769aa" fill-opacity="0.55"/>
<circle cx="665.20" cy="542.00" r="3.2" fill="#1769aa" fill-opacity="0.55"/>
<circle cx="686.80" cy="542.00" r="3.2" fill="#1769aa" fill-opacity="0.55"/>
<circle cx="708.40" cy="542.00" r="3.2" fill="#1769aa" fill-opacity="0.55"/>
<circle cx="730.00" cy="542.00" r="3.2" fill="#1769aa" fill-opacity="0.55"/>
<circle cx="751.60" cy="542.00" r="3.2" fill="#1769aa" fill-opacity="0.55"/>
<circle cx="773.20" cy="542.00" r="3.2" fill="#1769aa" fill-opacity="0.55"/>
<circle cx="794.80" cy="542.00" r="3.2" fill="#1769aa" fill-opacity="0.55"/>
<circle cx="816.40" cy="542.00" r="3.2" fill="#1769aa" fill-opacity="0.55"/>
<circle cx="838.00" cy="542.00" r="3.2" fill="#1769aa" fill-opacity="0.55"/>
<circle cx="859.60" cy="542.00" r="3.2" fill="#1769aa" fill-opacity="0.55"/>
<circle cx="881.20" cy="542.00" r="3.2" fill="#1769aa" fill-opacity="0.55"/>
<circle cx="902.80" cy="542.00" r="3.2" fill="#1769aa" fill-opacity="0.55"/>
<circle cx="924.40" cy="542.00" r="3.2" fill="#1769aa" fill-opacity="0.55"/>
<circle cx="946.00" cy="542.00" r="3.2" fill="#1769aa" fill-opacity="0.55"/>
<polyline points="82.00,154.55 103.60,203.75 125.20,285.75 146.80,359.55 168.40,402.60 190.00,470.25 211.60,505.10 233.20,533.80 254.80,529.70 276.40,527.65 298.00,533.80 319.60,535.85 341.20,537.90 362.80,539.95 384.40,539.95 406.00,542.00 427.60,542.00 449.20,542.00 470.80,542.00 492.40,542.00 514.00,542.00 535.60,542.00 557.20,542.00 578.80,542.00 600.40,542.00 622.00,542.00 643.60,542.00 665.20,542.00 686.80,542.00 708.40,542.00 730.00,542.00 751.60,542.00 773.20,542.00 794.80,542.00 816.40,542.00 838.00,542.00 859.60,542.00 881.20,542.00 902.80,542.00 924.40,542.00 946.00,542.00 " fill="none" stroke="#c2410c" stroke-width="3" stroke-dasharray="2 5"/>
<circle cx="82.00" cy="154.55" r="3.2" fill="#c2410c" fill-opacity="0.55"/>
<circle cx="103.60" cy="203.75" r="3.2" fill="#c2410c" fill-opacity="0.55"/>
<circle cx="125.20" cy="285.75" r="3.2" fill="#c2410c" fill-opacity="0.55"/>
<circle cx="146.80" cy="359.55" r="3.2" fill="#c2410c" fill-opacity="0.55"/>
<circle cx="168.40" cy="402.60" r="3.2" fill="#c2410c" fill-opacity="0.55"/>
<circle cx="190.00" cy="470.25" r="3.2" fill="#c2410c" fill-opacity="0.55"/>
<circle cx="211.60" cy="505.10" r="3.2" fill="#c2410c" fill-opacity="0.55"/>
<circle cx="233.20" cy="533.80" r="3.2" fill="#c2410c" fill-opacity="0.55"/>
<circle cx="254.80" cy="529.70" r="3.2" fill="#c2410c" fill-opacity="0.55"/>
<circle cx="276.40" cy="527.65" r="3.2" fill="#c2410c" fill-opacity="0.55"/>
<circle cx="298.00" cy="533.80" r="3.2" fill="#c2410c" fill-opacity="0.55"/>
<circle cx="319.60" cy="535.85" r="3.2" fill="#c2410c" fill-opacity="0.55"/>
<circle cx="341.20" cy="537.90" r="3.2" fill="#c2410c" fill-opacity="0.55"/>
<circle cx="362.80" cy="539.95" r="3.2" fill="#c2410c" fill-opacity="0.55"/>
<circle cx="384.40" cy="539.95" r="3.2" fill="#c2410c" fill-opacity="0.55"/>
<circle cx="406.00" cy="542.00" r="3.2" fill="#c2410c" fill-opacity="0.55"/>
<circle cx="427.60" cy="542.00" r="3.2" fill="#c2410c" fill-opacity="0.55"/>
<circle cx="449.20" cy="542.00" r="3.2" fill="#c2410c" fill-opacity="0.55"/>
<circle cx="470.80" cy="542.00" r="3.2" fill="#c2410c" fill-opacity="0.55"/>
<circle cx="492.40" cy="542.00" r="3.2" fill="#c2410c" fill-opacity="0.55"/>
<circle cx="514.00" cy="542.00" r="3.2" fill="#c2410c" fill-opacity="0.55"/>
<circle cx="535.60" cy="542.00" r="3.2" fill="#c2410c" fill-opacity="0.55"/>
<circle cx="557.20" cy="542.00" r="3.2" fill="#c2410c" fill-opacity="0.55"/>
<circle cx="578.80" cy="542.00" r="3.2" fill="#c2410c" fill-opacity="0.55"/>
<circle cx="600.40" cy="542.00" r="3.2" fill="#c2410c" fill-opacity="0.55"/>
<circle cx="622.00" cy="542.00" r="3.2" fill="#c2410c" fill-opacity="0.55"/>
<circle cx="643.60" cy="542.00" r="3.2" fill="#c2410c" fill-opacity="0.55"/>
<circle cx="665.20" cy="542.00" r="3.2" fill="#c2410c" fill-opacity="0.55"/>
<circle cx="686.80" cy="542.00" r="3.2" fill="#c2410c" fill-opacity="0.55"/>
<circle cx="708.40" cy="542.00" r="3.2" fill="#c2410c" fill-opacity="0.55"/>
<circle cx="730.00" cy="542.00" r="3.2" fill="#c2410c" fill-opacity="0.55"/>
<circle cx="751.60" cy="542.00" r="3.2" fill="#c2410c" fill-opacity="0.55"/>
<circle cx="773.20" cy="542.00" r="3.2" fill="#c2410c" fill-opacity="0.55"/>
<circle cx="794.80" cy="542.00" r="3.2" fill="#c2410c" fill-opacity="0.55"/>
<circle cx="816.40" cy="542.00" r="3.2" fill="#c2410c" fill-opacity="0.55"/>
<circle cx="838.00" cy="542.00" r="3.2" fill="#c2410c" fill-opacity="0.55"/>
<circle cx="859.60" cy="542.00" r="3.2" fill="#c2410c" fill-opacity="0.55"/>
<circle cx="881.20" cy="542.00" r="3.2" fill="#c2410c" fill-opacity="0.55"/>
<circle cx="902.80" cy="542.00" r="3.2" fill="#c2410c" fill-opacity="0.55"/>
<circle cx="924.40" cy="542.00" r="3.2" fill="#c2410c" fill-opacity="0.55"/>
<circle cx="946.00" cy="542.00" r="3.2" fill="#c2410c" fill-opacity="0.55"/>
<polyline points="82.00,50.00 103.60,50.00 125.20,56.15 146.80,88.95 168.40,111.50 190.00,166.85 211.60,252.95 233.20,337.00 254.80,386.20 276.40,439.50 298.00,470.25 319.60,505.10 341.20,511.25 362.80,527.65 384.40,527.65 406.00,539.95 427.60,537.90 449.20,542.00 470.80,542.00 492.40,542.00 514.00,542.00 535.60,542.00 557.20,542.00 578.80,542.00 600.40,542.00 622.00,542.00 643.60,542.00 665.20,542.00 686.80,542.00 708.40,542.00 730.00,542.00 751.60,542.00 773.20,542.00 794.80,542.00 816.40,542.00 838.00,542.00 859.60,542.00 881.20,542.00 902.80,542.00 924.40,542.00 946.00,542.00 " fill="none" stroke="#2f855a" stroke-width="3" stroke-dasharray="2 5"/>
<circle cx="82.00" cy="50.00" r="3.2" fill="#2f855a" fill-opacity="0.55"/>
<circle cx="103.60" cy="50.00" r="3.2" fill="#2f855a" fill-opacity="0.55"/>
<circle cx="125.20" cy="56.15" r="3.2" fill="#2f855a" fill-opacity="0.55"/>
<circle cx="146.80" cy="88.95" r="3.2" fill="#2f855a" fill-opacity="0.55"/>
<circle cx="168.40" cy="111.50" r="3.2" fill="#2f855a" fill-opacity="0.55"/>
<circle cx="190.00" cy="166.85" r="3.2" fill="#2f855a" fill-opacity="0.55"/>
<circle cx="211.60" cy="252.95" r="3.2" fill="#2f855a" fill-opacity="0.55"/>
<circle cx="233.20" cy="337.00" r="3.2" fill="#2f855a" fill-opacity="0.55"/>
<circle cx="254.80" cy="386.20" r="3.2" fill="#2f855a" fill-opacity="0.55"/>
<circle cx="276.40" cy="439.50" r="3.2" fill="#2f855a" fill-opacity="0.55"/>
<circle cx="298.00" cy="470.25" r="3.2" fill="#2f855a" fill-opacity="0.55"/>
<circle cx="319.60" cy="505.10" r="3.2" fill="#2f855a" fill-opacity="0.55"/>
<circle cx="341.20" cy="511.25" r="3.2" fill="#2f855a" fill-opacity="0.55"/>
<circle cx="362.80" cy="527.65" r="3.2" fill="#2f855a" fill-opacity="0.55"/>
<circle cx="384.40" cy="527.65" r="3.2" fill="#2f855a" fill-opacity="0.55"/>
<circle cx="406.00" cy="539.95" r="3.2" fill="#2f855a" fill-opacity="0.55"/>
<circle cx="427.60" cy="537.90" r="3.2" fill="#2f855a" fill-opacity="0.55"/>
<circle cx="449.20" cy="542.00" r="3.2" fill="#2f855a" fill-opacity="0.55"/>
<circle cx="470.80" cy="542.00" r="3.2" fill="#2f855a" fill-opacity="0.55"/>
<circle cx="492.40" cy="542.00" r="3.2" fill="#2f855a" fill-opacity="0.55"/>
<circle cx="514.00" cy="542.00" r="3.2" fill="#2f855a" fill-opacity="0.55"/>
<circle cx="535.60" cy="542.00" r="3.2" fill="#2f855a" fill-opacity="0.55"/>
<circle cx="557.20" cy="542.00" r="3.2" fill="#2f855a" fill-opacity="0.55"/>
<circle cx="578.80" cy="542.00" r="3.2" fill="#2f855a" fill-opacity="0.55"/>
<circle cx="600.40" cy="542.00" r="3.2" fill="#2f855a" fill-opacity="0.55"/>
<circle cx="622.00" cy="542.00" r="3.2" fill="#2f855a" fill-opacity="0.55"/>
<circle cx="643.60" cy="542.00" r="3.2" fill="#2f855a" fill-opacity="0.55"/>
<circle cx="665.20" cy="542.00" r="3.2" fill="#2f855a" fill-opacity="0.55"/>
<circle cx="686.80" cy="542.00" r="3.2" fill="#2f855a" fill-opacity="0.55"/>
<circle cx="708.40" cy="542.00" r="3.2" fill="#2f855a" fill-opacity="0.55"/>
<circle cx="730.00" cy="542.00" r="3.2" fill="#2f855a" fill-opacity="0.55"/>
<circle cx="751.60" cy="542.00" r="3.2" fill="#2f855a" fill-opacity="0.55"/>
<circle cx="773.20" cy="542.00" r="3.2" fill="#2f855a" fill-opacity="0.55"/>
<circle cx="794.80" cy="542.00" r="3.2" fill="#2f855a" fill-opacity="0.55"/>
<circle cx="816.40" cy="542.00" r="3.2" fill="#2f855a" fill-opacity="0.55"/>
<circle cx="838.00" cy="542.00" r="3.2" fill="#2f855a" fill-opacity="0.55"/>
<circle cx="859.60" cy="542.00" r="3.2" fill="#2f855a" fill-opacity="0.55"/>
<circle cx="881.20" cy="542.00" r="3.2" fill="#2f855a" fill-opacity="0.55"/>
<circle cx="902.80" cy="542.00" r="3.2" fill="#2f855a" fill-opacity="0.55"/>
<circle cx="924.40" cy="542.00" r="3.2" fill="#2f855a" fill-opacity="0.55"/>
<circle cx="946.00" cy="542.00" r="3.2" fill="#2f855a" fill-opacity="0.55"/>
<rect x="720" y="54" width="214" height="190" fill="#fff" stroke="#ccc"/>
<line x1="732" y1="72" x2="764" y2="72" stroke="#1769aa" stroke-width="3"/><text x="774" y="76" font-family="sans-serif" font-size="13">FEC 1/2</text>
<line x1="732" y1="97" x2="764" y2="97" stroke="#c2410c" stroke-width="3"/><text x="774" y="101" font-family="sans-serif" font-size="13">FEC 2/3</text>
<line x1="732" y1="122" x2="764" y2="122" stroke="#2f855a" stroke-width="3"/><text x="774" y="126" font-family="sans-serif" font-size="13">FEC 3/4</text>
<line x1="732" y1="154" x2="764" y2="154" stroke="#333" stroke-width="3"/><text x="774" y="158" font-family="sans-serif" font-size="13">SR 333k</text>
<line x1="732" y1="179" x2="764" y2="179" stroke="#333" stroke-width="3" stroke-dasharray="7 5"/><text x="774" y="183" font-family="sans-serif" font-size="13">SR 250k</text>
<line x1="732" y1="204" x2="764" y2="204" stroke="#333" stroke-width="3" stroke-dasharray="2 5"/><text x="774" y="208" font-family="sans-serif" font-size="13">SR 150k</text>
<text x="82" y="596" font-family="sans-serif" font-size="11" fill="#555">Constant transmit power and N0. Es/N0 = C/N + 10log10(B/Rs); CSV includes Es/N0 and Eb/N0.</text>
</svg>
