<?xml version="1.0" encoding="UTF-8"?>
<svg xmlns="http://www.w3.org/2000/svg" width="980" height="620" viewBox="0 0 980 620">
<rect width="100%" height="100%" fill="#ffffff"/>
<text x="490" y="25" text-anchor="middle" font-family="sans-serif" font-size="18" font-weight="700">DVB-T QPSK packet error vs fixed-bandwidth C/N, GI 1/32</text>
<rect x="82" y="50" width="864" height="492" fill="#fbfbfb" stroke="#222" stroke-width="1"/>
<line x1="82.00" y1="542.00" x2="946.00" y2="542.00" stroke="#e1e1e1" stroke-width="1"/>
<text x="72.00" y="546.00" text-anchor="end" font-family="sans-serif" font-size="12">0%</text>
<line x1="82.00" y1="492.80" x2="946.00" y2="492.80" stroke="#e1e1e1" stroke-width="1"/>
<text x="72.00" y="496.80" text-anchor="end" font-family="sans-serif" font-size="12">10%</text>
<line x1="82.00" y1="443.60" x2="946.00" y2="443.60" stroke="#e1e1e1" stroke-width="1"/>
<text x="72.00" y="447.60" text-anchor="end" font-family="sans-serif" font-size="12">20%</text>
<line x1="82.00" y1="394.40" x2="946.00" y2="394.40" stroke="#e1e1e1" stroke-width="1"/>
<text x="72.00" y="398.40" text-anchor="end" font-family="sans-serif" font-size="12">30%</text>
<line x1="82.00" y1="345.20" x2="946.00" y2="345.20" stroke="#e1e1e1" stroke-width="1"/>
<text x="72.00" y="349.20" text-anchor="end" font-family="sans-serif" font-size="12">40%</text>
<line x1="82.00" y1="296.00" x2="946.00" y2="296.00" stroke="#e1e1e1" stroke-width="1"/>
<text x="72.00" y="300.00" text-anchor="end" font-family="sans-serif" font-size="12">50%</text>
<line x1="82.00" y1="246.80" x2="946.00" y2="246.80" stroke="#e1e1e1" stroke-width="1"/>
<text x="72.00" y="250.80" text-anchor="end" font-family="sans-serif" font-size="12">60%</text>
<line x1="82.00" y1="197.60" x2="946.00" y2="197.60" stroke="#e1e1e1" stroke-width="1"/>
<text x="72.00" y="201.60" text-anchor="end" font-family="sans-serif" font-size="12">70%</text>
<line x1="82.00" y1="148.40" x2="946.00" y2="148.40" stroke="#e1e1e1" stroke-width="1"/>
<text x="72.00" y="152.40" text-anchor="end" font-family="sans-serif" font-size="12">80%</text>
<line x1="82.00" y1="99.20" x2="946.00" y2="99.20" stroke="#e1e1e1" stroke-width="1"/>
<text x="72.00" y="103.20" text-anchor="end" font-family="sans-serif" font-size="12">90%</text>
<line x1="82.00" y1="50.00" x2="946.00" y2="50.00" stroke="#e1e1e1" stroke-width="1"/>
<text x="72.00" y="54.00" text-anchor="end" font-family="sans-serif" font-size="12">100%</text>
<line x1="82.00" y1="50.00" x2="82.00" y2="542.00" stroke="#ececec" stroke-width="1"/>
<text x="82.00" y="566.00" text-anchor="middle" font-family="sans-serif" font-size="12">0</text>
<line x1="254.80" y1="50.00" x2="254.80" y2="542.00" stroke="#ececec" stroke-width="1"/>
<text x="254.80" y="566.00" text-anchor="middle" font-family="sans-serif" font-size="12">2</text>
<line x1="427.60" y1="50.00" x2="427.60" y2="542.00" stroke="#ececec" stroke-width="1"/>
<text x="427.60" y="566.00" text-anchor="middle" font-family="sans-serif" font-size="12">4</text>
<line x1="600.40" y1="50.00" x2="600.40" y2="542.00" stroke="#ececec" stroke-width="1"/>
<text x="600.40" y="566.00" text-anchor="middle" font-family="sans-serif" font-size="12">6</text>
<line x1="773.20" y1="50.00" x2="773.20" y2="542.00" stroke="#ececec" stroke-width="1"/>
<text x="773.20" y="566.00" text-anchor="middle" font-family="sans-serif" font-size="12">8</text>
<line x1="946.00" y1="50.00" x2="946.00" y2="542.00" stroke="#ececec" stroke-width="1"/>
<text x="946.00" y="566.00" text-anchor="middle" font-family="sans-serif" font-size="12">10</text>
<text x="514" y="596" text-anchor="middle" font-family="sans-serif" font-size="14">channel C/N in fixed noise bandwidth (dB)</text>
<text x="23" y="296" text-anchor="middle" font-family="sans-serif" font-size="14" transform="rotate(-90 23 296)">packet error percentage</text>
<polyline points="82.00,50.00 168.40,50.00 254.80,197.60 341.20,480.50 427.60,542.00 514.00,542.00 600.40,542.00 686.80,542.00 773.20,542.00 859.60,542.00 946.00,542.00 " fill="none" stroke="#1769aa" stroke-width="3"/>
<circle cx="82.00" cy="50.00" r="3.2" fill="#1769aa" fill-opacity="0.90"/>
<circle cx="168.40" cy="50.00" r="3.2" fill="#1769aa" fill-opacity="0.90"/>
<circle cx="254.80" cy="197.60" r="3.2" fill="#1769aa" fill-opacity="0.90"/>
<circle cx="341.20" cy="480.50" r="3.2" fill="#1769aa" fill-opacity="0.90"/>
<circle cx="427.60" cy="542.00" r="3.2" fill="#1769aa" fill-opacity="0.90"/>
<circle cx="514.00" cy="542.00" r="3.2" fill="#1769aa" fill-opacity="0.90"/>
<circle cx="600.40" cy="542.00" r="3.2" fill="#1769aa" fill-opacity="0.90"/>
<circle cx="686.80" cy="542.00" r="3.2" fill="#1769aa" fill-opacity="0.90"/>
<circle cx="773.20" cy="542.00" r="3.2" fill="#1769aa" fill-opacity="0.90"/>
<circle cx="859.60" cy="542.00" r="3.2" fill="#1769aa" fill-opacity="0.90"/>
<circle cx="946.00" cy="542.00" r="3.2" fill="#1769aa" fill-opacity="0.90"/>
<polyline points="82.00,50.00 168.40,50.00 254.80,50.00 341.20,60.25 427.60,330.85 514.00,517.40 600.40,542.00 686.80,542.00 773.20,542.00 859.60,542.00 946.00,542.00 " fill="none" stroke="#c2410c" stroke-width="3"/>
<circle cx="82.00" cy="50.00" r="3.2" fill="#c2410c" fill-opacity="0.90"/>
<circle cx="168.40" cy="50.00" r="3.2" fill="#c2410c" fill-opacity="0.90"/>
<circle cx="254.80" cy="50.00" r="3.2" fill="#c2410c" fill-opacity="0.90"/>
<circle cx="341.20" cy="60.25" r="3.2" fill="#c2410c" fill-opacity="0.90"/>
<circle cx="427.60" cy="330.85" r="3.2" fill="#c2410c" fill-opacity="0.90"/>
<circle cx="514.00" cy="517.40" r="3.2" fill="#c2410c" fill-opacity="0.90"/>
<circle cx="600.40" cy="542.00" r="3.2" fill="#c2410c" fill-opacity="0.90"/>
<circle cx="686.80" cy="542.00" r="3.2" fill="#c2410c" fill-opacity="0.90"/>
<circle cx="773.20" cy="542.00" r="3.2" fill="#c2410c" fill-opacity="0.90"/>
<circle cx="859.60" cy="542.00" r="3.2" fill="#c2410c" fill-opacity="0.90"/>
<circle cx="946.00" cy="542.00" r="3.2" fill="#c2410c" fill-opacity="0.90"/>
<polyline points="82.00,50.00 168.40,50.00 254.80,50.00 341.20,50.00 427.60,68.45 514.00,357.50 600.40,529.70 686.80,542.00 773.20,542.00 859.60,542.00 946.00,542.00 " fill="none" stroke="#2f855a" stroke-width="3"/>
<circle cx="82.00" cy="50.00" r="3.2" fill="#2f855a" fill-opacity="0.90"/>
<circle cx="168.40" cy="50.00" r="3.2" fill="#2f855a" fill-opacity="0.90"/>
<circle cx="254.80" cy="50.00" r="3.2" fill="#2f855a" fill-opacity="0.90"/>
<circle cx="341.20" cy="50.00" r="3.2" fill="#2f855a" fill-opacity="0.90"/>
<circle cx="427.60" cy="68.45" r="3.2" fill="#2f855a" fill-opacity="0.90"/>
<circle cx="514.00" cy="357.50" r="3.2" fill="#2f855a" fill-opacity="0.90"/>
<circle cx="600.40" cy="529.70" r="3.2" fill="#2f855a" fill-opacity="0.90"/>
<circle cx="686.80" cy="542.00" r="3.2" fill="#2f855a" fill-opacity="0.90"/>
<circle cx="773.20" cy="542.00" r="3.2" fill="#2f855a" fill-opacity="0.90"/>
<circle cx="859.60" cy="542.00" r="3.2" fill="#2f855a" fill-opacity="0.90"/>
<circle cx="946.00" cy="542.00" r="3.2" fill="#2f855a" fill-opacity="0.90"/>
<polyline points="82.00,56.15 168.40,326.75 254.80,507.15 341.20,539.95 427.60,542.00 514.00,542.00 600.40,542.00 686.80,542.00 773.20,542.00 859.60,542.00 946.00,542.00 " fill="none" stroke="#1769aa" stroke-width="3" stroke-dasharray="7 5"/>
<circle cx="82.00" cy="56.15" r="3.2" fill="#1769aa" fill-opacity="0.55"/>
<circle cx="168.40" cy="326.75" r="3.2" fill="#1769aa" fill-opacity="0.55"/>
<circle cx="254.80" cy="507.15" r="3.2" fill="#1769aa" fill-opacity="0.55"/>
<circle cx="341.20" cy="539.95" r="3.2" fill="#1769aa" fill-opacity="0.55"/>
<circle cx="427.60" cy="542.00" r="3.2" fill="#1769aa" fill-opacity="0.55"/>
<circle cx="514.00" cy="542.00" r="3.2" fill="#1769aa" fill-opacity="0.55"/>
<circle cx="600.40" cy="542.00" r="3.2" fill="#1769aa" fill-opacity="0.55"/>
<circle cx="686.80" cy="542.00" r="3.2" fill="#1769aa" fill-opacity="0.55"/>
<circle cx="773.20" cy="542.00" r="3.2" fill="#1769aa" fill-opacity="0.55"/>
<circle cx="859.60" cy="542.00" r="3.2" fill="#1769aa" fill-opacity="0.55"/>
<circle cx="946.00" cy="542.00" r="3.2" fill="#1769aa" fill-opacity="0.55"/>
<polyline points="82.00,50.00 168.40,50.00 254.80,91.00 341.20,402.60 427.60,539.95 514.00,542.00 600.40,542.00 686.80,542.00 773.20,542.00 859.60,542.00 946.00,542.00 " fill="none" stroke="#c2410c" stroke-width="3" stroke-dasharray="7 5"/>
<circle cx="82.00" cy="50.00" r="3.2" fill="#c2410c" fill-opacity="0.55"/>
<circle cx="168.40" cy="50.00" r="3.2" fill="#c2410c" fill-opacity="0.55"/>
<circle cx="254.80" cy="91.00" r="3.2" fill="#c2410c" fill-opacity="0.55"/>
<circle cx="341.20" cy="402.60" r="3.2" fill="#c2410c" fill-opacity="0.55"/>
<circle cx="427.60" cy="539.95" r="3.2" fill="#c2410c" fill-opacity="0.55"/>
<circle cx="514.00" cy="542.00" r="3.2" fill="#c2410c" fill-opacity="0.55"/>
<circle cx="600.40" cy="542.00" r="3.2" fill="#c2410c" fill-opacity="0.55"/>
<circle cx="686.80" cy="542.00" r="3.2" fill="#c2410c" fill-opacity="0.55"/>
<circle cx="773.20" cy="542.00" r="3.2" fill="#c2410c" fill-opacity="0.55"/>
<circle cx="859.60" cy="542.00" r="3.2" fill="#c2410c" fill-opacity="0.55"/>
<circle cx="946.00" cy="542.00" r="3.2" fill="#c2410c" fill-opacity="0.55"/>
<polyline points="82.00,50.00 168.40,50.00 254.80,50.00 341.20,113.55 427.60,447.70 514.00,525.60 600.40,542.00 686.80,542.00 773.20,542.00 859.60,542.00 946.00,542.00 " fill="none" stroke="#2f855a" stroke-width="3" stroke-dasharray="7 5"/>
<circle cx="82.00" cy="50.00" r="3.2" fill="#2f855a" fill-opacity="0.55"/>
<circle cx="168.40" cy="50.00" r="3.2" fill="#2f855a" fill-opacity="0.55"/>
<circle cx="254.80" cy="50.00" r="3.2" fill="#2f855a" fill-opacity="0.55"/>
<circle cx="341.20" cy="113.55" r="3.2" fill="#2f855a" fill-opacity="0.55"/>
<circle cx="427.60" cy="447.70" r="3.2" fill="#2f855a" fill-opacity="0.55"/>
<circle cx="514.00" cy="525.60" r="3.2" fill="#2f855a" fill-opacity="0.55"/>
<circle cx="600.40" cy="542.00" r="3.2" fill="#2f855a" fill-opacity="0.55"/>
<circle cx="686.80" cy="542.00" r="3.2" fill="#2f855a" fill-opacity="0.55"/>
<circle cx="773.20" cy="542.00" r="3.2" fill="#2f855a" fill-opacity="0.55"/>
<circle cx="859.60" cy="542.00" r="3.2" fill="#2f855a" fill-opacity="0.55"/>
<circle cx="946.00" cy="542.00" r="3.2" fill="#2f855a" fill-opacity="0.55"/>
<rect x="720" y="54" width="214" height="164" fill="#fff" stroke="#ccc"/>
<line x1="732" y1="72" x2="764" y2="72" stroke="#1769aa" stroke-width="3"/><text x="774" y="76" font-family="sans-serif" font-size="13">FEC 1/2</text>
<line x1="732" y1="97" x2="764" y2="97" stroke="#c2410c" stroke-width="3"/><text x="774" y="101" font-family="sans-serif" font-size="13">FEC 2/3</text>
<line x1="732" y1="122" x2="764" y2="122" stroke="#2f855a" stroke-width="3"/><text x="774" y="126" font-family="sans-serif" font-size="13">FEC 3/4</text>
<line x1="732" y1="154" x2="764" y2="154" stroke="#333" stroke-width="3"/><text x="774" y="158" font-family="sans-serif" font-size="13">SR 333k</text>
<line x1="732" y1="179" x2="764" y2="179" stroke="#333" stroke-width="3" stroke-dasharray="7 5"/><text x="774" y="183" font-family="sans-serif" font-size="13">SR 250k</text>
<text x="82" y="596" font-family="sans-serif" font-size="11" fill="#555">Constant transmit power and N0. Es/N0 = C/N + 10log10(B/Rs); CSV includes Es/N0 and Eb/N0.</text>
</svg>
