<?xml version="1.0" encoding="UTF-8"?>
<svg xmlns="http://www.w3.org/2000/svg" width="980" height="620" viewBox="0 0 980 620">
<rect width="100%" height="100%" fill="#ffffff"/>
<text x="490" y="25" text-anchor="middle" font-family="sans-serif" font-size="18" font-weight="700">DVB-T QPSK packet error vs SNR</text>
<rect x="82" y="50" width="864" height="492" fill="#fbfbfb" stroke="#222" stroke-width="1"/>
<line x1="82.00" y1="542.00" x2="946.00" y2="542.00" stroke="#e1e1e1" stroke-width="1"/>
<text x="72.00" y="546.00" text-anchor="end" font-family="sans-serif" font-size="12">0%</text>
<line x1="82.00" y1="492.80" x2="946.00" y2="492.80" stroke="#e1e1e1" stroke-width="1"/>
<text x="72.00" y="496.80" text-anchor="end" font-family="sans-serif" font-size="12">10%</text>
<line x1="82.00" y1="443.60" x2="946.00" y2="443.60" stroke="#e1e1e1" stroke-width="1"/>
<text x="72.00" y="447.60" text-anchor="end" font-family="sans-serif" font-size="12">20%</text>
<line x1="82.00" y1="394.40" x2="946.00" y2="394.40" stroke="#e1e1e1" stroke-width="1"/>
<text x="72.00" y="398.40" text-anchor="end" font-family="sans-serif" font-size="12">30%</text>
<line x1="82.00" y1="345.20" x2="946.00" y2="345.20" stroke="#e1e1e1" stroke-width="1"/>
<text x="72.00" y="349.20" text-anchor="end" font-family="sans-serif" font-size="12">40%</text>
<line x1="82.00" y1="296.00" x2="946.00" y2="296.00" stroke="#e1e1e1" stroke-width="1"/>
<text x="72.00" y="300.00" text-anchor="end" font-family="sans-serif" font-size="12">50%</text>
<line x1="82.00" y1="246.80" x2="946.00" y2="246.80" stroke="#e1e1e1" stroke-width="1"/>
<text x="72.00" y="250.80" text-anchor="end" font-family="sans-serif" font-size="12">60%</text>
<line x1="82.00" y1="197.60" x2="946.00" y2="197.60" stroke="#e1e1e1" stroke-width="1"/>
<text x="72.00" y="201.60" text-anchor="end" font-family="sans-serif" font-size="12">70%</text>
<line x1="82.00" y1="148.40" x2="946.00" y2="148.40" stroke="#e1e1e1" stroke-width="1"/>
<text x="72.00" y="152.40" text-anchor="end" font-family="sans-serif" font-size="12">80%</text>
<line x1="82.00" y1="99.20" x2="946.00" y2="99.20" stroke="#e1e1e1" stroke-width="1"/>
<text x="72.00" y="103.20" text-anchor="end" font-family="sans-serif" font-size="12">90%</text>
<line x1="82.00" y1="50.00" x2="946.00" y2="50.00" stroke="#e1e1e1" stroke-width="1"/>
<text x="72.00" y="54.00" text-anchor="end" font-family="sans-serif" font-size="12">100%</text>
<line x1="82.00" y1="50.00" x2="82.00" y2="542.00" stroke="#ececec" stroke-width="1"/>
<text x="82.00" y="566.00" text-anchor="middle" font-family="sans-serif" font-size="12">0</text>
<line x1="190.00" y1="50.00" x2="190.00" y2="542.00" stroke="#ececec" stroke-width="1"/>
<text x="190.00" y="566.00" text-anchor="middle" font-family="sans-serif" font-size="12">2</text>
<line x1="298.00" y1="50.00" x2="298.00" y2="542.00" stroke="#ececec" stroke-width="1"/>
<text x="298.00" y="566.00" text-anchor="middle" font-family="sans-serif" font-size="12">4</text>
<line x1="406.00" y1="50.00" x2="406.00" y2="542.00" stroke="#ececec" stroke-width="1"/>
<text x="406.00" y="566.00" text-anchor="middle" font-family="sans-serif" font-size="12">6</text>
<line x1="514.00" y1="50.00" x2="514.00" y2="542.00" stroke="#ececec" stroke-width="1"/>
<text x="514.00" y="566.00" text-anchor="middle" font-family="sans-serif" font-size="12">8</text>
<line x1="622.00" y1="50.00" x2="622.00" y2="542.00" stroke="#ececec" stroke-width="1"/>
<text x="622.00" y="566.00" text-anchor="middle" font-family="sans-serif" font-size="12">10</text>
<line x1="730.00" y1="50.00" x2="730.00" y2="542.00" stroke="#ececec" stroke-width="1"/>
<text x="730.00" y="566.00" text-anchor="middle" font-family="sans-serif" font-size="12">12</text>
<line x1="838.00" y1="50.00" x2="838.00" y2="542.00" stroke="#ececec" stroke-width="1"/>
<text x="838.00" y="566.00" text-anchor="middle" font-family="sans-serif" font-size="12">14</text>
<line x1="946.00" y1="50.00" x2="946.00" y2="542.00" stroke="#ececec" stroke-width="1"/>
<text x="946.00" y="566.00" text-anchor="middle" font-family="sans-serif" font-size="12">16</text>
<text x="514" y="596" text-anchor="middle" font-family="sans-serif" font-size="14">SNR (dB)</text>
<text x="23" y="296" text-anchor="middle" font-family="sans-serif" font-size="14" transform="rotate(-90 23 296)">packet error percentage</text>
<polyline points="82.00,50.00 136.00,50.00 190.00,197.60 244.00,480.50 298.00,542.00 352.00,542.00 406.00,542.00 460.00,542.00 514.00,542.00 568.00,542.00 622.00,542.00 676.00,542.00 730.00,542.00 784.00,542.00 838.00,542.00 892.00,542.00 946.00,542.00 " fill="none" stroke="#1769aa" stroke-width="3"/>
<circle cx="82.00" cy="50.00" r="3.5" fill="#1769aa"/>
<circle cx="136.00" cy="50.00" r="3.5" fill="#1769aa"/>
<circle cx="190.00" cy="197.60" r="3.5" fill="#1769aa"/>
<circle cx="244.00" cy="480.50" r="3.5" fill="#1769aa"/>
<circle cx="298.00" cy="542.00" r="3.5" fill="#1769aa"/>
<circle cx="352.00" cy="542.00" r="3.5" fill="#1769aa"/>
<circle cx="406.00" cy="542.00" r="3.5" fill="#1769aa"/>
<circle cx="460.00" cy="542.00" r="3.5" fill="#1769aa"/>
<circle cx="514.00" cy="542.00" r="3.5" fill="#1769aa"/>
<circle cx="568.00" cy="542.00" r="3.5" fill="#1769aa"/>
<circle cx="622.00" cy="542.00" r="3.5" fill="#1769aa"/>
<circle cx="676.00" cy="542.00" r="3.5" fill="#1769aa"/>
<circle cx="730.00" cy="542.00" r="3.5" fill="#1769aa"/>
<circle cx="784.00" cy="542.00" r="3.5" fill="#1769aa"/>
<circle cx="838.00" cy="542.00" r="3.5" fill="#1769aa"/>
<circle cx="892.00" cy="542.00" r="3.5" fill="#1769aa"/>
<circle cx="946.00" cy="542.00" r="3.5" fill="#1769aa"/>
<polyline points="82.00,50.00 136.00,50.00 190.00,50.00 244.00,60.25 298.00,330.85 352.00,517.40 406.00,542.00 460.00,542.00 514.00,542.00 568.00,542.00 622.00,542.00 676.00,542.00 730.00,542.00 784.00,542.00 838.00,542.00 892.00,542.00 946.00,542.00 " fill="none" stroke="#c2410c" stroke-width="3"/>
<circle cx="82.00" cy="50.00" r="3.5" fill="#c2410c"/>
<circle cx="136.00" cy="50.00" r="3.5" fill="#c2410c"/>
<circle cx="190.00" cy="50.00" r="3.5" fill="#c2410c"/>
<circle cx="244.00" cy="60.25" r="3.5" fill="#c2410c"/>
<circle cx="298.00" cy="330.85" r="3.5" fill="#c2410c"/>
<circle cx="352.00" cy="517.40" r="3.5" fill="#c2410c"/>
<circle cx="406.00" cy="542.00" r="3.5" fill="#c2410c"/>
<circle cx="460.00" cy="542.00" r="3.5" fill="#c2410c"/>
<circle cx="514.00" cy="542.00" r="3.5" fill="#c2410c"/>
<circle cx="568.00" cy="542.00" r="3.5" fill="#c2410c"/>
<circle cx="622.00" cy="542.00" r="3.5" fill="#c2410c"/>
<circle cx="676.00" cy="542.00" r="3.5" fill="#c2410c"/>
<circle cx="730.00" cy="542.00" r="3.5" fill="#c2410c"/>
<circle cx="784.00" cy="542.00" r="3.5" fill="#c2410c"/>
<circle cx="838.00" cy="542.00" r="3.5" fill="#c2410c"/>
<circle cx="892.00" cy="542.00" r="3.5" fill="#c2410c"/>
<circle cx="946.00" cy="542.00" r="3.5" fill="#c2410c"/>
<rect x="784" y="54" width="150" height="62" fill="#fff" stroke="#ccc"/>
<line x1="796" y1="70" x2="828" y2="70" stroke="#1769aa" stroke-width="3"/><text x="838" y="74" font-family="sans-serif" font-size="13">FEC 1/2</text>
<line x1="796" y1="95" x2="828" y2="95" stroke="#c2410c" stroke-width="3"/><text x="838" y="99" font-family="sans-serif" font-size="13">FEC 2/3</text>
<text x="82" y="596" font-family="sans-serif" font-size="11" fill="#555">Monte Carlo inner-FEC simulation; packet is correct only when all 188-byte packet bits match after Viterbi.</text>
</svg>
