<?xml version="1.0" encoding="UTF-8"?>
<svg xmlns="http://www.w3.org/2000/svg" width="900" height="420" viewBox="0 0 900 420">
<rect width="900" height="420" fill="#111"/>
<line x1="40" y1="360" x2="860" y2="360" stroke="#555" stroke-width="1"/>
<line x1="450" y1="36" x2="450" y2="370" stroke="#333" stroke-width="1"/>
<line x1="40.00" y1="360" x2="40.00" y2="124.96" stroke="#7aa7ff" stroke-width="1"/>
<circle cx="40.00" cy="124.70" r="1.5" fill="#ffcc66" fill-opacity="0.65"/>
<line x1="44.27" y1="360" x2="44.27" y2="170.02" stroke="#7aa7ff" stroke-width="1"/>
<circle cx="44.27" cy="205.92" r="1.5" fill="#ffcc66" fill-opacity="0.65"/>
<line x1="48.54" y1="360" x2="48.54" y2="174.53" stroke="#7aa7ff" stroke-width="1"/>
<circle cx="48.54" cy="193.98" r="1.5" fill="#ffcc66" fill-opacity="0.65"/>
<line x1="52.81" y1="360" x2="52.81" y2="166.22" stroke="#7aa7ff" stroke-width="1"/>
<circle cx="52.81" cy="169.87" r="1.5" fill="#ffcc66" fill-opacity="0.65"/>
<line x1="57.08" y1="360" x2="57.08" y2="176.85" stroke="#7aa7ff" stroke-width="1"/>
<circle cx="57.08" cy="254.09" r="1.5" fill="#ffcc66" fill-opacity="0.65"/>
<line x1="61.35" y1="360" x2="61.35" y2="220.06" stroke="#7aa7ff" stroke-width="1"/>
<circle cx="61.35" cy="168.29" r="1.5" fill="#ffcc66" fill-opacity="0.65"/>
<line x1="65.62" y1="360" x2="65.62" y2="255.29" stroke="#7aa7ff" stroke-width="1"/>
<circle cx="65.62" cy="140.29" r="1.5" fill="#ffcc66" fill-opacity="0.65"/>
<line x1="69.90" y1="360" x2="69.90" y2="260.34" stroke="#7aa7ff" stroke-width="1"/>
<circle cx="69.90" cy="179.94" r="1.5" fill="#ffcc66" fill-opacity="0.65"/>
<line x1="74.17" y1="360" x2="74.17" y2="259.12" stroke="#7aa7ff" stroke-width="1"/>
<circle cx="74.17" cy="293.73" r="1.5" fill="#ffcc66" fill-opacity="0.65"/>
<line x1="78.44" y1="360" x2="78.44" y2="234.49" stroke="#7aa7ff" stroke-width="1"/>
<circle cx="78.44" cy="303.20" r="1.5" fill="#ffcc66" fill-opacity="0.65"/>
<line x1="82.71" y1="360" x2="82.71" y2="173.19" stroke="#7aa7ff" stroke-width="1"/>
<circle cx="82.71" cy="225.97" r="1.5" fill="#ffcc66" fill-opacity="0.65"/>
<line x1="86.98" y1="360" x2="86.98" y2="120.94" stroke="#7aa7ff" stroke-width="1"/>
<circle cx="86.98" cy="198.13" r="1.5" fill="#ffcc66" fill-opacity="0.65"/>
<line x1="91.25" y1="360" x2="91.25" y2="104.88" stroke="#7aa7ff" stroke-width="1"/>
<circle cx="91.25" cy="185.44" r="1.5" fill="#ffcc66" fill-opacity="0.65"/>
<line x1="95.52" y1="360" x2="95.52" y2="101.34" stroke="#7aa7ff" stroke-width="1"/>
<circle cx="95.52" cy="333.42" r="1.5" fill="#ffcc66" fill-opacity="0.65"/>
<line x1="99.79" y1="360" x2="99.79" y2="87.30" stroke="#7aa7ff" stroke-width="1"/>
<circle cx="99.79" cy="253.12" r="1.5" fill="#ffcc66" fill-opacity="0.65"/>
<line x1="104.06" y1="360" x2="104.06" y2="90.78" stroke="#7aa7ff" stroke-width="1"/>
<circle cx="104.06" cy="242.99" r="1.5" fill="#ffcc66" fill-opacity="0.65"/>
<line x1="108.33" y1="360" x2="108.33" y2="122.50" stroke="#7aa7ff" stroke-width="1"/>
<circle cx="108.33" cy="168.11" r="1.5" fill="#ffcc66" fill-opacity="0.65"/>
<line x1="112.60" y1="360" x2="112.60" y2="151.03" stroke="#7aa7ff" stroke-width="1"/>
<circle cx="112.60" cy="299.15" r="1.5" fill="#ffcc66" fill-opacity="0.65"/>
<line x1="116.88" y1="360" x2="116.88" y2="160.80" stroke="#7aa7ff" stroke-width="1"/>
<circle cx="116.88" cy="260.28" r="1.5" fill="#ffcc66" fill-opacity="0.65"/>
<line x1="121.15" y1="360" x2="121.15" y2="153.42" stroke="#7aa7ff" stroke-width="1"/>
<circle cx="121.15" cy="118.65" r="1.5" fill="#ffcc66" fill-opacity="0.65"/>
<line x1="125.42" y1="360" x2="125.42" y2="124.70" stroke="#7aa7ff" stroke-width="1"/>
<circle cx="125.42" cy="242.78" r="1.5" fill="#ffcc66" fill-opacity="0.65"/>
<line x1="129.69" y1="360" x2="129.69" y2="73.72" stroke="#7aa7ff" stroke-width="1"/>
<circle cx="129.69" cy="235.43" r="1.5" fill="#ffcc66" fill-opacity="0.65"/>
<line x1="133.96" y1="360" x2="133.96" y2="60.00" stroke="#7aa7ff" stroke-width="1"/>
<circle cx="133.96" cy="149.52" r="1.5" fill="#ffcc66" fill-opacity="0.65"/>
<line x1="138.23" y1="360" x2="138.23" y2="96.38" stroke="#7aa7ff" stroke-width="1"/>
<circle cx="138.23" cy="309.43" r="1.5" fill="#ffcc66" fill-opacity="0.65"/>
<line x1="142.50" y1="360" x2="142.50" y2="143.94" stroke="#7aa7ff" stroke-width="1"/>
<circle cx="142.50" cy="309.15" r="1.5" fill="#ffcc66" fill-opacity="0.65"/>
<line x1="146.77" y1="360" x2="146.77" y2="169.39" stroke="#7aa7ff" stroke-width="1"/>
<circle cx="146.77" cy="250.10" r="1.5" fill="#ffcc66" fill-opacity="0.65"/>
<line x1="151.04" y1="360" x2="151.04" y2="200.23" stroke="#7aa7ff" stroke-width="1"/>
<circle cx="151.04" cy="283.08" r="1.5" fill="#ffcc66" fill-opacity="0.65"/>
<line x1="155.31" y1="360" x2="155.31" y2="218.39" stroke="#7aa7ff" stroke-width="1"/>
<circle cx="155.31" cy="244.23" r="1.5" fill="#ffcc66" fill-opacity="0.65"/>
<line x1="159.58" y1="360" x2="159.58" y2="209.05" stroke="#7aa7ff" stroke-width="1"/>
<circle cx="159.58" cy="197.65" r="1.5" fill="#ffcc66" fill-opacity="0.65"/>
<line x1="163.85" y1="360" x2="163.85" y2="190.93" stroke="#7aa7ff" stroke-width="1"/>
<circle cx="163.85" cy="259.69" r="1.5" fill="#ffcc66" fill-opacity="0.65"/>
<line x1="168.12" y1="360" x2="168.12" y2="161.62" stroke="#7aa7ff" stroke-width="1"/>
<circle cx="168.12" cy="273.42" r="1.5" fill="#ffcc66" fill-opacity="0.65"/>
<line x1="172.40" y1="360" x2="172.40" y2="157.88" stroke="#7aa7ff" stroke-width="1"/>
<circle cx="172.40" cy="226.11" r="1.5" fill="#ffcc66" fill-opacity="0.65"/>
<line x1="176.67" y1="360" x2="176.67" y2="179.41" stroke="#7aa7ff" stroke-width="1"/>
<circle cx="176.67" cy="245.08" r="1.5" fill="#ffcc66" fill-opacity="0.65"/>
<line x1="180.94" y1="360" x2="180.94" y2="188.71" stroke="#7aa7ff" stroke-width="1"/>
<circle cx="180.94" cy="224.58" r="1.5" fill="#ffcc66" fill-opacity="0.65"/>
<line x1="185.21" y1="360" x2="185.21" y2="179.10" stroke="#7aa7ff" stroke-width="1"/>
<circle cx="185.21" cy="250.95" r="1.5" fill="#ffcc66" fill-opacity="0.65"/>
<line x1="189.48" y1="360" x2="189.48" y2="160.90" stroke="#7aa7ff" stroke-width="1"/>
<circle cx="189.48" cy="193.80" r="1.5" fill="#ffcc66" fill-opacity="0.65"/>
<line x1="193.75" y1="360" x2="193.75" y2="136.40" stroke="#7aa7ff" stroke-width="1"/>
<circle cx="193.75" cy="263.78" r="1.5" fill="#ffcc66" fill-opacity="0.65"/>
<line x1="198.02" y1="360" x2="198.02" y2="109.76" stroke="#7aa7ff" stroke-width="1"/>
<circle cx="198.02" cy="218.07" r="1.5" fill="#ffcc66" fill-opacity="0.65"/>
<line x1="202.29" y1="360" x2="202.29" y2="70.23" stroke="#7aa7ff" stroke-width="1"/>
<circle cx="202.29" cy="215.50" r="1.5" fill="#ffcc66" fill-opacity="0.65"/>
<line x1="206.56" y1="360" x2="206.56" y2="80.75" stroke="#7aa7ff" stroke-width="1"/>
<circle cx="206.56" cy="96.04" r="1.5" fill="#ffcc66" fill-opacity="0.65"/>
<line x1="210.83" y1="360" x2="210.83" y2="102.77" stroke="#7aa7ff" stroke-width="1"/>
<circle cx="210.83" cy="231.35" r="1.5" fill="#ffcc66" fill-opacity="0.65"/>
<line x1="215.10" y1="360" x2="215.10" y2="129.44" stroke="#7aa7ff" stroke-width="1"/>
<circle cx="215.10" cy="144.14" r="1.5" fill="#ffcc66" fill-opacity="0.65"/>
<line x1="219.38" y1="360" x2="219.38" y2="152.08" stroke="#7aa7ff" stroke-width="1"/>
<circle cx="219.38" cy="242.84" r="1.5" fill="#ffcc66" fill-opacity="0.65"/>
<line x1="223.65" y1="360" x2="223.65" y2="183.63" stroke="#7aa7ff" stroke-width="1"/>
<circle cx="223.65" cy="279.23" r="1.5" fill="#ffcc66" fill-opacity="0.65"/>
<line x1="227.92" y1="360" x2="227.92" y2="172.02" stroke="#7aa7ff" stroke-width="1"/>
<circle cx="227.92" cy="226.70" r="1.5" fill="#ffcc66" fill-opacity="0.65"/>
<line x1="232.19" y1="360" x2="232.19" y2="169.98" stroke="#7aa7ff" stroke-width="1"/>
<circle cx="232.19" cy="358.62" r="1.5" fill="#ffcc66" fill-opacity="0.65"/>
<line x1="236.46" y1="360" x2="236.46" y2="188.28" stroke="#7aa7ff" stroke-width="1"/>
<circle cx="236.46" cy="258.87" r="1.5" fill="#ffcc66" fill-opacity="0.65"/>
<line x1="240.73" y1="360" x2="240.73" y2="185.92" stroke="#7aa7ff" stroke-width="1"/>
<circle cx="240.73" cy="265.06" r="1.5" fill="#ffcc66" fill-opacity="0.65"/>
<line x1="245.00" y1="360" x2="245.00" y2="169.71" stroke="#7aa7ff" stroke-width="1"/>
<circle cx="245.00" cy="262.56" r="1.5" fill="#ffcc66" fill-opacity="0.65"/>
<line x1="249.27" y1="360" x2="249.27" y2="159.23" stroke="#7aa7ff" stroke-width="1"/>
<circle cx="249.27" cy="274.90" r="1.5" fill="#ffcc66" fill-opacity="0.65"/>
<line x1="253.54" y1="360" x2="253.54" y2="164.78" stroke="#7aa7ff" stroke-width="1"/>
<circle cx="253.54" cy="135.91" r="1.5" fill="#ffcc66" fill-opacity="0.65"/>
<line x1="257.81" y1="360" x2="257.81" y2="177.33" stroke="#7aa7ff" stroke-width="1"/>
<circle cx="257.81" cy="282.34" r="1.5" fill="#ffcc66" fill-opacity="0.65"/>
<line x1="262.08" y1="360" x2="262.08" y2="179.16" stroke="#7aa7ff" stroke-width="1"/>
<circle cx="262.08" cy="294.95" r="1.5" fill="#ffcc66" fill-opacity="0.65"/>
<line x1="266.35" y1="360" x2="266.35" y2="149.71" stroke="#7aa7ff" stroke-width="1"/>
<circle cx="266.35" cy="160.32" r="1.5" fill="#ffcc66" fill-opacity="0.65"/>
<line x1="270.62" y1="360" x2="270.62" y2="130.99" stroke="#7aa7ff" stroke-width="1"/>
<circle cx="270.62" cy="210.53" r="1.5" fill="#ffcc66" fill-opacity="0.65"/>
<line x1="274.90" y1="360" x2="274.90" y2="102.83" stroke="#7aa7ff" stroke-width="1"/>
<circle cx="274.90" cy="256.21" r="1.5" fill="#ffcc66" fill-opacity="0.65"/>
<line x1="279.17" y1="360" x2="279.17" y2="89.60" stroke="#7aa7ff" stroke-width="1"/>
<circle cx="279.17" cy="292.22" r="1.5" fill="#ffcc66" fill-opacity="0.65"/>
<line x1="283.44" y1="360" x2="283.44" y2="110.80" stroke="#7aa7ff" stroke-width="1"/>
<circle cx="283.44" cy="296.27" r="1.5" fill="#ffcc66" fill-opacity="0.65"/>
<line x1="287.71" y1="360" x2="287.71" y2="138.76" stroke="#7aa7ff" stroke-width="1"/>
<circle cx="287.71" cy="287.71" r="1.5" fill="#ffcc66" fill-opacity="0.65"/>
<line x1="291.98" y1="360" x2="291.98" y2="158.46" stroke="#7aa7ff" stroke-width="1"/>
<circle cx="291.98" cy="197.77" r="1.5" fill="#ffcc66" fill-opacity="0.65"/>
<line x1="296.25" y1="360" x2="296.25" y2="178.00" stroke="#7aa7ff" stroke-width="1"/>
<circle cx="296.25" cy="215.54" r="1.5" fill="#ffcc66" fill-opacity="0.65"/>
<line x1="300.52" y1="360" x2="300.52" y2="211.97" stroke="#7aa7ff" stroke-width="1"/>
<circle cx="300.52" cy="238.47" r="1.5" fill="#ffcc66" fill-opacity="0.65"/>
<line x1="304.79" y1="360" x2="304.79" y2="255.34" stroke="#7aa7ff" stroke-width="1"/>
<circle cx="304.79" cy="267.85" r="1.5" fill="#ffcc66" fill-opacity="0.65"/>
<line x1="309.06" y1="360" x2="309.06" y2="274.00" stroke="#7aa7ff" stroke-width="1"/>
<circle cx="309.06" cy="141.95" r="1.5" fill="#ffcc66" fill-opacity="0.65"/>
<line x1="313.33" y1="360" x2="313.33" y2="292.63" stroke="#7aa7ff" stroke-width="1"/>
<circle cx="313.33" cy="128.42" r="1.5" fill="#ffcc66" fill-opacity="0.65"/>
<line x1="317.60" y1="360" x2="317.60" y2="318.46" stroke="#7aa7ff" stroke-width="1"/>
<circle cx="317.60" cy="131.89" r="1.5" fill="#ffcc66" fill-opacity="0.65"/>
<line x1="321.88" y1="360" x2="321.88" y2="330.62" stroke="#7aa7ff" stroke-width="1"/>
<circle cx="321.88" cy="215.06" r="1.5" fill="#ffcc66" fill-opacity="0.65"/>
<line x1="326.15" y1="360" x2="326.15" y2="291.63" stroke="#7aa7ff" stroke-width="1"/>
<circle cx="326.15" cy="248.29" r="1.5" fill="#ffcc66" fill-opacity="0.65"/>
<line x1="330.42" y1="360" x2="330.42" y2="256.85" stroke="#7aa7ff" stroke-width="1"/>
<circle cx="330.42" cy="60.00" r="1.5" fill="#ffcc66" fill-opacity="0.65"/>
<line x1="334.69" y1="360" x2="334.69" y2="211.36" stroke="#7aa7ff" stroke-width="1"/>
<circle cx="334.69" cy="153.88" r="1.5" fill="#ffcc66" fill-opacity="0.65"/>
<line x1="338.96" y1="360" x2="338.96" y2="172.88" stroke="#7aa7ff" stroke-width="1"/>
<circle cx="338.96" cy="223.70" r="1.5" fill="#ffcc66" fill-opacity="0.65"/>
<line x1="343.23" y1="360" x2="343.23" y2="139.64" stroke="#7aa7ff" stroke-width="1"/>
<circle cx="343.23" cy="304.62" r="1.5" fill="#ffcc66" fill-opacity="0.65"/>
<line x1="347.50" y1="360" x2="347.50" y2="130.94" stroke="#7aa7ff" stroke-width="1"/>
<circle cx="347.50" cy="270.85" r="1.5" fill="#ffcc66" fill-opacity="0.65"/>
<line x1="351.77" y1="360" x2="351.77" y2="160.16" stroke="#7aa7ff" stroke-width="1"/>
<circle cx="351.77" cy="207.75" r="1.5" fill="#ffcc66" fill-opacity="0.65"/>
<line x1="356.04" y1="360" x2="356.04" y2="197.17" stroke="#7aa7ff" stroke-width="1"/>
<circle cx="356.04" cy="243.03" r="1.5" fill="#ffcc66" fill-opacity="0.65"/>
<line x1="360.31" y1="360" x2="360.31" y2="221.30" stroke="#7aa7ff" stroke-width="1"/>
<circle cx="360.31" cy="163.32" r="1.5" fill="#ffcc66" fill-opacity="0.65"/>
<line x1="364.58" y1="360" x2="364.58" y2="208.45" stroke="#7aa7ff" stroke-width="1"/>
<circle cx="364.58" cy="325.95" r="1.5" fill="#ffcc66" fill-opacity="0.65"/>
<line x1="368.85" y1="360" x2="368.85" y2="203.79" stroke="#7aa7ff" stroke-width="1"/>
<circle cx="368.85" cy="250.87" r="1.5" fill="#ffcc66" fill-opacity="0.65"/>
<line x1="373.12" y1="360" x2="373.12" y2="236.15" stroke="#7aa7ff" stroke-width="1"/>
<circle cx="373.12" cy="185.73" r="1.5" fill="#ffcc66" fill-opacity="0.65"/>
<line x1="377.40" y1="360" x2="377.40" y2="241.21" stroke="#7aa7ff" stroke-width="1"/>
<circle cx="377.40" cy="135.07" r="1.5" fill="#ffcc66" fill-opacity="0.65"/>
<line x1="381.67" y1="360" x2="381.67" y2="230.73" stroke="#7aa7ff" stroke-width="1"/>
<circle cx="381.67" cy="223.30" r="1.5" fill="#ffcc66" fill-opacity="0.65"/>
<line x1="385.94" y1="360" x2="385.94" y2="234.61" stroke="#7aa7ff" stroke-width="1"/>
<circle cx="385.94" cy="213.43" r="1.5" fill="#ffcc66" fill-opacity="0.65"/>
<line x1="390.21" y1="360" x2="390.21" y2="267.60" stroke="#7aa7ff" stroke-width="1"/>
<circle cx="390.21" cy="216.91" r="1.5" fill="#ffcc66" fill-opacity="0.65"/>
<line x1="394.48" y1="360" x2="394.48" y2="280.04" stroke="#7aa7ff" stroke-width="1"/>
<circle cx="394.48" cy="133.82" r="1.5" fill="#ffcc66" fill-opacity="0.65"/>
<line x1="398.75" y1="360" x2="398.75" y2="278.11" stroke="#7aa7ff" stroke-width="1"/>
<circle cx="398.75" cy="137.71" r="1.5" fill="#ffcc66" fill-opacity="0.65"/>
<line x1="403.02" y1="360" x2="403.02" y2="265.41" stroke="#7aa7ff" stroke-width="1"/>
<circle cx="403.02" cy="245.23" r="1.5" fill="#ffcc66" fill-opacity="0.65"/>
<line x1="407.29" y1="360" x2="407.29" y2="234.11" stroke="#7aa7ff" stroke-width="1"/>
<circle cx="407.29" cy="307.48" r="1.5" fill="#ffcc66" fill-opacity="0.65"/>
<line x1="411.56" y1="360" x2="411.56" y2="191.78" stroke="#7aa7ff" stroke-width="1"/>
<circle cx="411.56" cy="171.87" r="1.5" fill="#ffcc66" fill-opacity="0.65"/>
<line x1="415.83" y1="360" x2="415.83" y2="140.10" stroke="#7aa7ff" stroke-width="1"/>
<circle cx="415.83" cy="293.32" r="1.5" fill="#ffcc66" fill-opacity="0.65"/>
<line x1="420.10" y1="360" x2="420.10" y2="112.01" stroke="#7aa7ff" stroke-width="1"/>
<circle cx="420.10" cy="236.78" r="1.5" fill="#ffcc66" fill-opacity="0.65"/>
<line x1="424.38" y1="360" x2="424.38" y2="119.16" stroke="#7aa7ff" stroke-width="1"/>
<circle cx="424.38" cy="129.99" r="1.5" fill="#ffcc66" fill-opacity="0.65"/>
<line x1="428.65" y1="360" x2="428.65" y2="121.61" stroke="#7aa7ff" stroke-width="1"/>
<circle cx="428.65" cy="273.11" r="1.5" fill="#ffcc66" fill-opacity="0.65"/>
<line x1="432.92" y1="360" x2="432.92" y2="115.99" stroke="#7aa7ff" stroke-width="1"/>
<circle cx="432.92" cy="190.51" r="1.5" fill="#ffcc66" fill-opacity="0.65"/>
<line x1="437.19" y1="360" x2="437.19" y2="124.02" stroke="#7aa7ff" stroke-width="1"/>
<circle cx="437.19" cy="197.83" r="1.5" fill="#ffcc66" fill-opacity="0.65"/>
<line x1="441.46" y1="360" x2="441.46" y2="148.60" stroke="#7aa7ff" stroke-width="1"/>
<circle cx="441.46" cy="186.56" r="1.5" fill="#ffcc66" fill-opacity="0.65"/>
<line x1="445.73" y1="360" x2="445.73" y2="174.87" stroke="#7aa7ff" stroke-width="1"/>
<circle cx="445.73" cy="137.46" r="1.5" fill="#ffcc66" fill-opacity="0.65"/>
<line x1="450.00" y1="360" x2="450.00" y2="178.74" stroke="#7aa7ff" stroke-width="1"/>
<circle cx="450.00" cy="165.50" r="1.5" fill="#ffcc66" fill-opacity="0.65"/>
<line x1="454.27" y1="360" x2="454.27" y2="181.41" stroke="#7aa7ff" stroke-width="1"/>
<circle cx="454.27" cy="253.10" r="1.5" fill="#ffcc66" fill-opacity="0.65"/>
<line x1="458.54" y1="360" x2="458.54" y2="158.66" stroke="#7aa7ff" stroke-width="1"/>
<circle cx="458.54" cy="239.03" r="1.5" fill="#ffcc66" fill-opacity="0.65"/>
<line x1="462.81" y1="360" x2="462.81" y2="135.24" stroke="#7aa7ff" stroke-width="1"/>
<circle cx="462.81" cy="280.76" r="1.5" fill="#ffcc66" fill-opacity="0.65"/>
<line x1="467.08" y1="360" x2="467.08" y2="118.28" stroke="#7aa7ff" stroke-width="1"/>
<circle cx="467.08" cy="167.43" r="1.5" fill="#ffcc66" fill-opacity="0.65"/>
<line x1="471.35" y1="360" x2="471.35" y2="129.89" stroke="#7aa7ff" stroke-width="1"/>
<circle cx="471.35" cy="262.66" r="1.5" fill="#ffcc66" fill-opacity="0.65"/>
<line x1="475.62" y1="360" x2="475.62" y2="158.70" stroke="#7aa7ff" stroke-width="1"/>
<circle cx="475.62" cy="116.03" r="1.5" fill="#ffcc66" fill-opacity="0.65"/>
<line x1="479.90" y1="360" x2="479.90" y2="199.78" stroke="#7aa7ff" stroke-width="1"/>
<circle cx="479.90" cy="310.25" r="1.5" fill="#ffcc66" fill-opacity="0.65"/>
<line x1="484.17" y1="360" x2="484.17" y2="263.29" stroke="#7aa7ff" stroke-width="1"/>
<circle cx="484.17" cy="213.34" r="1.5" fill="#ffcc66" fill-opacity="0.65"/>
<line x1="488.44" y1="360" x2="488.44" y2="276.62" stroke="#7aa7ff" stroke-width="1"/>
<circle cx="488.44" cy="196.76" r="1.5" fill="#ffcc66" fill-opacity="0.65"/>
<line x1="492.71" y1="360" x2="492.71" y2="240.35" stroke="#7aa7ff" stroke-width="1"/>
<circle cx="492.71" cy="202.71" r="1.5" fill="#ffcc66" fill-opacity="0.65"/>
<line x1="496.98" y1="360" x2="496.98" y2="190.63" stroke="#7aa7ff" stroke-width="1"/>
<circle cx="496.98" cy="234.34" r="1.5" fill="#ffcc66" fill-opacity="0.65"/>
<line x1="501.25" y1="360" x2="501.25" y2="163.87" stroke="#7aa7ff" stroke-width="1"/>
<circle cx="501.25" cy="324.87" r="1.5" fill="#ffcc66" fill-opacity="0.65"/>
<line x1="505.52" y1="360" x2="505.52" y2="158.76" stroke="#7aa7ff" stroke-width="1"/>
<circle cx="505.52" cy="236.02" r="1.5" fill="#ffcc66" fill-opacity="0.65"/>
<line x1="509.79" y1="360" x2="509.79" y2="161.83" stroke="#7aa7ff" stroke-width="1"/>
<circle cx="509.79" cy="262.22" r="1.5" fill="#ffcc66" fill-opacity="0.65"/>
<line x1="514.06" y1="360" x2="514.06" y2="174.94" stroke="#7aa7ff" stroke-width="1"/>
<circle cx="514.06" cy="183.19" r="1.5" fill="#ffcc66" fill-opacity="0.65"/>
<line x1="518.33" y1="360" x2="518.33" y2="184.37" stroke="#7aa7ff" stroke-width="1"/>
<circle cx="518.33" cy="183.00" r="1.5" fill="#ffcc66" fill-opacity="0.65"/>
<line x1="522.60" y1="360" x2="522.60" y2="212.40" stroke="#7aa7ff" stroke-width="1"/>
<circle cx="522.60" cy="214.85" r="1.5" fill="#ffcc66" fill-opacity="0.65"/>
<line x1="526.88" y1="360" x2="526.88" y2="221.19" stroke="#7aa7ff" stroke-width="1"/>
<circle cx="526.88" cy="179.61" r="1.5" fill="#ffcc66" fill-opacity="0.65"/>
<line x1="531.15" y1="360" x2="531.15" y2="208.76" stroke="#7aa7ff" stroke-width="1"/>
<circle cx="531.15" cy="333.35" r="1.5" fill="#ffcc66" fill-opacity="0.65"/>
<line x1="535.42" y1="360" x2="535.42" y2="186.21" stroke="#7aa7ff" stroke-width="1"/>
<circle cx="535.42" cy="259.43" r="1.5" fill="#ffcc66" fill-opacity="0.65"/>
<line x1="539.69" y1="360" x2="539.69" y2="174.59" stroke="#7aa7ff" stroke-width="1"/>
<circle cx="539.69" cy="199.30" r="1.5" fill="#ffcc66" fill-opacity="0.65"/>
<line x1="543.96" y1="360" x2="543.96" y2="167.29" stroke="#7aa7ff" stroke-width="1"/>
<circle cx="543.96" cy="249.74" r="1.5" fill="#ffcc66" fill-opacity="0.65"/>
<line x1="548.23" y1="360" x2="548.23" y2="164.95" stroke="#7aa7ff" stroke-width="1"/>
<circle cx="548.23" cy="197.77" r="1.5" fill="#ffcc66" fill-opacity="0.65"/>
<line x1="552.50" y1="360" x2="552.50" y2="184.80" stroke="#7aa7ff" stroke-width="1"/>
<circle cx="552.50" cy="302.77" r="1.5" fill="#ffcc66" fill-opacity="0.65"/>
<line x1="556.77" y1="360" x2="556.77" y2="232.82" stroke="#7aa7ff" stroke-width="1"/>
<circle cx="556.77" cy="277.34" r="1.5" fill="#ffcc66" fill-opacity="0.65"/>
<line x1="561.04" y1="360" x2="561.04" y2="288.36" stroke="#7aa7ff" stroke-width="1"/>
<circle cx="561.04" cy="206.68" r="1.5" fill="#ffcc66" fill-opacity="0.65"/>
<line x1="565.31" y1="360" x2="565.31" y2="317.26" stroke="#7aa7ff" stroke-width="1"/>
<circle cx="565.31" cy="309.64" r="1.5" fill="#ffcc66" fill-opacity="0.65"/>
<line x1="569.58" y1="360" x2="569.58" y2="292.55" stroke="#7aa7ff" stroke-width="1"/>
<circle cx="569.58" cy="281.34" r="1.5" fill="#ffcc66" fill-opacity="0.65"/>
<line x1="573.85" y1="360" x2="573.85" y2="273.20" stroke="#7aa7ff" stroke-width="1"/>
<circle cx="573.85" cy="292.24" r="1.5" fill="#ffcc66" fill-opacity="0.65"/>
<line x1="578.12" y1="360" x2="578.12" y2="272.46" stroke="#7aa7ff" stroke-width="1"/>
<circle cx="578.12" cy="199.03" r="1.5" fill="#ffcc66" fill-opacity="0.65"/>
<line x1="582.40" y1="360" x2="582.40" y2="283.19" stroke="#7aa7ff" stroke-width="1"/>
<circle cx="582.40" cy="232.74" r="1.5" fill="#ffcc66" fill-opacity="0.65"/>
<line x1="586.67" y1="360" x2="586.67" y2="277.46" stroke="#7aa7ff" stroke-width="1"/>
<circle cx="586.67" cy="148.95" r="1.5" fill="#ffcc66" fill-opacity="0.65"/>
<line x1="590.94" y1="360" x2="590.94" y2="281.99" stroke="#7aa7ff" stroke-width="1"/>
<circle cx="590.94" cy="286.05" r="1.5" fill="#ffcc66" fill-opacity="0.65"/>
<line x1="595.21" y1="360" x2="595.21" y2="279.56" stroke="#7aa7ff" stroke-width="1"/>
<circle cx="595.21" cy="232.62" r="1.5" fill="#ffcc66" fill-opacity="0.65"/>
<line x1="599.48" y1="360" x2="599.48" y2="288.74" stroke="#7aa7ff" stroke-width="1"/>
<circle cx="599.48" cy="254.26" r="1.5" fill="#ffcc66" fill-opacity="0.65"/>
<line x1="603.75" y1="360" x2="603.75" y2="274.50" stroke="#7aa7ff" stroke-width="1"/>
<circle cx="603.75" cy="304.16" r="1.5" fill="#ffcc66" fill-opacity="0.65"/>
<line x1="608.02" y1="360" x2="608.02" y2="249.55" stroke="#7aa7ff" stroke-width="1"/>
<circle cx="608.02" cy="265.97" r="1.5" fill="#ffcc66" fill-opacity="0.65"/>
<line x1="612.29" y1="360" x2="612.29" y2="267.87" stroke="#7aa7ff" stroke-width="1"/>
<circle cx="612.29" cy="162.00" r="1.5" fill="#ffcc66" fill-opacity="0.65"/>
<line x1="616.56" y1="360" x2="616.56" y2="309.89" stroke="#7aa7ff" stroke-width="1"/>
<circle cx="616.56" cy="205.41" r="1.5" fill="#ffcc66" fill-opacity="0.65"/>
<line x1="620.83" y1="360" x2="620.83" y2="343.32" stroke="#7aa7ff" stroke-width="1"/>
<circle cx="620.83" cy="154.76" r="1.5" fill="#ffcc66" fill-opacity="0.65"/>
<line x1="625.10" y1="360" x2="625.10" y2="321.43" stroke="#7aa7ff" stroke-width="1"/>
<circle cx="625.10" cy="243.83" r="1.5" fill="#ffcc66" fill-opacity="0.65"/>
<line x1="629.38" y1="360" x2="629.38" y2="310.47" stroke="#7aa7ff" stroke-width="1"/>
<circle cx="629.38" cy="212.19" r="1.5" fill="#ffcc66" fill-opacity="0.65"/>
<line x1="633.65" y1="360" x2="633.65" y2="303.59" stroke="#7aa7ff" stroke-width="1"/>
<circle cx="633.65" cy="156.02" r="1.5" fill="#ffcc66" fill-opacity="0.65"/>
<line x1="637.92" y1="360" x2="637.92" y2="281.48" stroke="#7aa7ff" stroke-width="1"/>
<circle cx="637.92" cy="226.90" r="1.5" fill="#ffcc66" fill-opacity="0.65"/>
<line x1="642.19" y1="360" x2="642.19" y2="257.74" stroke="#7aa7ff" stroke-width="1"/>
<circle cx="642.19" cy="229.04" r="1.5" fill="#ffcc66" fill-opacity="0.65"/>
<line x1="646.46" y1="360" x2="646.46" y2="232.60" stroke="#7aa7ff" stroke-width="1"/>
<circle cx="646.46" cy="118.72" r="1.5" fill="#ffcc66" fill-opacity="0.65"/>
<line x1="650.73" y1="360" x2="650.73" y2="202.64" stroke="#7aa7ff" stroke-width="1"/>
<circle cx="650.73" cy="273.45" r="1.5" fill="#ffcc66" fill-opacity="0.65"/>
<line x1="655.00" y1="360" x2="655.00" y2="198.64" stroke="#7aa7ff" stroke-width="1"/>
<circle cx="655.00" cy="213.70" r="1.5" fill="#ffcc66" fill-opacity="0.65"/>
<line x1="659.27" y1="360" x2="659.27" y2="175.10" stroke="#7aa7ff" stroke-width="1"/>
<circle cx="659.27" cy="188.17" r="1.5" fill="#ffcc66" fill-opacity="0.65"/>
<line x1="663.54" y1="360" x2="663.54" y2="164.17" stroke="#7aa7ff" stroke-width="1"/>
<circle cx="663.54" cy="283.05" r="1.5" fill="#ffcc66" fill-opacity="0.65"/>
<line x1="667.81" y1="360" x2="667.81" y2="165.20" stroke="#7aa7ff" stroke-width="1"/>
<circle cx="667.81" cy="219.05" r="1.5" fill="#ffcc66" fill-opacity="0.65"/>
<line x1="672.08" y1="360" x2="672.08" y2="176.19" stroke="#7aa7ff" stroke-width="1"/>
<circle cx="672.08" cy="233.68" r="1.5" fill="#ffcc66" fill-opacity="0.65"/>
<line x1="676.35" y1="360" x2="676.35" y2="163.70" stroke="#7aa7ff" stroke-width="1"/>
<circle cx="676.35" cy="275.58" r="1.5" fill="#ffcc66" fill-opacity="0.65"/>
<line x1="680.62" y1="360" x2="680.62" y2="149.95" stroke="#7aa7ff" stroke-width="1"/>
<circle cx="680.62" cy="117.46" r="1.5" fill="#ffcc66" fill-opacity="0.65"/>
<line x1="684.90" y1="360" x2="684.90" y2="155.82" stroke="#7aa7ff" stroke-width="1"/>
<circle cx="684.90" cy="232.40" r="1.5" fill="#ffcc66" fill-opacity="0.65"/>
<line x1="689.17" y1="360" x2="689.17" y2="161.11" stroke="#7aa7ff" stroke-width="1"/>
<circle cx="689.17" cy="295.08" r="1.5" fill="#ffcc66" fill-opacity="0.65"/>
<line x1="693.44" y1="360" x2="693.44" y2="148.50" stroke="#7aa7ff" stroke-width="1"/>
<circle cx="693.44" cy="334.46" r="1.5" fill="#ffcc66" fill-opacity="0.65"/>
<line x1="697.71" y1="360" x2="697.71" y2="127.21" stroke="#7aa7ff" stroke-width="1"/>
<circle cx="697.71" cy="165.83" r="1.5" fill="#ffcc66" fill-opacity="0.65"/>
<line x1="701.98" y1="360" x2="701.98" y2="142.17" stroke="#7aa7ff" stroke-width="1"/>
<circle cx="701.98" cy="147.52" r="1.5" fill="#ffcc66" fill-opacity="0.65"/>
<line x1="706.25" y1="360" x2="706.25" y2="195.02" stroke="#7aa7ff" stroke-width="1"/>
<circle cx="706.25" cy="266.54" r="1.5" fill="#ffcc66" fill-opacity="0.65"/>
<line x1="710.52" y1="360" x2="710.52" y2="261.53" stroke="#7aa7ff" stroke-width="1"/>
<circle cx="710.52" cy="227.28" r="1.5" fill="#ffcc66" fill-opacity="0.65"/>
<line x1="714.79" y1="360" x2="714.79" y2="300.93" stroke="#7aa7ff" stroke-width="1"/>
<circle cx="714.79" cy="232.48" r="1.5" fill="#ffcc66" fill-opacity="0.65"/>
<line x1="719.06" y1="360" x2="719.06" y2="316.40" stroke="#7aa7ff" stroke-width="1"/>
<circle cx="719.06" cy="208.21" r="1.5" fill="#ffcc66" fill-opacity="0.65"/>
<line x1="723.33" y1="360" x2="723.33" y2="353.01" stroke="#7aa7ff" stroke-width="1"/>
<circle cx="723.33" cy="285.02" r="1.5" fill="#ffcc66" fill-opacity="0.65"/>
<line x1="727.60" y1="360" x2="727.60" y2="319.75" stroke="#7aa7ff" stroke-width="1"/>
<circle cx="727.60" cy="322.29" r="1.5" fill="#ffcc66" fill-opacity="0.65"/>
<line x1="731.88" y1="360" x2="731.88" y2="298.96" stroke="#7aa7ff" stroke-width="1"/>
<circle cx="731.88" cy="266.02" r="1.5" fill="#ffcc66" fill-opacity="0.65"/>
<line x1="736.15" y1="360" x2="736.15" y2="276.36" stroke="#7aa7ff" stroke-width="1"/>
<circle cx="736.15" cy="286.93" r="1.5" fill="#ffcc66" fill-opacity="0.65"/>
<line x1="740.42" y1="360" x2="740.42" y2="265.03" stroke="#7aa7ff" stroke-width="1"/>
<circle cx="740.42" cy="310.48" r="1.5" fill="#ffcc66" fill-opacity="0.65"/>
<line x1="744.69" y1="360" x2="744.69" y2="249.50" stroke="#7aa7ff" stroke-width="1"/>
<circle cx="744.69" cy="107.75" r="1.5" fill="#ffcc66" fill-opacity="0.65"/>
<line x1="748.96" y1="360" x2="748.96" y2="261.33" stroke="#7aa7ff" stroke-width="1"/>
<circle cx="748.96" cy="204.19" r="1.5" fill="#ffcc66" fill-opacity="0.65"/>
<line x1="753.23" y1="360" x2="753.23" y2="259.38" stroke="#7aa7ff" stroke-width="1"/>
<circle cx="753.23" cy="284.70" r="1.5" fill="#ffcc66" fill-opacity="0.65"/>
<line x1="757.50" y1="360" x2="757.50" y2="229.22" stroke="#7aa7ff" stroke-width="1"/>
<circle cx="757.50" cy="134.86" r="1.5" fill="#ffcc66" fill-opacity="0.65"/>
<line x1="761.77" y1="360" x2="761.77" y2="224.40" stroke="#7aa7ff" stroke-width="1"/>
<circle cx="761.77" cy="252.35" r="1.5" fill="#ffcc66" fill-opacity="0.65"/>
<line x1="766.04" y1="360" x2="766.04" y2="215.01" stroke="#7aa7ff" stroke-width="1"/>
<circle cx="766.04" cy="242.52" r="1.5" fill="#ffcc66" fill-opacity="0.65"/>
<line x1="770.31" y1="360" x2="770.31" y2="189.74" stroke="#7aa7ff" stroke-width="1"/>
<circle cx="770.31" cy="223.99" r="1.5" fill="#ffcc66" fill-opacity="0.65"/>
<line x1="774.58" y1="360" x2="774.58" y2="159.24" stroke="#7aa7ff" stroke-width="1"/>
<circle cx="774.58" cy="240.91" r="1.5" fill="#ffcc66" fill-opacity="0.65"/>
<line x1="778.85" y1="360" x2="778.85" y2="157.18" stroke="#7aa7ff" stroke-width="1"/>
<circle cx="778.85" cy="246.81" r="1.5" fill="#ffcc66" fill-opacity="0.65"/>
<line x1="783.12" y1="360" x2="783.12" y2="183.85" stroke="#7aa7ff" stroke-width="1"/>
<circle cx="783.12" cy="247.36" r="1.5" fill="#ffcc66" fill-opacity="0.65"/>
<line x1="787.40" y1="360" x2="787.40" y2="200.44" stroke="#7aa7ff" stroke-width="1"/>
<circle cx="787.40" cy="283.15" r="1.5" fill="#ffcc66" fill-opacity="0.65"/>
<line x1="791.67" y1="360" x2="791.67" y2="209.82" stroke="#7aa7ff" stroke-width="1"/>
<circle cx="791.67" cy="306.45" r="1.5" fill="#ffcc66" fill-opacity="0.65"/>
<line x1="795.94" y1="360" x2="795.94" y2="203.60" stroke="#7aa7ff" stroke-width="1"/>
<circle cx="795.94" cy="305.45" r="1.5" fill="#ffcc66" fill-opacity="0.65"/>
<line x1="800.21" y1="360" x2="800.21" y2="177.54" stroke="#7aa7ff" stroke-width="1"/>
<circle cx="800.21" cy="255.97" r="1.5" fill="#ffcc66" fill-opacity="0.65"/>
<line x1="804.48" y1="360" x2="804.48" y2="192.17" stroke="#7aa7ff" stroke-width="1"/>
<circle cx="804.48" cy="314.74" r="1.5" fill="#ffcc66" fill-opacity="0.65"/>
<line x1="808.75" y1="360" x2="808.75" y2="233.05" stroke="#7aa7ff" stroke-width="1"/>
<circle cx="808.75" cy="270.84" r="1.5" fill="#ffcc66" fill-opacity="0.65"/>
<line x1="813.02" y1="360" x2="813.02" y2="275.16" stroke="#7aa7ff" stroke-width="1"/>
<circle cx="813.02" cy="150.22" r="1.5" fill="#ffcc66" fill-opacity="0.65"/>
<line x1="817.29" y1="360" x2="817.29" y2="293.95" stroke="#7aa7ff" stroke-width="1"/>
<circle cx="817.29" cy="129.63" r="1.5" fill="#ffcc66" fill-opacity="0.65"/>
<line x1="821.56" y1="360" x2="821.56" y2="322.39" stroke="#7aa7ff" stroke-width="1"/>
<circle cx="821.56" cy="274.79" r="1.5" fill="#ffcc66" fill-opacity="0.65"/>
<line x1="825.83" y1="360" x2="825.83" y2="323.77" stroke="#7aa7ff" stroke-width="1"/>
<circle cx="825.83" cy="249.73" r="1.5" fill="#ffcc66" fill-opacity="0.65"/>
<line x1="830.10" y1="360" x2="830.10" y2="277.01" stroke="#7aa7ff" stroke-width="1"/>
<circle cx="830.10" cy="244.85" r="1.5" fill="#ffcc66" fill-opacity="0.65"/>
<line x1="834.38" y1="360" x2="834.38" y2="231.88" stroke="#7aa7ff" stroke-width="1"/>
<circle cx="834.38" cy="275.24" r="1.5" fill="#ffcc66" fill-opacity="0.65"/>
<line x1="838.65" y1="360" x2="838.65" y2="197.05" stroke="#7aa7ff" stroke-width="1"/>
<circle cx="838.65" cy="328.39" r="1.5" fill="#ffcc66" fill-opacity="0.65"/>
<line x1="842.92" y1="360" x2="842.92" y2="186.33" stroke="#7aa7ff" stroke-width="1"/>
<circle cx="842.92" cy="195.80" r="1.5" fill="#ffcc66" fill-opacity="0.65"/>
<line x1="847.19" y1="360" x2="847.19" y2="170.22" stroke="#7aa7ff" stroke-width="1"/>
<circle cx="847.19" cy="296.71" r="1.5" fill="#ffcc66" fill-opacity="0.65"/>
<line x1="851.46" y1="360" x2="851.46" y2="159.63" stroke="#7aa7ff" stroke-width="1"/>
<circle cx="851.46" cy="280.96" r="1.5" fill="#ffcc66" fill-opacity="0.65"/>
<line x1="855.73" y1="360" x2="855.73" y2="157.30" stroke="#7aa7ff" stroke-width="1"/>
<circle cx="855.73" cy="283.29" r="1.5" fill="#ffcc66" fill-opacity="0.65"/>
<line x1="860.00" y1="360" x2="860.00" y2="165.36" stroke="#7aa7ff" stroke-width="1"/>
<circle cx="860.00" cy="320.02" r="1.5" fill="#ffcc66" fill-opacity="0.65"/>
</svg>
