<?xml version="1.0" encoding="UTF-8"?>
<svg xmlns="http://www.w3.org/2000/svg" width="900" height="360" viewBox="0 0 900 360">
<rect width="900" height="360" fill="#111"/>
<line x1="40" y1="300" x2="860" y2="300" stroke="#555" stroke-width="1"/>
<line x1="450" y1="24" x2="450" y2="320" stroke="#333" stroke-width="1"/>
<line x1="40.00" y1="300" x2="40.00" y2="294.68" stroke="#555" stroke-width="1"/>
<line x1="41.60" y1="300" x2="41.60" y2="294.74" stroke="#555" stroke-width="1"/>
<line x1="43.21" y1="300" x2="43.21" y2="294.82" stroke="#555" stroke-width="1"/>
<line x1="44.81" y1="300" x2="44.81" y2="294.83" stroke="#555" stroke-width="1"/>
<line x1="46.42" y1="300" x2="46.42" y2="294.63" stroke="#555" stroke-width="1"/>
<line x1="48.02" y1="300" x2="48.02" y2="294.60" stroke="#555" stroke-width="1"/>
<line x1="49.63" y1="300" x2="49.63" y2="294.50" stroke="#555" stroke-width="1"/>
<line x1="51.23" y1="300" x2="51.23" y2="294.76" stroke="#555" stroke-width="1"/>
<line x1="52.84" y1="300" x2="52.84" y2="294.63" stroke="#555" stroke-width="1"/>
<line x1="54.44" y1="300" x2="54.44" y2="294.71" stroke="#555" stroke-width="1"/>
<line x1="56.05" y1="300" x2="56.05" y2="294.75" stroke="#555" stroke-width="1"/>
<line x1="57.65" y1="300" x2="57.65" y2="294.32" stroke="#555" stroke-width="1"/>
<line x1="59.26" y1="300" x2="59.26" y2="294.18" stroke="#555" stroke-width="1"/>
<line x1="60.86" y1="300" x2="60.86" y2="293.21" stroke="#555" stroke-width="1"/>
<line x1="62.47" y1="300" x2="62.47" y2="291.94" stroke="#555" stroke-width="1"/>
<line x1="64.07" y1="300" x2="64.07" y2="289.48" stroke="#555" stroke-width="1"/>
<line x1="65.68" y1="300" x2="65.68" y2="286.99" stroke="#555" stroke-width="1"/>
<line x1="67.28" y1="300" x2="67.28" y2="283.06" stroke="#555" stroke-width="1"/>
<line x1="68.88" y1="300" x2="68.88" y2="280.39" stroke="#555" stroke-width="1"/>
<line x1="70.49" y1="300" x2="70.49" y2="277.12" stroke="#555" stroke-width="1"/>
<line x1="72.09" y1="300" x2="72.09" y2="274.14" stroke="#555" stroke-width="1"/>
<line x1="73.70" y1="300" x2="73.70" y2="271.24" stroke="#555" stroke-width="1"/>
<line x1="75.30" y1="300" x2="75.30" y2="270.97" stroke="#555" stroke-width="1"/>
<line x1="76.91" y1="300" x2="76.91" y2="271.43" stroke="#555" stroke-width="1"/>
<line x1="78.51" y1="300" x2="78.51" y2="272.70" stroke="#555" stroke-width="1"/>
<line x1="80.12" y1="300" x2="80.12" y2="272.99" stroke="#555" stroke-width="1"/>
<line x1="81.72" y1="300" x2="81.72" y2="273.44" stroke="#555" stroke-width="1"/>
<line x1="83.33" y1="300" x2="83.33" y2="272.06" stroke="#555" stroke-width="1"/>
<line x1="84.93" y1="300" x2="84.93" y2="271.09" stroke="#555" stroke-width="1"/>
<line x1="86.54" y1="300" x2="86.54" y2="271.86" stroke="#555" stroke-width="1"/>
<line x1="88.14" y1="300" x2="88.14" y2="271.49" stroke="#555" stroke-width="1"/>
<line x1="89.75" y1="300" x2="89.75" y2="270.94" stroke="#555" stroke-width="1"/>
<line x1="91.35" y1="300" x2="91.35" y2="270.72" stroke="#555" stroke-width="1"/>
<line x1="92.95" y1="300" x2="92.95" y2="272.48" stroke="#555" stroke-width="1"/>
<line x1="94.56" y1="300" x2="94.56" y2="272.13" stroke="#555" stroke-width="1"/>
<line x1="96.16" y1="300" x2="96.16" y2="272.27" stroke="#555" stroke-width="1"/>
<line x1="97.77" y1="300" x2="97.77" y2="271.48" stroke="#555" stroke-width="1"/>
<line x1="99.37" y1="300" x2="99.37" y2="272.71" stroke="#555" stroke-width="1"/>
<line x1="100.98" y1="300" x2="100.98" y2="271.16" stroke="#555" stroke-width="1"/>
<line x1="102.58" y1="300" x2="102.58" y2="272.42" stroke="#555" stroke-width="1"/>
<line x1="104.19" y1="300" x2="104.19" y2="270.77" stroke="#555" stroke-width="1"/>
<line x1="105.79" y1="300" x2="105.79" y2="272.46" stroke="#555" stroke-width="1"/>
<line x1="107.40" y1="300" x2="107.40" y2="269.86" stroke="#555" stroke-width="1"/>
<line x1="109.00" y1="300" x2="109.00" y2="272.37" stroke="#555" stroke-width="1"/>
<line x1="110.61" y1="300" x2="110.61" y2="272.20" stroke="#555" stroke-width="1"/>
<line x1="112.21" y1="300" x2="112.21" y2="271.58" stroke="#555" stroke-width="1"/>
<line x1="113.82" y1="300" x2="113.82" y2="271.91" stroke="#555" stroke-width="1"/>
<line x1="115.42" y1="300" x2="115.42" y2="268.39" stroke="#555" stroke-width="1"/>
<line x1="117.03" y1="300" x2="117.03" y2="272.35" stroke="#555" stroke-width="1"/>
<line x1="118.63" y1="300" x2="118.63" y2="272.58" stroke="#555" stroke-width="1"/>
<line x1="120.23" y1="300" x2="120.23" y2="272.26" stroke="#555" stroke-width="1"/>
<line x1="121.84" y1="300" x2="121.84" y2="272.84" stroke="#555" stroke-width="1"/>
<line x1="123.44" y1="300" x2="123.44" y2="270.63" stroke="#555" stroke-width="1"/>
<line x1="125.05" y1="300" x2="125.05" y2="273.09" stroke="#555" stroke-width="1"/>
<line x1="126.65" y1="300" x2="126.65" y2="270.47" stroke="#555" stroke-width="1"/>
<line x1="128.26" y1="300" x2="128.26" y2="270.30" stroke="#555" stroke-width="1"/>
<line x1="129.86" y1="300" x2="129.86" y2="270.95" stroke="#555" stroke-width="1"/>
<line x1="131.47" y1="300" x2="131.47" y2="270.51" stroke="#555" stroke-width="1"/>
<line x1="133.07" y1="300" x2="133.07" y2="270.18" stroke="#555" stroke-width="1"/>
<line x1="134.68" y1="300" x2="134.68" y2="269.86" stroke="#555" stroke-width="1"/>
<line x1="136.28" y1="300" x2="136.28" y2="272.09" stroke="#555" stroke-width="1"/>
<line x1="137.89" y1="300" x2="137.89" y2="271.16" stroke="#555" stroke-width="1"/>
<line x1="139.49" y1="300" x2="139.49" y2="270.17" stroke="#555" stroke-width="1"/>
<line x1="141.10" y1="300" x2="141.10" y2="273.20" stroke="#555" stroke-width="1"/>
<line x1="142.70" y1="300" x2="142.70" y2="271.04" stroke="#555" stroke-width="1"/>
<line x1="144.31" y1="300" x2="144.31" y2="271.05" stroke="#555" stroke-width="1"/>
<line x1="145.91" y1="300" x2="145.91" y2="271.59" stroke="#555" stroke-width="1"/>
<line x1="147.51" y1="300" x2="147.51" y2="271.67" stroke="#555" stroke-width="1"/>
<line x1="149.12" y1="300" x2="149.12" y2="273.38" stroke="#555" stroke-width="1"/>
<line x1="150.72" y1="300" x2="150.72" y2="269.39" stroke="#555" stroke-width="1"/>
<line x1="152.33" y1="300" x2="152.33" y2="270.08" stroke="#555" stroke-width="1"/>
<line x1="153.93" y1="300" x2="153.93" y2="270.88" stroke="#555" stroke-width="1"/>
<line x1="155.54" y1="300" x2="155.54" y2="271.90" stroke="#555" stroke-width="1"/>
<line x1="157.14" y1="300" x2="157.14" y2="270.69" stroke="#555" stroke-width="1"/>
<line x1="158.75" y1="300" x2="158.75" y2="269.97" stroke="#555" stroke-width="1"/>
<line x1="160.35" y1="300" x2="160.35" y2="270.27" stroke="#555" stroke-width="1"/>
<line x1="161.96" y1="300" x2="161.96" y2="269.78" stroke="#555" stroke-width="1"/>
<line x1="163.56" y1="300" x2="163.56" y2="271.73" stroke="#555" stroke-width="1"/>
<line x1="165.17" y1="300" x2="165.17" y2="270.69" stroke="#555" stroke-width="1"/>
<line x1="166.77" y1="300" x2="166.77" y2="271.38" stroke="#555" stroke-width="1"/>
<line x1="168.38" y1="300" x2="168.38" y2="273.53" stroke="#555" stroke-width="1"/>
<line x1="169.98" y1="300" x2="169.98" y2="269.73" stroke="#555" stroke-width="1"/>
<line x1="171.59" y1="300" x2="171.59" y2="270.09" stroke="#555" stroke-width="1"/>
<line x1="173.19" y1="300" x2="173.19" y2="268.13" stroke="#555" stroke-width="1"/>
<line x1="174.79" y1="300" x2="174.79" y2="271.68" stroke="#555" stroke-width="1"/>
<line x1="176.40" y1="300" x2="176.40" y2="271.00" stroke="#555" stroke-width="1"/>
<line x1="178.00" y1="300" x2="178.00" y2="270.81" stroke="#555" stroke-width="1"/>
<line x1="179.61" y1="300" x2="179.61" y2="271.55" stroke="#555" stroke-width="1"/>
<line x1="181.21" y1="300" x2="181.21" y2="270.92" stroke="#555" stroke-width="1"/>
<line x1="182.82" y1="300" x2="182.82" y2="270.02" stroke="#555" stroke-width="1"/>
<line x1="184.42" y1="300" x2="184.42" y2="270.62" stroke="#555" stroke-width="1"/>
<line x1="186.03" y1="300" x2="186.03" y2="269.76" stroke="#555" stroke-width="1"/>
<line x1="187.63" y1="300" x2="187.63" y2="269.35" stroke="#555" stroke-width="1"/>
<line x1="189.24" y1="300" x2="189.24" y2="270.37" stroke="#555" stroke-width="1"/>
<line x1="190.84" y1="300" x2="190.84" y2="272.33" stroke="#555" stroke-width="1"/>
<line x1="192.45" y1="300" x2="192.45" y2="270.56" stroke="#555" stroke-width="1"/>
<line x1="194.05" y1="300" x2="194.05" y2="270.09" stroke="#555" stroke-width="1"/>
<line x1="195.66" y1="300" x2="195.66" y2="271.55" stroke="#555" stroke-width="1"/>
<line x1="197.26" y1="300" x2="197.26" y2="271.01" stroke="#555" stroke-width="1"/>
<line x1="198.86" y1="300" x2="198.86" y2="270.63" stroke="#555" stroke-width="1"/>
<line x1="200.47" y1="300" x2="200.47" y2="271.38" stroke="#555" stroke-width="1"/>
<line x1="202.07" y1="300" x2="202.07" y2="270.99" stroke="#555" stroke-width="1"/>
<line x1="203.68" y1="300" x2="203.68" y2="270.16" stroke="#555" stroke-width="1"/>
<line x1="205.28" y1="300" x2="205.28" y2="271.43" stroke="#555" stroke-width="1"/>
<line x1="206.89" y1="300" x2="206.89" y2="273.15" stroke="#555" stroke-width="1"/>
<line x1="208.49" y1="300" x2="208.49" y2="272.05" stroke="#555" stroke-width="1"/>
<line x1="210.10" y1="300" x2="210.10" y2="269.18" stroke="#555" stroke-width="1"/>
<line x1="211.70" y1="300" x2="211.70" y2="271.02" stroke="#555" stroke-width="1"/>
<line x1="213.31" y1="300" x2="213.31" y2="269.81" stroke="#555" stroke-width="1"/>
<line x1="214.91" y1="300" x2="214.91" y2="271.51" stroke="#555" stroke-width="1"/>
<line x1="216.52" y1="300" x2="216.52" y2="269.03" stroke="#555" stroke-width="1"/>
<line x1="218.12" y1="300" x2="218.12" y2="270.45" stroke="#555" stroke-width="1"/>
<line x1="219.73" y1="300" x2="219.73" y2="269.54" stroke="#555" stroke-width="1"/>
<line x1="221.33" y1="300" x2="221.33" y2="271.01" stroke="#555" stroke-width="1"/>
<line x1="222.94" y1="300" x2="222.94" y2="272.46" stroke="#555" stroke-width="1"/>
<line x1="224.54" y1="300" x2="224.54" y2="270.14" stroke="#555" stroke-width="1"/>
<line x1="226.14" y1="300" x2="226.14" y2="269.24" stroke="#555" stroke-width="1"/>
<line x1="227.75" y1="300" x2="227.75" y2="268.56" stroke="#555" stroke-width="1"/>
<line x1="229.35" y1="300" x2="229.35" y2="271.72" stroke="#555" stroke-width="1"/>
<line x1="230.96" y1="300" x2="230.96" y2="271.19" stroke="#555" stroke-width="1"/>
<line x1="232.56" y1="300" x2="232.56" y2="271.20" stroke="#555" stroke-width="1"/>
<line x1="234.17" y1="300" x2="234.17" y2="271.33" stroke="#555" stroke-width="1"/>
<line x1="235.77" y1="300" x2="235.77" y2="270.89" stroke="#555" stroke-width="1"/>
<line x1="237.38" y1="300" x2="237.38" y2="270.59" stroke="#555" stroke-width="1"/>
<line x1="238.98" y1="300" x2="238.98" y2="270.38" stroke="#555" stroke-width="1"/>
<line x1="240.59" y1="300" x2="240.59" y2="271.54" stroke="#555" stroke-width="1"/>
<line x1="242.19" y1="300" x2="242.19" y2="270.02" stroke="#555" stroke-width="1"/>
<line x1="243.80" y1="300" x2="243.80" y2="269.65" stroke="#555" stroke-width="1"/>
<line x1="245.40" y1="300" x2="245.40" y2="268.20" stroke="#555" stroke-width="1"/>
<line x1="247.01" y1="300" x2="247.01" y2="270.37" stroke="#555" stroke-width="1"/>
<line x1="248.61" y1="300" x2="248.61" y2="272.88" stroke="#555" stroke-width="1"/>
<line x1="250.22" y1="300" x2="250.22" y2="268.40" stroke="#555" stroke-width="1"/>
<line x1="251.82" y1="300" x2="251.82" y2="268.84" stroke="#555" stroke-width="1"/>
<line x1="253.42" y1="300" x2="253.42" y2="271.20" stroke="#555" stroke-width="1"/>
<line x1="255.03" y1="300" x2="255.03" y2="269.30" stroke="#555" stroke-width="1"/>
<line x1="256.63" y1="300" x2="256.63" y2="269.82" stroke="#555" stroke-width="1"/>
<line x1="258.24" y1="300" x2="258.24" y2="272.35" stroke="#555" stroke-width="1"/>
<line x1="259.84" y1="300" x2="259.84" y2="269.72" stroke="#555" stroke-width="1"/>
<line x1="261.45" y1="300" x2="261.45" y2="268.34" stroke="#555" stroke-width="1"/>
<line x1="263.05" y1="300" x2="263.05" y2="271.42" stroke="#555" stroke-width="1"/>
<line x1="264.66" y1="300" x2="264.66" y2="271.55" stroke="#555" stroke-width="1"/>
<line x1="266.26" y1="300" x2="266.26" y2="268.58" stroke="#555" stroke-width="1"/>
<line x1="267.87" y1="300" x2="267.87" y2="270.01" stroke="#555" stroke-width="1"/>
<line x1="269.47" y1="300" x2="269.47" y2="271.60" stroke="#555" stroke-width="1"/>
<line x1="271.08" y1="300" x2="271.08" y2="271.73" stroke="#555" stroke-width="1"/>
<line x1="272.68" y1="300" x2="272.68" y2="269.94" stroke="#555" stroke-width="1"/>
<line x1="274.29" y1="300" x2="274.29" y2="269.37" stroke="#555" stroke-width="1"/>
<line x1="275.89" y1="300" x2="275.89" y2="268.61" stroke="#555" stroke-width="1"/>
<line x1="277.50" y1="300" x2="277.50" y2="269.84" stroke="#555" stroke-width="1"/>
<line x1="279.10" y1="300" x2="279.10" y2="270.25" stroke="#555" stroke-width="1"/>
<line x1="280.70" y1="300" x2="280.70" y2="267.91" stroke="#555" stroke-width="1"/>
<line x1="282.31" y1="300" x2="282.31" y2="269.33" stroke="#555" stroke-width="1"/>
<line x1="283.91" y1="300" x2="283.91" y2="266.41" stroke="#555" stroke-width="1"/>
<line x1="285.52" y1="300" x2="285.52" y2="269.90" stroke="#555" stroke-width="1"/>
<line x1="287.12" y1="300" x2="287.12" y2="269.80" stroke="#555" stroke-width="1"/>
<line x1="288.73" y1="300" x2="288.73" y2="266.90" stroke="#555" stroke-width="1"/>
<line x1="290.33" y1="300" x2="290.33" y2="268.80" stroke="#555" stroke-width="1"/>
<line x1="291.94" y1="300" x2="291.94" y2="269.94" stroke="#555" stroke-width="1"/>
<line x1="293.54" y1="300" x2="293.54" y2="266.78" stroke="#555" stroke-width="1"/>
<line x1="295.15" y1="300" x2="295.15" y2="267.86" stroke="#555" stroke-width="1"/>
<line x1="296.75" y1="300" x2="296.75" y2="269.12" stroke="#555" stroke-width="1"/>
<line x1="298.36" y1="300" x2="298.36" y2="267.88" stroke="#555" stroke-width="1"/>
<line x1="299.96" y1="300" x2="299.96" y2="268.79" stroke="#555" stroke-width="1"/>
<line x1="301.57" y1="300" x2="301.57" y2="266.75" stroke="#555" stroke-width="1"/>
<line x1="303.17" y1="300" x2="303.17" y2="265.04" stroke="#555" stroke-width="1"/>
<line x1="304.77" y1="300" x2="304.77" y2="264.34" stroke="#555" stroke-width="1"/>
<line x1="306.38" y1="300" x2="306.38" y2="264.83" stroke="#555" stroke-width="1"/>
<line x1="307.98" y1="300" x2="307.98" y2="266.15" stroke="#555" stroke-width="1"/>
<line x1="309.59" y1="300" x2="309.59" y2="263.56" stroke="#555" stroke-width="1"/>
<line x1="311.19" y1="300" x2="311.19" y2="266.22" stroke="#555" stroke-width="1"/>
<line x1="312.80" y1="300" x2="312.80" y2="265.58" stroke="#555" stroke-width="1"/>
<line x1="314.40" y1="300" x2="314.40" y2="262.21" stroke="#555" stroke-width="1"/>
<line x1="316.01" y1="300" x2="316.01" y2="261.41" stroke="#555" stroke-width="1"/>
<line x1="317.61" y1="300" x2="317.61" y2="258.31" stroke="#555" stroke-width="1"/>
<line x1="319.22" y1="300" x2="319.22" y2="249.61" stroke="#555" stroke-width="1"/>
<line x1="320.82" y1="300" x2="320.82" y2="236.33" stroke="#555" stroke-width="1"/>
<line x1="322.43" y1="300" x2="322.43" y2="125.98" stroke="#48d597" stroke-width="1"/>
<line x1="324.03" y1="300" x2="324.03" y2="63.49" stroke="#7aa7ff" stroke-width="1"/>
<line x1="325.64" y1="300" x2="325.64" y2="69.53" stroke="#48d597" stroke-width="1"/>
<line x1="327.24" y1="300" x2="327.24" y2="62.74" stroke="#7aa7ff" stroke-width="1"/>
<line x1="328.85" y1="300" x2="328.85" y2="57.36" stroke="#7aa7ff" stroke-width="1"/>
<line x1="330.45" y1="300" x2="330.45" y2="44.64" stroke="#7aa7ff" stroke-width="1"/>
<line x1="332.05" y1="300" x2="332.05" y2="45.19" stroke="#7aa7ff" stroke-width="1"/>
<line x1="333.66" y1="300" x2="333.66" y2="60.92" stroke="#48d597" stroke-width="1"/>
<line x1="335.26" y1="300" x2="335.26" y2="60.81" stroke="#7aa7ff" stroke-width="1"/>
<line x1="336.87" y1="300" x2="336.87" y2="62.44" stroke="#48d597" stroke-width="1"/>
<line x1="338.47" y1="300" x2="338.47" y2="70.98" stroke="#7aa7ff" stroke-width="1"/>
<line x1="340.08" y1="300" x2="340.08" y2="68.36" stroke="#48d597" stroke-width="1"/>
<line x1="341.68" y1="300" x2="341.68" y2="68.50" stroke="#7aa7ff" stroke-width="1"/>
<line x1="343.29" y1="300" x2="343.29" y2="48.20" stroke="#7aa7ff" stroke-width="1"/>
<line x1="344.89" y1="300" x2="344.89" y2="50.23" stroke="#48d597" stroke-width="1"/>
<line x1="346.50" y1="300" x2="346.50" y2="45.75" stroke="#7aa7ff" stroke-width="1"/>
<line x1="348.10" y1="300" x2="348.10" y2="56.58" stroke="#7aa7ff" stroke-width="1"/>
<line x1="349.71" y1="300" x2="349.71" y2="43.38" stroke="#7aa7ff" stroke-width="1"/>
<line x1="351.31" y1="300" x2="351.31" y2="46.67" stroke="#7aa7ff" stroke-width="1"/>
<line x1="352.92" y1="300" x2="352.92" y2="61.58" stroke="#48d597" stroke-width="1"/>
<line x1="354.52" y1="300" x2="354.52" y2="67.16" stroke="#7aa7ff" stroke-width="1"/>
<line x1="356.13" y1="300" x2="356.13" y2="54.86" stroke="#7aa7ff" stroke-width="1"/>
<line x1="357.73" y1="300" x2="357.73" y2="53.69" stroke="#48d597" stroke-width="1"/>
<line x1="359.33" y1="300" x2="359.33" y2="49.28" stroke="#48d597" stroke-width="1"/>
<line x1="360.94" y1="300" x2="360.94" y2="55.58" stroke="#48d597" stroke-width="1"/>
<line x1="362.54" y1="300" x2="362.54" y2="58.82" stroke="#48d597" stroke-width="1"/>
<line x1="364.15" y1="300" x2="364.15" y2="53.77" stroke="#7aa7ff" stroke-width="1"/>
<line x1="365.75" y1="300" x2="365.75" y2="55.12" stroke="#7aa7ff" stroke-width="1"/>
<line x1="367.36" y1="300" x2="367.36" y2="53.05" stroke="#48d597" stroke-width="1"/>
<line x1="368.96" y1="300" x2="368.96" y2="61.26" stroke="#7aa7ff" stroke-width="1"/>
<line x1="370.57" y1="300" x2="370.57" y2="44.73" stroke="#48d597" stroke-width="1"/>
<line x1="372.17" y1="300" x2="372.17" y2="43.96" stroke="#7aa7ff" stroke-width="1"/>
<line x1="373.78" y1="300" x2="373.78" y2="46.40" stroke="#48d597" stroke-width="1"/>
<line x1="375.38" y1="300" x2="375.38" y2="63.22" stroke="#7aa7ff" stroke-width="1"/>
<line x1="376.99" y1="300" x2="376.99" y2="39.01" stroke="#48d597" stroke-width="1"/>
<line x1="378.59" y1="300" x2="378.59" y2="48.45" stroke="#48d597" stroke-width="1"/>
<line x1="380.20" y1="300" x2="380.20" y2="66.92" stroke="#48d597" stroke-width="1"/>
<line x1="381.80" y1="300" x2="381.80" y2="52.28" stroke="#48d597" stroke-width="1"/>
<line x1="383.41" y1="300" x2="383.41" y2="60.16" stroke="#48d597" stroke-width="1"/>
<line x1="385.01" y1="300" x2="385.01" y2="48.05" stroke="#48d597" stroke-width="1"/>
<line x1="386.61" y1="300" x2="386.61" y2="45.31" stroke="#7aa7ff" stroke-width="1"/>
<line x1="388.22" y1="300" x2="388.22" y2="38.89" stroke="#48d597" stroke-width="1"/>
<line x1="389.82" y1="300" x2="389.82" y2="43.63" stroke="#48d597" stroke-width="1"/>
<line x1="391.43" y1="300" x2="391.43" y2="40.79" stroke="#7aa7ff" stroke-width="1"/>
<line x1="393.03" y1="300" x2="393.03" y2="56.41" stroke="#7aa7ff" stroke-width="1"/>
<line x1="394.64" y1="300" x2="394.64" y2="55.97" stroke="#48d597" stroke-width="1"/>
<line x1="396.24" y1="300" x2="396.24" y2="47.96" stroke="#7aa7ff" stroke-width="1"/>
<line x1="397.85" y1="300" x2="397.85" y2="58.36" stroke="#48d597" stroke-width="1"/>
<line x1="399.45" y1="300" x2="399.45" y2="45.18" stroke="#7aa7ff" stroke-width="1"/>
<line x1="401.06" y1="300" x2="401.06" y2="40.04" stroke="#7aa7ff" stroke-width="1"/>
<line x1="402.66" y1="300" x2="402.66" y2="41.90" stroke="#7aa7ff" stroke-width="1"/>
<line x1="404.27" y1="300" x2="404.27" y2="47.59" stroke="#7aa7ff" stroke-width="1"/>
<line x1="405.87" y1="300" x2="405.87" y2="48.52" stroke="#48d597" stroke-width="1"/>
<line x1="407.48" y1="300" x2="407.48" y2="60.47" stroke="#7aa7ff" stroke-width="1"/>
<line x1="409.08" y1="300" x2="409.08" y2="40.60" stroke="#7aa7ff" stroke-width="1"/>
<line x1="410.68" y1="300" x2="410.68" y2="51.74" stroke="#7aa7ff" stroke-width="1"/>
<line x1="412.29" y1="300" x2="412.29" y2="45.14" stroke="#7aa7ff" stroke-width="1"/>
<line x1="413.89" y1="300" x2="413.89" y2="52.61" stroke="#48d597" stroke-width="1"/>
<line x1="415.50" y1="300" x2="415.50" y2="42.04" stroke="#7aa7ff" stroke-width="1"/>
<line x1="417.10" y1="300" x2="417.10" y2="59.16" stroke="#7aa7ff" stroke-width="1"/>
<line x1="418.71" y1="300" x2="418.71" y2="47.89" stroke="#48d597" stroke-width="1"/>
<line x1="420.31" y1="300" x2="420.31" y2="52.27" stroke="#48d597" stroke-width="1"/>
<line x1="421.92" y1="300" x2="421.92" y2="58.15" stroke="#7aa7ff" stroke-width="1"/>
<line x1="423.52" y1="300" x2="423.52" y2="61.28" stroke="#48d597" stroke-width="1"/>
<line x1="425.13" y1="300" x2="425.13" y2="64.06" stroke="#7aa7ff" stroke-width="1"/>
<line x1="426.73" y1="300" x2="426.73" y2="45.20" stroke="#7aa7ff" stroke-width="1"/>
<line x1="428.34" y1="300" x2="428.34" y2="49.17" stroke="#48d597" stroke-width="1"/>
<line x1="429.94" y1="300" x2="429.94" y2="46.01" stroke="#7aa7ff" stroke-width="1"/>
<line x1="431.55" y1="300" x2="431.55" y2="35.75" stroke="#48d597" stroke-width="1"/>
<line x1="433.15" y1="300" x2="433.15" y2="55.10" stroke="#7aa7ff" stroke-width="1"/>
<line x1="434.76" y1="300" x2="434.76" y2="51.54" stroke="#7aa7ff" stroke-width="1"/>
<line x1="436.36" y1="300" x2="436.36" y2="56.81" stroke="#7aa7ff" stroke-width="1"/>
<line x1="437.96" y1="300" x2="437.96" y2="43.86" stroke="#7aa7ff" stroke-width="1"/>
<line x1="439.57" y1="300" x2="439.57" y2="54.64" stroke="#48d597" stroke-width="1"/>
<line x1="441.17" y1="300" x2="441.17" y2="39.48" stroke="#48d597" stroke-width="1"/>
<line x1="442.78" y1="300" x2="442.78" y2="54.24" stroke="#7aa7ff" stroke-width="1"/>
<line x1="444.38" y1="300" x2="444.38" y2="46.30" stroke="#48d597" stroke-width="1"/>
<line x1="445.99" y1="300" x2="445.99" y2="63.46" stroke="#48d597" stroke-width="1"/>
<line x1="447.59" y1="300" x2="447.59" y2="46.45" stroke="#7aa7ff" stroke-width="1"/>
<line x1="449.20" y1="300" x2="449.20" y2="44.13" stroke="#7aa7ff" stroke-width="1"/>
<line x1="450.80" y1="300" x2="450.80" y2="30.00" stroke="#555" stroke-width="1"/>
<line x1="452.41" y1="300" x2="452.41" y2="49.57" stroke="#48d597" stroke-width="1"/>
<line x1="454.01" y1="300" x2="454.01" y2="43.32" stroke="#48d597" stroke-width="1"/>
<line x1="455.62" y1="300" x2="455.62" y2="51.62" stroke="#7aa7ff" stroke-width="1"/>
<line x1="457.22" y1="300" x2="457.22" y2="44.64" stroke="#7aa7ff" stroke-width="1"/>
<line x1="458.83" y1="300" x2="458.83" y2="46.91" stroke="#7aa7ff" stroke-width="1"/>
<line x1="460.43" y1="300" x2="460.43" y2="50.38" stroke="#7aa7ff" stroke-width="1"/>
<line x1="462.04" y1="300" x2="462.04" y2="58.24" stroke="#7aa7ff" stroke-width="1"/>
<line x1="463.64" y1="300" x2="463.64" y2="49.07" stroke="#7aa7ff" stroke-width="1"/>
<line x1="465.24" y1="300" x2="465.24" y2="59.26" stroke="#48d597" stroke-width="1"/>
<line x1="466.85" y1="300" x2="466.85" y2="47.56" stroke="#7aa7ff" stroke-width="1"/>
<line x1="468.45" y1="300" x2="468.45" y2="37.78" stroke="#7aa7ff" stroke-width="1"/>
<line x1="470.06" y1="300" x2="470.06" y2="53.09" stroke="#48d597" stroke-width="1"/>
<line x1="471.66" y1="300" x2="471.66" y2="38.65" stroke="#48d597" stroke-width="1"/>
<line x1="473.27" y1="300" x2="473.27" y2="42.46" stroke="#7aa7ff" stroke-width="1"/>
<line x1="474.87" y1="300" x2="474.87" y2="57.24" stroke="#48d597" stroke-width="1"/>
<line x1="476.48" y1="300" x2="476.48" y2="55.51" stroke="#48d597" stroke-width="1"/>
<line x1="478.08" y1="300" x2="478.08" y2="58.22" stroke="#48d597" stroke-width="1"/>
<line x1="479.69" y1="300" x2="479.69" y2="56.73" stroke="#48d597" stroke-width="1"/>
<line x1="481.29" y1="300" x2="481.29" y2="44.00" stroke="#48d597" stroke-width="1"/>
<line x1="482.90" y1="300" x2="482.90" y2="48.40" stroke="#48d597" stroke-width="1"/>
<line x1="484.50" y1="300" x2="484.50" y2="42.53" stroke="#7aa7ff" stroke-width="1"/>
<line x1="486.11" y1="300" x2="486.11" y2="40.54" stroke="#48d597" stroke-width="1"/>
<line x1="487.71" y1="300" x2="487.71" y2="56.84" stroke="#7aa7ff" stroke-width="1"/>
<line x1="489.32" y1="300" x2="489.32" y2="40.40" stroke="#7aa7ff" stroke-width="1"/>
<line x1="490.92" y1="300" x2="490.92" y2="43.69" stroke="#48d597" stroke-width="1"/>
<line x1="492.52" y1="300" x2="492.52" y2="55.65" stroke="#7aa7ff" stroke-width="1"/>
<line x1="494.13" y1="300" x2="494.13" y2="39.14" stroke="#7aa7ff" stroke-width="1"/>
<line x1="495.73" y1="300" x2="495.73" y2="34.93" stroke="#48d597" stroke-width="1"/>
<line x1="497.34" y1="300" x2="497.34" y2="30.60" stroke="#48d597" stroke-width="1"/>
<line x1="498.94" y1="300" x2="498.94" y2="45.05" stroke="#48d597" stroke-width="1"/>
<line x1="500.55" y1="300" x2="500.55" y2="49.71" stroke="#48d597" stroke-width="1"/>
<line x1="502.15" y1="300" x2="502.15" y2="54.84" stroke="#7aa7ff" stroke-width="1"/>
<line x1="503.76" y1="300" x2="503.76" y2="47.51" stroke="#7aa7ff" stroke-width="1"/>
<line x1="505.36" y1="300" x2="505.36" y2="48.04" stroke="#7aa7ff" stroke-width="1"/>
<line x1="506.97" y1="300" x2="506.97" y2="54.82" stroke="#48d597" stroke-width="1"/>
<line x1="508.57" y1="300" x2="508.57" y2="38.78" stroke="#7aa7ff" stroke-width="1"/>
<line x1="510.18" y1="300" x2="510.18" y2="41.75" stroke="#7aa7ff" stroke-width="1"/>
<line x1="511.78" y1="300" x2="511.78" y2="44.17" stroke="#48d597" stroke-width="1"/>
<line x1="513.39" y1="300" x2="513.39" y2="47.54" stroke="#7aa7ff" stroke-width="1"/>
<line x1="514.99" y1="300" x2="514.99" y2="46.24" stroke="#7aa7ff" stroke-width="1"/>
<line x1="516.59" y1="300" x2="516.59" y2="46.60" stroke="#7aa7ff" stroke-width="1"/>
<line x1="518.20" y1="300" x2="518.20" y2="65.13" stroke="#48d597" stroke-width="1"/>
<line x1="519.80" y1="300" x2="519.80" y2="50.17" stroke="#7aa7ff" stroke-width="1"/>
<line x1="521.41" y1="300" x2="521.41" y2="41.74" stroke="#48d597" stroke-width="1"/>
<line x1="523.01" y1="300" x2="523.01" y2="49.85" stroke="#7aa7ff" stroke-width="1"/>
<line x1="524.62" y1="300" x2="524.62" y2="42.84" stroke="#48d597" stroke-width="1"/>
<line x1="526.22" y1="300" x2="526.22" y2="52.52" stroke="#7aa7ff" stroke-width="1"/>
<line x1="527.83" y1="300" x2="527.83" y2="50.85" stroke="#48d597" stroke-width="1"/>
<line x1="529.43" y1="300" x2="529.43" y2="47.15" stroke="#48d597" stroke-width="1"/>
<line x1="531.04" y1="300" x2="531.04" y2="48.59" stroke="#7aa7ff" stroke-width="1"/>
<line x1="532.64" y1="300" x2="532.64" y2="45.26" stroke="#7aa7ff" stroke-width="1"/>
<line x1="534.25" y1="300" x2="534.25" y2="51.06" stroke="#7aa7ff" stroke-width="1"/>
<line x1="535.85" y1="300" x2="535.85" y2="40.22" stroke="#48d597" stroke-width="1"/>
<line x1="537.46" y1="300" x2="537.46" y2="49.16" stroke="#7aa7ff" stroke-width="1"/>
<line x1="539.06" y1="300" x2="539.06" y2="53.30" stroke="#7aa7ff" stroke-width="1"/>
<line x1="540.67" y1="300" x2="540.67" y2="51.68" stroke="#7aa7ff" stroke-width="1"/>
<line x1="542.27" y1="300" x2="542.27" y2="59.74" stroke="#7aa7ff" stroke-width="1"/>
<line x1="543.87" y1="300" x2="543.87" y2="56.54" stroke="#48d597" stroke-width="1"/>
<line x1="545.48" y1="300" x2="545.48" y2="62.53" stroke="#48d597" stroke-width="1"/>
<line x1="547.08" y1="300" x2="547.08" y2="55.06" stroke="#48d597" stroke-width="1"/>
<line x1="548.69" y1="300" x2="548.69" y2="51.01" stroke="#48d597" stroke-width="1"/>
<line x1="550.29" y1="300" x2="550.29" y2="46.54" stroke="#7aa7ff" stroke-width="1"/>
<line x1="551.90" y1="300" x2="551.90" y2="58.14" stroke="#7aa7ff" stroke-width="1"/>
<line x1="553.50" y1="300" x2="553.50" y2="45.17" stroke="#48d597" stroke-width="1"/>
<line x1="555.11" y1="300" x2="555.11" y2="58.32" stroke="#48d597" stroke-width="1"/>
<line x1="556.71" y1="300" x2="556.71" y2="47.96" stroke="#48d597" stroke-width="1"/>
<line x1="558.32" y1="300" x2="558.32" y2="49.06" stroke="#48d597" stroke-width="1"/>
<line x1="559.92" y1="300" x2="559.92" y2="58.83" stroke="#7aa7ff" stroke-width="1"/>
<line x1="561.53" y1="300" x2="561.53" y2="63.51" stroke="#48d597" stroke-width="1"/>
<line x1="563.13" y1="300" x2="563.13" y2="61.83" stroke="#48d597" stroke-width="1"/>
<line x1="564.74" y1="300" x2="564.74" y2="56.05" stroke="#7aa7ff" stroke-width="1"/>
<line x1="566.34" y1="300" x2="566.34" y2="60.16" stroke="#7aa7ff" stroke-width="1"/>
<line x1="567.95" y1="300" x2="567.95" y2="56.94" stroke="#7aa7ff" stroke-width="1"/>
<line x1="569.55" y1="300" x2="569.55" y2="62.38" stroke="#48d597" stroke-width="1"/>
<line x1="571.15" y1="300" x2="571.15" y2="46.75" stroke="#7aa7ff" stroke-width="1"/>
<line x1="572.76" y1="300" x2="572.76" y2="51.46" stroke="#48d597" stroke-width="1"/>
<line x1="574.36" y1="300" x2="574.36" y2="52.32" stroke="#48d597" stroke-width="1"/>
<line x1="575.97" y1="300" x2="575.97" y2="55.46" stroke="#7aa7ff" stroke-width="1"/>
<line x1="577.57" y1="300" x2="577.57" y2="49.23" stroke="#48d597" stroke-width="1"/>
<line x1="579.18" y1="300" x2="579.18" y2="61.35" stroke="#48d597" stroke-width="1"/>
<line x1="580.78" y1="300" x2="580.78" y2="198.68" stroke="#555" stroke-width="1"/>
<line x1="582.39" y1="300" x2="582.39" y2="241.13" stroke="#555" stroke-width="1"/>
<line x1="583.99" y1="300" x2="583.99" y2="252.71" stroke="#555" stroke-width="1"/>
<line x1="585.60" y1="300" x2="585.60" y2="257.83" stroke="#555" stroke-width="1"/>
<line x1="587.20" y1="300" x2="587.20" y2="259.85" stroke="#555" stroke-width="1"/>
<line x1="588.81" y1="300" x2="588.81" y2="261.33" stroke="#555" stroke-width="1"/>
<line x1="590.41" y1="300" x2="590.41" y2="264.20" stroke="#555" stroke-width="1"/>
<line x1="592.02" y1="300" x2="592.02" y2="266.04" stroke="#555" stroke-width="1"/>
<line x1="593.62" y1="300" x2="593.62" y2="262.80" stroke="#555" stroke-width="1"/>
<line x1="595.23" y1="300" x2="595.23" y2="266.56" stroke="#555" stroke-width="1"/>
<line x1="596.83" y1="300" x2="596.83" y2="266.08" stroke="#555" stroke-width="1"/>
<line x1="598.43" y1="300" x2="598.43" y2="266.93" stroke="#555" stroke-width="1"/>
<line x1="600.04" y1="300" x2="600.04" y2="266.77" stroke="#555" stroke-width="1"/>
<line x1="601.64" y1="300" x2="601.64" y2="270.66" stroke="#555" stroke-width="1"/>
<line x1="603.25" y1="300" x2="603.25" y2="267.97" stroke="#555" stroke-width="1"/>
<line x1="604.85" y1="300" x2="604.85" y2="266.31" stroke="#555" stroke-width="1"/>
<line x1="606.46" y1="300" x2="606.46" y2="267.77" stroke="#555" stroke-width="1"/>
<line x1="608.06" y1="300" x2="608.06" y2="268.77" stroke="#555" stroke-width="1"/>
<line x1="609.67" y1="300" x2="609.67" y2="267.53" stroke="#555" stroke-width="1"/>
<line x1="611.27" y1="300" x2="611.27" y2="267.75" stroke="#555" stroke-width="1"/>
<line x1="612.88" y1="300" x2="612.88" y2="267.44" stroke="#555" stroke-width="1"/>
<line x1="614.48" y1="300" x2="614.48" y2="268.97" stroke="#555" stroke-width="1"/>
<line x1="616.09" y1="300" x2="616.09" y2="267.55" stroke="#555" stroke-width="1"/>
<line x1="617.69" y1="300" x2="617.69" y2="266.18" stroke="#555" stroke-width="1"/>
<line x1="619.30" y1="300" x2="619.30" y2="268.02" stroke="#555" stroke-width="1"/>
<line x1="620.90" y1="300" x2="620.90" y2="269.06" stroke="#555" stroke-width="1"/>
<line x1="622.50" y1="300" x2="622.50" y2="267.06" stroke="#555" stroke-width="1"/>
<line x1="624.11" y1="300" x2="624.11" y2="269.34" stroke="#555" stroke-width="1"/>
<line x1="625.71" y1="300" x2="625.71" y2="268.79" stroke="#555" stroke-width="1"/>
<line x1="627.32" y1="300" x2="627.32" y2="267.44" stroke="#555" stroke-width="1"/>
<line x1="628.92" y1="300" x2="628.92" y2="267.88" stroke="#555" stroke-width="1"/>
<line x1="630.53" y1="300" x2="630.53" y2="269.57" stroke="#555" stroke-width="1"/>
<line x1="632.13" y1="300" x2="632.13" y2="270.28" stroke="#555" stroke-width="1"/>
<line x1="633.74" y1="300" x2="633.74" y2="267.26" stroke="#555" stroke-width="1"/>
<line x1="635.34" y1="300" x2="635.34" y2="269.14" stroke="#555" stroke-width="1"/>
<line x1="636.95" y1="300" x2="636.95" y2="268.92" stroke="#555" stroke-width="1"/>
<line x1="638.55" y1="300" x2="638.55" y2="268.68" stroke="#555" stroke-width="1"/>
<line x1="640.16" y1="300" x2="640.16" y2="269.06" stroke="#555" stroke-width="1"/>
<line x1="641.76" y1="300" x2="641.76" y2="270.80" stroke="#555" stroke-width="1"/>
<line x1="643.37" y1="300" x2="643.37" y2="270.10" stroke="#555" stroke-width="1"/>
<line x1="644.97" y1="300" x2="644.97" y2="269.10" stroke="#555" stroke-width="1"/>
<line x1="646.58" y1="300" x2="646.58" y2="270.43" stroke="#555" stroke-width="1"/>
<line x1="648.18" y1="300" x2="648.18" y2="269.32" stroke="#555" stroke-width="1"/>
<line x1="649.78" y1="300" x2="649.78" y2="270.13" stroke="#555" stroke-width="1"/>
<line x1="651.39" y1="300" x2="651.39" y2="270.65" stroke="#555" stroke-width="1"/>
<line x1="652.99" y1="300" x2="652.99" y2="270.82" stroke="#555" stroke-width="1"/>
<line x1="654.60" y1="300" x2="654.60" y2="270.81" stroke="#555" stroke-width="1"/>
<line x1="656.20" y1="300" x2="656.20" y2="272.74" stroke="#555" stroke-width="1"/>
<line x1="657.81" y1="300" x2="657.81" y2="270.78" stroke="#555" stroke-width="1"/>
<line x1="659.41" y1="300" x2="659.41" y2="269.84" stroke="#555" stroke-width="1"/>
<line x1="661.02" y1="300" x2="661.02" y2="271.77" stroke="#555" stroke-width="1"/>
<line x1="662.62" y1="300" x2="662.62" y2="270.18" stroke="#555" stroke-width="1"/>
<line x1="664.23" y1="300" x2="664.23" y2="269.35" stroke="#555" stroke-width="1"/>
<line x1="665.83" y1="300" x2="665.83" y2="271.71" stroke="#555" stroke-width="1"/>
<line x1="667.44" y1="300" x2="667.44" y2="271.22" stroke="#555" stroke-width="1"/>
<line x1="669.04" y1="300" x2="669.04" y2="271.66" stroke="#555" stroke-width="1"/>
<line x1="670.65" y1="300" x2="670.65" y2="269.74" stroke="#555" stroke-width="1"/>
<line x1="672.25" y1="300" x2="672.25" y2="269.34" stroke="#555" stroke-width="1"/>
<line x1="673.86" y1="300" x2="673.86" y2="270.93" stroke="#555" stroke-width="1"/>
<line x1="675.46" y1="300" x2="675.46" y2="270.48" stroke="#555" stroke-width="1"/>
<line x1="677.06" y1="300" x2="677.06" y2="268.48" stroke="#555" stroke-width="1"/>
<line x1="678.67" y1="300" x2="678.67" y2="272.07" stroke="#555" stroke-width="1"/>
<line x1="680.27" y1="300" x2="680.27" y2="270.87" stroke="#555" stroke-width="1"/>
<line x1="681.88" y1="300" x2="681.88" y2="271.88" stroke="#555" stroke-width="1"/>
<line x1="683.48" y1="300" x2="683.48" y2="271.13" stroke="#555" stroke-width="1"/>
<line x1="685.09" y1="300" x2="685.09" y2="269.71" stroke="#555" stroke-width="1"/>
<line x1="686.69" y1="300" x2="686.69" y2="270.89" stroke="#555" stroke-width="1"/>
<line x1="688.30" y1="300" x2="688.30" y2="269.79" stroke="#555" stroke-width="1"/>
<line x1="689.90" y1="300" x2="689.90" y2="264.62" stroke="#555" stroke-width="1"/>
<line x1="691.51" y1="300" x2="691.51" y2="270.82" stroke="#555" stroke-width="1"/>
<line x1="693.11" y1="300" x2="693.11" y2="271.86" stroke="#555" stroke-width="1"/>
<line x1="694.72" y1="300" x2="694.72" y2="270.33" stroke="#555" stroke-width="1"/>
<line x1="696.32" y1="300" x2="696.32" y2="273.38" stroke="#555" stroke-width="1"/>
<line x1="697.93" y1="300" x2="697.93" y2="271.14" stroke="#555" stroke-width="1"/>
<line x1="699.53" y1="300" x2="699.53" y2="271.58" stroke="#555" stroke-width="1"/>
<line x1="701.14" y1="300" x2="701.14" y2="271.15" stroke="#555" stroke-width="1"/>
<line x1="702.74" y1="300" x2="702.74" y2="269.04" stroke="#555" stroke-width="1"/>
<line x1="704.34" y1="300" x2="704.34" y2="271.79" stroke="#555" stroke-width="1"/>
<line x1="705.95" y1="300" x2="705.95" y2="270.67" stroke="#555" stroke-width="1"/>
<line x1="707.55" y1="300" x2="707.55" y2="270.99" stroke="#555" stroke-width="1"/>
<line x1="709.16" y1="300" x2="709.16" y2="271.30" stroke="#555" stroke-width="1"/>
<line x1="710.76" y1="300" x2="710.76" y2="271.50" stroke="#555" stroke-width="1"/>
<line x1="712.37" y1="300" x2="712.37" y2="269.45" stroke="#555" stroke-width="1"/>
<line x1="713.97" y1="300" x2="713.97" y2="271.65" stroke="#555" stroke-width="1"/>
<line x1="715.58" y1="300" x2="715.58" y2="270.68" stroke="#555" stroke-width="1"/>
<line x1="717.18" y1="300" x2="717.18" y2="269.75" stroke="#555" stroke-width="1"/>
<line x1="718.79" y1="300" x2="718.79" y2="272.43" stroke="#555" stroke-width="1"/>
<line x1="720.39" y1="300" x2="720.39" y2="269.17" stroke="#555" stroke-width="1"/>
<line x1="722.00" y1="300" x2="722.00" y2="272.49" stroke="#555" stroke-width="1"/>
<line x1="723.60" y1="300" x2="723.60" y2="271.58" stroke="#555" stroke-width="1"/>
<line x1="725.21" y1="300" x2="725.21" y2="270.79" stroke="#555" stroke-width="1"/>
<line x1="726.81" y1="300" x2="726.81" y2="271.85" stroke="#555" stroke-width="1"/>
<line x1="728.41" y1="300" x2="728.41" y2="270.95" stroke="#555" stroke-width="1"/>
<line x1="730.02" y1="300" x2="730.02" y2="271.37" stroke="#555" stroke-width="1"/>
<line x1="731.62" y1="300" x2="731.62" y2="269.96" stroke="#555" stroke-width="1"/>
<line x1="733.23" y1="300" x2="733.23" y2="270.97" stroke="#555" stroke-width="1"/>
<line x1="734.83" y1="300" x2="734.83" y2="271.61" stroke="#555" stroke-width="1"/>
<line x1="736.44" y1="300" x2="736.44" y2="270.78" stroke="#555" stroke-width="1"/>
<line x1="738.04" y1="300" x2="738.04" y2="268.48" stroke="#555" stroke-width="1"/>
<line x1="739.65" y1="300" x2="739.65" y2="271.55" stroke="#555" stroke-width="1"/>
<line x1="741.25" y1="300" x2="741.25" y2="271.81" stroke="#555" stroke-width="1"/>
<line x1="742.86" y1="300" x2="742.86" y2="270.98" stroke="#555" stroke-width="1"/>
<line x1="744.46" y1="300" x2="744.46" y2="271.48" stroke="#555" stroke-width="1"/>
<line x1="746.07" y1="300" x2="746.07" y2="272.11" stroke="#555" stroke-width="1"/>
<line x1="747.67" y1="300" x2="747.67" y2="271.60" stroke="#555" stroke-width="1"/>
<line x1="749.28" y1="300" x2="749.28" y2="270.63" stroke="#555" stroke-width="1"/>
<line x1="750.88" y1="300" x2="750.88" y2="272.34" stroke="#555" stroke-width="1"/>
<line x1="752.49" y1="300" x2="752.49" y2="272.78" stroke="#555" stroke-width="1"/>
<line x1="754.09" y1="300" x2="754.09" y2="271.34" stroke="#555" stroke-width="1"/>
<line x1="755.69" y1="300" x2="755.69" y2="270.82" stroke="#555" stroke-width="1"/>
<line x1="757.30" y1="300" x2="757.30" y2="272.95" stroke="#555" stroke-width="1"/>
<line x1="758.90" y1="300" x2="758.90" y2="273.34" stroke="#555" stroke-width="1"/>
<line x1="760.51" y1="300" x2="760.51" y2="272.27" stroke="#555" stroke-width="1"/>
<line x1="762.11" y1="300" x2="762.11" y2="274.04" stroke="#555" stroke-width="1"/>
<line x1="763.72" y1="300" x2="763.72" y2="272.30" stroke="#555" stroke-width="1"/>
<line x1="765.32" y1="300" x2="765.32" y2="272.07" stroke="#555" stroke-width="1"/>
<line x1="766.93" y1="300" x2="766.93" y2="272.67" stroke="#555" stroke-width="1"/>
<line x1="768.53" y1="300" x2="768.53" y2="272.65" stroke="#555" stroke-width="1"/>
<line x1="770.14" y1="300" x2="770.14" y2="271.85" stroke="#555" stroke-width="1"/>
<line x1="771.74" y1="300" x2="771.74" y2="272.45" stroke="#555" stroke-width="1"/>
<line x1="773.35" y1="300" x2="773.35" y2="272.87" stroke="#555" stroke-width="1"/>
<line x1="774.95" y1="300" x2="774.95" y2="272.98" stroke="#555" stroke-width="1"/>
<line x1="776.56" y1="300" x2="776.56" y2="273.52" stroke="#555" stroke-width="1"/>
<line x1="778.16" y1="300" x2="778.16" y2="273.52" stroke="#555" stroke-width="1"/>
<line x1="779.77" y1="300" x2="779.77" y2="270.49" stroke="#555" stroke-width="1"/>
<line x1="781.37" y1="300" x2="781.37" y2="274.14" stroke="#555" stroke-width="1"/>
<line x1="782.97" y1="300" x2="782.97" y2="272.01" stroke="#555" stroke-width="1"/>
<line x1="784.58" y1="300" x2="784.58" y2="272.73" stroke="#555" stroke-width="1"/>
<line x1="786.18" y1="300" x2="786.18" y2="272.89" stroke="#555" stroke-width="1"/>
<line x1="787.79" y1="300" x2="787.79" y2="273.18" stroke="#555" stroke-width="1"/>
<line x1="789.39" y1="300" x2="789.39" y2="274.22" stroke="#555" stroke-width="1"/>
<line x1="791.00" y1="300" x2="791.00" y2="273.10" stroke="#555" stroke-width="1"/>
<line x1="792.60" y1="300" x2="792.60" y2="272.87" stroke="#555" stroke-width="1"/>
<line x1="794.21" y1="300" x2="794.21" y2="271.44" stroke="#555" stroke-width="1"/>
<line x1="795.81" y1="300" x2="795.81" y2="273.16" stroke="#555" stroke-width="1"/>
<line x1="797.42" y1="300" x2="797.42" y2="272.98" stroke="#555" stroke-width="1"/>
<line x1="799.02" y1="300" x2="799.02" y2="273.38" stroke="#555" stroke-width="1"/>
<line x1="800.63" y1="300" x2="800.63" y2="273.24" stroke="#555" stroke-width="1"/>
<line x1="802.23" y1="300" x2="802.23" y2="271.98" stroke="#555" stroke-width="1"/>
<line x1="803.84" y1="300" x2="803.84" y2="275.16" stroke="#555" stroke-width="1"/>
<line x1="805.44" y1="300" x2="805.44" y2="272.74" stroke="#555" stroke-width="1"/>
<line x1="807.05" y1="300" x2="807.05" y2="273.26" stroke="#555" stroke-width="1"/>
<line x1="808.65" y1="300" x2="808.65" y2="270.80" stroke="#555" stroke-width="1"/>
<line x1="810.25" y1="300" x2="810.25" y2="272.04" stroke="#555" stroke-width="1"/>
<line x1="811.86" y1="300" x2="811.86" y2="272.82" stroke="#555" stroke-width="1"/>
<line x1="813.46" y1="300" x2="813.46" y2="272.12" stroke="#555" stroke-width="1"/>
<line x1="815.07" y1="300" x2="815.07" y2="272.33" stroke="#555" stroke-width="1"/>
<line x1="816.67" y1="300" x2="816.67" y2="273.75" stroke="#555" stroke-width="1"/>
<line x1="818.28" y1="300" x2="818.28" y2="274.49" stroke="#555" stroke-width="1"/>
<line x1="819.88" y1="300" x2="819.88" y2="273.07" stroke="#555" stroke-width="1"/>
<line x1="821.49" y1="300" x2="821.49" y2="272.97" stroke="#555" stroke-width="1"/>
<line x1="823.09" y1="300" x2="823.09" y2="272.51" stroke="#555" stroke-width="1"/>
<line x1="824.70" y1="300" x2="824.70" y2="272.89" stroke="#555" stroke-width="1"/>
<line x1="826.30" y1="300" x2="826.30" y2="272.85" stroke="#555" stroke-width="1"/>
<line x1="827.91" y1="300" x2="827.91" y2="274.98" stroke="#555" stroke-width="1"/>
<line x1="829.51" y1="300" x2="829.51" y2="276.87" stroke="#555" stroke-width="1"/>
<line x1="831.12" y1="300" x2="831.12" y2="280.89" stroke="#555" stroke-width="1"/>
<line x1="832.72" y1="300" x2="832.72" y2="282.44" stroke="#555" stroke-width="1"/>
<line x1="834.32" y1="300" x2="834.32" y2="286.92" stroke="#555" stroke-width="1"/>
<line x1="835.93" y1="300" x2="835.93" y2="289.47" stroke="#555" stroke-width="1"/>
<line x1="837.53" y1="300" x2="837.53" y2="291.61" stroke="#555" stroke-width="1"/>
<line x1="839.14" y1="300" x2="839.14" y2="293.23" stroke="#555" stroke-width="1"/>
<line x1="840.74" y1="300" x2="840.74" y2="294.16" stroke="#555" stroke-width="1"/>
<line x1="842.35" y1="300" x2="842.35" y2="294.32" stroke="#555" stroke-width="1"/>
<line x1="843.95" y1="300" x2="843.95" y2="294.28" stroke="#555" stroke-width="1"/>
<line x1="845.56" y1="300" x2="845.56" y2="294.26" stroke="#555" stroke-width="1"/>
<line x1="847.16" y1="300" x2="847.16" y2="294.53" stroke="#555" stroke-width="1"/>
<line x1="848.77" y1="300" x2="848.77" y2="294.60" stroke="#555" stroke-width="1"/>
<line x1="850.37" y1="300" x2="850.37" y2="294.56" stroke="#555" stroke-width="1"/>
<line x1="851.98" y1="300" x2="851.98" y2="294.69" stroke="#555" stroke-width="1"/>
<line x1="853.58" y1="300" x2="853.58" y2="294.65" stroke="#555" stroke-width="1"/>
<line x1="855.19" y1="300" x2="855.19" y2="294.75" stroke="#555" stroke-width="1"/>
<line x1="856.79" y1="300" x2="856.79" y2="294.82" stroke="#555" stroke-width="1"/>
<line x1="858.40" y1="300" x2="858.40" y2="294.73" stroke="#555" stroke-width="1"/>
<line x1="860.00" y1="300" x2="860.00" y2="294.83" stroke="#555" stroke-width="1"/>
</svg>
