<?xml version="1.0" encoding="UTF-8"?>
<svg xmlns="http://www.w3.org/2000/svg" width="980" height="460" viewBox="0 0 980 460">
<rect width="980" height="460" fill="#111"/>
<line x1="40" y1="360" x2="940" y2="360" stroke="#555" stroke-width="1"/>
<rect x="55.00" y="359.40" width="11.06" height="0.60" fill="#ffcc66"/>
<text x="55.00" y="382" fill="#bbb" font-size="8" transform="rotate(55 55.00 382)">4.00/-12</text>
<rect x="70.36" y="359.36" width="11.06" height="0.64" fill="#ffcc66"/>
<text x="70.36" y="382" fill="#bbb" font-size="8" transform="rotate(55 70.36 382)">4.00/-8</text>
<rect x="85.71" y="359.27" width="11.06" height="0.73" fill="#ffcc66"/>
<text x="85.71" y="382" fill="#bbb" font-size="8" transform="rotate(55 85.71 382)">4.00/-4</text>
<rect x="101.07" y="359.40" width="11.06" height="0.60" fill="#ffcc66"/>
<text x="101.07" y="382" fill="#bbb" font-size="8" transform="rotate(55 101.07 382)">4.00/0</text>
<rect x="116.43" y="359.36" width="11.06" height="0.64" fill="#ffcc66"/>
<text x="116.43" y="382" fill="#bbb" font-size="8" transform="rotate(55 116.43 382)">4.00/4</text>
<rect x="131.79" y="359.27" width="11.06" height="0.73" fill="#ffcc66"/>
<text x="131.79" y="382" fill="#bbb" font-size="8" transform="rotate(55 131.79 382)">4.00/8</text>
<rect x="147.14" y="359.40" width="11.06" height="0.60" fill="#ffcc66"/>
<text x="147.14" y="382" fill="#bbb" font-size="8" transform="rotate(55 147.14 382)">4.00/12</text>
<rect x="162.50" y="359.39" width="11.06" height="0.61" fill="#ffcc66"/>
<text x="162.50" y="382" fill="#bbb" font-size="8" transform="rotate(55 162.50 382)">5.00/-12</text>
<rect x="177.86" y="359.27" width="11.06" height="0.73" fill="#ffcc66"/>
<text x="177.86" y="382" fill="#bbb" font-size="8" transform="rotate(55 177.86 382)">5.00/-8</text>
<rect x="193.21" y="359.37" width="11.06" height="0.63" fill="#ffcc66"/>
<text x="193.21" y="382" fill="#bbb" font-size="8" transform="rotate(55 193.21 382)">5.00/-4</text>
<rect x="208.57" y="359.43" width="11.06" height="0.57" fill="#ffcc66"/>
<text x="208.57" y="382" fill="#bbb" font-size="8" transform="rotate(55 208.57 382)">5.00/0</text>
<rect x="223.93" y="359.28" width="11.06" height="0.72" fill="#ffcc66"/>
<text x="223.93" y="382" fill="#bbb" font-size="8" transform="rotate(55 223.93 382)">5.00/4</text>
<rect x="239.29" y="359.36" width="11.06" height="0.64" fill="#ffcc66"/>
<text x="239.29" y="382" fill="#bbb" font-size="8" transform="rotate(55 239.29 382)">5.00/8</text>
<rect x="254.64" y="359.40" width="11.06" height="0.60" fill="#ffcc66"/>
<text x="254.64" y="382" fill="#bbb" font-size="8" transform="rotate(55 254.64 382)">5.00/12</text>
<rect x="270.00" y="359.51" width="11.06" height="0.49" fill="#ffcc66"/>
<text x="270.00" y="382" fill="#bbb" font-size="8" transform="rotate(55 270.00 382)">5.25/-12</text>
<rect x="285.36" y="359.12" width="11.06" height="0.88" fill="#ffcc66"/>
<text x="285.36" y="382" fill="#bbb" font-size="8" transform="rotate(55 285.36 382)">5.25/-8</text>
<rect x="300.71" y="359.39" width="11.06" height="0.61" fill="#ffcc66"/>
<text x="300.71" y="382" fill="#bbb" font-size="8" transform="rotate(55 300.71 382)">5.25/-4</text>
<rect x="316.07" y="359.52" width="11.06" height="0.48" fill="#ffcc66"/>
<text x="316.07" y="382" fill="#bbb" font-size="8" transform="rotate(55 316.07 382)">5.25/0</text>
<rect x="331.43" y="359.10" width="11.06" height="0.90" fill="#ffcc66"/>
<text x="331.43" y="382" fill="#bbb" font-size="8" transform="rotate(55 331.43 382)">5.25/4</text>
<rect x="346.79" y="359.39" width="11.06" height="0.61" fill="#ffcc66"/>
<text x="346.79" y="382" fill="#bbb" font-size="8" transform="rotate(55 346.79 382)">5.25/8</text>
<rect x="362.14" y="359.51" width="11.06" height="0.49" fill="#ffcc66"/>
<text x="362.14" y="382" fill="#bbb" font-size="8" transform="rotate(55 362.14 382)">5.25/12</text>
<rect x="377.50" y="359.46" width="11.06" height="0.54" fill="#ffcc66"/>
<text x="377.50" y="382" fill="#bbb" font-size="8" transform="rotate(55 377.50 382)">5.30/-12</text>
<rect x="392.86" y="359.19" width="11.06" height="0.81" fill="#ffcc66"/>
<text x="392.86" y="382" fill="#bbb" font-size="8" transform="rotate(55 392.86 382)">5.30/-8</text>
<rect x="408.21" y="359.39" width="11.06" height="0.61" fill="#ffcc66"/>
<text x="408.21" y="382" fill="#bbb" font-size="8" transform="rotate(55 408.21 382)">5.30/-4</text>
<rect x="423.57" y="359.44" width="11.06" height="0.56" fill="#ffcc66"/>
<text x="423.57" y="382" fill="#bbb" font-size="8" transform="rotate(55 423.57 382)">5.30/0</text>
<rect x="438.93" y="359.18" width="11.06" height="0.82" fill="#ffcc66"/>
<text x="438.93" y="382" fill="#bbb" font-size="8" transform="rotate(55 438.93 382)">5.30/4</text>
<rect x="454.29" y="359.37" width="11.06" height="0.63" fill="#ffcc66"/>
<text x="454.29" y="382" fill="#bbb" font-size="8" transform="rotate(55 454.29 382)">5.30/8</text>
<rect x="469.64" y="359.47" width="11.06" height="0.53" fill="#ffcc66"/>
<text x="469.64" y="382" fill="#bbb" font-size="8" transform="rotate(55 469.64 382)">5.30/12</text>
<rect x="485.00" y="359.39" width="11.06" height="0.61" fill="#ffcc66"/>
<text x="485.00" y="382" fill="#bbb" font-size="8" transform="rotate(55 485.00 382)">5.33/-12</text>
<rect x="500.36" y="359.32" width="11.06" height="0.68" fill="#ffcc66"/>
<text x="500.36" y="382" fill="#bbb" font-size="8" transform="rotate(55 500.36 382)">5.33/-8</text>
<rect x="515.71" y="359.35" width="11.06" height="0.65" fill="#ffcc66"/>
<text x="515.71" y="382" fill="#bbb" font-size="8" transform="rotate(55 515.71 382)">5.33/-4</text>
<rect x="531.07" y="359.43" width="11.06" height="0.57" fill="#ffcc66"/>
<text x="531.07" y="382" fill="#bbb" font-size="8" transform="rotate(55 531.07 382)">5.33/0</text>
<rect x="546.43" y="359.27" width="11.06" height="0.73" fill="#ffcc66"/>
<text x="546.43" y="382" fill="#bbb" font-size="8" transform="rotate(55 546.43 382)">5.33/4</text>
<rect x="561.79" y="359.34" width="11.06" height="0.66" fill="#ffcc66"/>
<text x="561.79" y="382" fill="#bbb" font-size="8" transform="rotate(55 561.79 382)">5.33/8</text>
<rect x="577.14" y="359.45" width="11.06" height="0.55" fill="#ffcc66"/>
<text x="577.14" y="382" fill="#bbb" font-size="8" transform="rotate(55 577.14 382)">5.33/12</text>
<rect x="592.50" y="359.25" width="11.06" height="0.75" fill="#ffcc66"/>
<text x="592.50" y="382" fill="#bbb" font-size="8" transform="rotate(55 592.50 382)">5.36/-12</text>
<rect x="607.86" y="359.35" width="11.06" height="0.65" fill="#ffcc66"/>
<text x="607.86" y="382" fill="#bbb" font-size="8" transform="rotate(55 607.86 382)">5.36/-8</text>
<rect x="623.21" y="359.44" width="11.06" height="0.56" fill="#ffcc66"/>
<text x="623.21" y="382" fill="#bbb" font-size="8" transform="rotate(55 623.21 382)">5.36/-4</text>
<rect x="638.57" y="359.28" width="11.06" height="0.72" fill="#ffcc66"/>
<text x="638.57" y="382" fill="#bbb" font-size="8" transform="rotate(55 638.57 382)">5.36/0</text>
<rect x="653.93" y="359.30" width="11.06" height="0.70" fill="#ffcc66"/>
<text x="653.93" y="382" fill="#bbb" font-size="8" transform="rotate(55 653.93 382)">5.36/4</text>
<rect x="669.29" y="359.46" width="11.06" height="0.54" fill="#ffcc66"/>
<text x="669.29" y="382" fill="#bbb" font-size="8" transform="rotate(55 669.29 382)">5.36/8</text>
<rect x="684.64" y="359.29" width="11.06" height="0.71" fill="#ffcc66"/>
<text x="684.64" y="382" fill="#bbb" font-size="8" transform="rotate(55 684.64 382)">5.36/12</text>
<rect x="700.00" y="359.33" width="11.06" height="0.67" fill="#ffcc66"/>
<text x="700.00" y="382" fill="#bbb" font-size="8" transform="rotate(55 700.00 382)">5.50/-12</text>
<rect x="715.36" y="359.39" width="11.06" height="0.61" fill="#ffcc66"/>
<text x="715.36" y="382" fill="#bbb" font-size="8" transform="rotate(55 715.36 382)">5.50/-8</text>
<rect x="730.71" y="359.27" width="11.06" height="0.73" fill="#ffcc66"/>
<text x="730.71" y="382" fill="#bbb" font-size="8" transform="rotate(55 730.71 382)">5.50/-4</text>
<rect x="746.07" y="359.36" width="11.06" height="0.64" fill="#ffcc66"/>
<text x="746.07" y="382" fill="#bbb" font-size="8" transform="rotate(55 746.07 382)">5.50/0</text>
<rect x="761.43" y="359.42" width="11.06" height="0.58" fill="#ffcc66"/>
<text x="761.43" y="382" fill="#bbb" font-size="8" transform="rotate(55 761.43 382)">5.50/4</text>
<rect x="776.79" y="359.27" width="11.06" height="0.73" fill="#ffcc66"/>
<text x="776.79" y="382" fill="#bbb" font-size="8" transform="rotate(55 776.79 382)">5.50/8</text>
<rect x="792.14" y="359.41" width="11.06" height="0.59" fill="#ffcc66"/>
<text x="792.14" y="382" fill="#bbb" font-size="8" transform="rotate(55 792.14 382)">5.50/12</text>
<rect x="807.50" y="60.00" width="11.06" height="300.00" fill="#ffcc66"/>
<text x="807.50" y="382" fill="#bbb" font-size="8" transform="rotate(55 807.50 382)">6.00/-12</text>
<rect x="822.86" y="360.00" width="11.06" height="0.00" fill="#ffcc66"/>
<text x="822.86" y="382" fill="#bbb" font-size="8" transform="rotate(55 822.86 382)">6.00/-8</text>
<rect x="838.21" y="360.00" width="11.06" height="0.00" fill="#ffcc66"/>
<text x="838.21" y="382" fill="#bbb" font-size="8" transform="rotate(55 838.21 382)">6.00/-4</text>
<rect x="853.57" y="60.00" width="11.06" height="300.00" fill="#ffcc66"/>
<text x="853.57" y="382" fill="#bbb" font-size="8" transform="rotate(55 853.57 382)">6.00/0</text>
<rect x="868.93" y="360.00" width="11.06" height="0.00" fill="#ffcc66"/>
<text x="868.93" y="382" fill="#bbb" font-size="8" transform="rotate(55 868.93 382)">6.00/4</text>
<rect x="884.29" y="360.00" width="11.06" height="0.00" fill="#ffcc66"/>
<text x="884.29" y="382" fill="#bbb" font-size="8" transform="rotate(55 884.29 382)">6.00/8</text>
<rect x="899.64" y="60.00" width="11.06" height="300.00" fill="#ffcc66"/>
<text x="899.64" y="382" fill="#bbb" font-size="8" transform="rotate(55 899.64 382)">6.00/12</text>
</svg>
